<?xml version="1.0" encoding="UTF-8" standalone="no"?>
<!-- Created with Inkscape (http://www.inkscape.org/) -->

<svg
   xmlns:svg="http://www.w3.org/2000/svg"
   xmlns="http://www.w3.org/2000/svg"
   version="1.0"
   width="520"
   height="520"
   id="svg8364">
  <defs
     id="defs8366" />
  <path
     d="m 224.8125,28.5 -16.3125,6.125 0,12.21875 -26.53125,9.1875 -5.09375,-4.0625 -5.09375,3.03125 3.0625,6.125 -21.40625,10.21875 -7.15625,-8.15625 -8.15625,13.25 4.09375,6.125 -25.5,13.25 -3.0625,29.5625 -10.1875,0 -9.1875,11.21875 -10.1875,-10.1875 -11.21875,7.125 -1.03125,6.125 11.21875,12.25 -11.21875,21.40625 0,14.28125 1.3125,-1.625 -8.4375,16.90625 20.375,6.125 41.8125,13.28125 0,9.15625 1.03125,8.15625 7.125,2.0625 -10.1875,10.1875 -74.4375,6.125 2.03125,8.15625 -8.15625,1 -1.03125,10.21875 7.15625,3.0625 3.0625,20.375 -10.21875,3.0625 3.0625,8.15625 9.1875,-2.03125 9.1875,25.5 10.1875,-3.0625 13.25,4.09375 4.09375,-8.15625 4.09375,1.625 -2.0625,0.40625 3.0625,8.15625 9.1875,0 7.125,6.125 9.1875,-9.1875 L 141.1875,363 l 9.1875,10.1875 9.1875,-5.09375 5.09375,5.09375 -5.09375,7.15625 14.25,18.34375 74.53125,16.65625 7.0625,8.84375 2.03125,-2.03125 3.0625,-5.09375 24.5,8.15625 -3.0625,6.125 9.15625,13.25 20.40625,1 15.3125,31.625 -6.125,3.0625 3.0625,5.09375 11.21875,-3.0625 5.09375,6.125 6.125,3.0625 8.15625,-4.09375 -3.0625,-9.15625 17.34375,-7.15625 -2.0625,-10.1875 -7.125,2.03125 L 329.84375,414 l 6.125,-7.15625 -3.0625,-4.0625 23.46875,-47.9375 1.75,-6.40625 28.84375,7.4375 38.75,-2.0625 0,-6.09375 7.15625,-4.09375 1,-10.1875 16.3125,-4.09375 -1,-27.53125 7.125,1.03125 4.09375,-12.25 -5.125,-4.09375 3.0625,-14.25 6.125,0 -1,8.15625 13.25,-5.09375 0,-17.34375 L 465.5,252.875 l -5.09375,-5.125 -2.0625,9.1875 -25.46875,-3.0625 0,-6.125 3.03125,-7.125 -5.09375,-5.09375 -6.125,0 1.03125,5.09375 5.09375,0 -5.09375,3.0625 -2.03125,-2.03125 -5.03125,5.84375 -1.09375,-8.90625 -9.1875,-7.15625 -1,-8.15625 -5.125,1.03125 0,8.15625 0,8.15625 -5.09375,-1.03125 -7.125,1.03125 -6.125,2.03125 1.03125,-12.21875 3.0625,-7.15625 -7.15625,-1 -10.1875,5.09375 -3.0625,-5.09375 -7.15625,-5.125 -5.09375,5.125 -5.09375,-6.125 33.65625,-44.875 L 369.625,166.1875 357.40625,164.125 285,151.90625 l -0.625,0.40625 -4.5,-9.59375 2.0625,-6.125 -12.25,-14.28125 12.25,-8.15625 -4.09375,-3.0625 -9.1875,1.03125 -1,-22.4375 5.09375,-3.0625 -4.09375,-7.125 0,-16.3125 -1,-5.125 0,-21.40625 -7.15625,-6.125 -6.09375,7.15625 -24.5,2.03125 L 224.8125,28.5 z"
     id="path10953"
     style="opacity:0.1;fill:none;stroke:#000000;stroke-width:17.5;stroke-linecap:round;stroke-linejoin:round;stroke-miterlimit:4;stroke-opacity:1;stroke-dasharray:none;stroke-dashoffset:0" />
  <path
     d="m 224.8125,28.5 -16.3125,6.125 0,12.21875 -26.53125,9.1875 -5.09375,-4.0625 -5.09375,3.03125 3.0625,6.125 -21.40625,10.21875 -7.15625,-8.15625 -8.15625,13.25 4.09375,6.125 -25.5,13.25 -3.0625,29.5625 -10.1875,0 -9.1875,11.21875 -10.1875,-10.1875 -11.21875,7.125 -1.03125,6.125 11.21875,12.25 -11.21875,21.40625 0,14.28125 1.3125,-1.625 -8.4375,16.90625 20.375,6.125 41.8125,13.28125 0,9.15625 1.03125,8.15625 7.125,2.0625 -10.1875,10.1875 -74.4375,6.125 2.03125,8.15625 -8.15625,1 -1.03125,10.21875 7.15625,3.0625 3.0625,20.375 -10.21875,3.0625 3.0625,8.15625 9.1875,-2.03125 9.1875,25.5 10.1875,-3.0625 13.25,4.09375 4.09375,-8.15625 4.09375,1.625 -2.0625,0.40625 3.0625,8.15625 9.1875,0 7.125,6.125 9.1875,-9.1875 L 141.1875,363 l 9.1875,10.1875 9.1875,-5.09375 5.09375,5.09375 -5.09375,7.15625 14.25,18.34375 74.53125,16.65625 7.0625,8.84375 2.03125,-2.03125 3.0625,-5.09375 24.5,8.15625 -3.0625,6.125 9.15625,13.25 20.40625,1 15.3125,31.625 -6.125,3.0625 3.0625,5.09375 11.21875,-3.0625 5.09375,6.125 6.125,3.0625 8.15625,-4.09375 -3.0625,-9.15625 17.34375,-7.15625 -2.0625,-10.1875 -7.125,2.03125 L 329.84375,414 l 6.125,-7.15625 -3.0625,-4.0625 23.46875,-47.9375 1.75,-6.40625 28.84375,7.4375 38.75,-2.0625 0,-6.09375 7.15625,-4.09375 1,-10.1875 16.3125,-4.09375 -1,-27.53125 7.125,1.03125 4.09375,-12.25 -5.125,-4.09375 3.0625,-14.25 6.125,0 -1,8.15625 13.25,-5.09375 0,-17.34375 L 465.5,252.875 l -5.09375,-5.125 -2.0625,9.1875 -25.46875,-3.0625 0,-6.125 3.03125,-7.125 -5.09375,-5.09375 -6.125,0 1.03125,5.09375 5.09375,0 -5.09375,3.0625 -2.03125,-2.03125 -5.03125,5.84375 -1.09375,-8.90625 -9.1875,-7.15625 -1,-8.15625 -5.125,1.03125 0,8.15625 0,8.15625 -5.09375,-1.03125 -7.125,1.03125 -6.125,2.03125 1.03125,-12.21875 3.0625,-7.15625 -7.15625,-1 -10.1875,5.09375 -3.0625,-5.09375 -7.15625,-5.125 -5.09375,5.125 -5.09375,-6.125 33.65625,-44.875 L 369.625,166.1875 357.40625,164.125 285,151.90625 l -0.625,0.40625 -4.5,-9.59375 2.0625,-6.125 -12.25,-14.28125 12.25,-8.15625 -4.09375,-3.0625 -9.1875,1.03125 -1,-22.4375 5.09375,-3.0625 -4.09375,-7.125 0,-16.3125 -1,-5.125 0,-21.40625 -7.15625,-6.125 -6.09375,7.15625 -24.5,2.03125 L 224.8125,28.5 z"
     id="path10951"
     style="opacity:0.1;fill:none;stroke:#000000;stroke-width:12.5;stroke-linecap:round;stroke-linejoin:round;stroke-miterlimit:4;stroke-opacity:1;stroke-dasharray:none;stroke-dashoffset:0" />
  <path
     d="m 224.8125,28.5 -16.3125,6.125 0,12.21875 -26.53125,9.1875 -5.09375,-4.0625 -5.09375,3.03125 3.0625,6.125 -21.40625,10.21875 -7.15625,-8.15625 -8.15625,13.25 4.09375,6.125 -25.5,13.25 -3.0625,29.5625 -10.1875,0 -9.1875,11.21875 -10.1875,-10.1875 -11.21875,7.125 -1.03125,6.125 11.21875,12.25 -11.21875,21.40625 0,14.28125 1.3125,-1.625 -8.4375,16.90625 20.375,6.125 41.8125,13.28125 0,9.15625 1.03125,8.15625 7.125,2.0625 -10.1875,10.1875 -74.4375,6.125 2.03125,8.15625 -8.15625,1 -1.03125,10.21875 7.15625,3.0625 3.0625,20.375 -10.21875,3.0625 3.0625,8.15625 9.1875,-2.03125 9.1875,25.5 10.1875,-3.0625 13.25,4.09375 4.09375,-8.15625 4.09375,1.625 -2.0625,0.40625 3.0625,8.15625 9.1875,0 7.125,6.125 9.1875,-9.1875 L 141.1875,363 l 9.1875,10.1875 9.1875,-5.09375 5.09375,5.09375 -5.09375,7.15625 14.25,18.34375 74.53125,16.65625 7.0625,8.84375 2.03125,-2.03125 3.0625,-5.09375 24.5,8.15625 -3.0625,6.125 9.15625,13.25 20.40625,1 15.3125,31.625 -6.125,3.0625 3.0625,5.09375 11.21875,-3.0625 5.09375,6.125 6.125,3.0625 8.15625,-4.09375 -3.0625,-9.15625 17.34375,-7.15625 -2.0625,-10.1875 -7.125,2.03125 L 329.84375,414 l 6.125,-7.15625 -3.0625,-4.0625 23.46875,-47.9375 1.75,-6.40625 28.84375,7.4375 38.75,-2.0625 0,-6.09375 7.15625,-4.09375 1,-10.1875 16.3125,-4.09375 -1,-27.53125 7.125,1.03125 4.09375,-12.25 -5.125,-4.09375 3.0625,-14.25 6.125,0 -1,8.15625 13.25,-5.09375 0,-17.34375 L 465.5,252.875 l -5.09375,-5.125 -2.0625,9.1875 -25.46875,-3.0625 0,-6.125 3.03125,-7.125 -5.09375,-5.09375 -6.125,0 1.03125,5.09375 5.09375,0 -5.09375,3.0625 -2.03125,-2.03125 -5.03125,5.84375 -1.09375,-8.90625 -9.1875,-7.15625 -1,-8.15625 -5.125,1.03125 0,8.15625 0,8.15625 -5.09375,-1.03125 -7.125,1.03125 -6.125,2.03125 1.03125,-12.21875 3.0625,-7.15625 -7.15625,-1 -10.1875,5.09375 -3.0625,-5.09375 -7.15625,-5.125 -5.09375,5.125 -5.09375,-6.125 33.65625,-44.875 L 369.625,166.1875 357.40625,164.125 285,151.90625 l -0.625,0.40625 -4.5,-9.59375 2.0625,-6.125 -12.25,-14.28125 12.25,-8.15625 -4.09375,-3.0625 -9.1875,1.03125 -1,-22.4375 5.09375,-3.0625 -4.09375,-7.125 0,-16.3125 -1,-5.125 0,-21.40625 -7.15625,-6.125 -6.09375,7.15625 -24.5,2.03125 L 224.8125,28.5 z"
     id="path10938"
     style="opacity:0.1;fill:none;stroke:#000000;stroke-width:7.5;stroke-linecap:round;stroke-linejoin:round;stroke-miterlimit:4;stroke-opacity:1;stroke-dasharray:none;stroke-dashoffset:0" />
  <path
     d="m 224.81252,28.499861 -16.3125,6.125 0,12.21875 -26.53125,9.1875 -5.09375,-4.0625 -5.09375,3.03125 3.0625,6.124999 -21.40625,10.21875 -7.15625,-8.15625 -8.15625,13.25 4.09375,6.125 -25.5,13.25 -3.0625,29.5625 -10.1875,0 -9.1875,11.21875 -10.1875,-10.1875 -11.21875,7.125 -1.03125,6.125 11.21875,12.25 -11.21875,21.40625 0,14.28125 17.34375,-21.40625 45.875,0 62.21875,38.75 20.40625,28.5625 10.1875,26.5 -7.125,6.125 40.1875,1.78125 -3.5,-2.8125 9.1875,-25.5 -2.03125,-7.125 -1.03125,-32.625 7.15625,-12.25 -8.15625,-21.40625 21.8125,-13.875 -4.5,-9.59375 2.0625,-6.125 -12.25,-14.28125 12.25,-8.15625 -4.09375,-3.0625 -9.1875,1.03125 -1,-22.4375 5.09375,-3.0625 -4.09375,-7.125 0,-16.3125 -1,-5.124999 0,-21.40625 -7.15625,-6.125 -6.09375,7.15625 -24.5,2.03125 -5.09375,-11.21875 z"
     id="path8785"
     style="fill:#d4e5b6;fill-opacity:1;stroke:#ffffff;stroke-width:2.5;stroke-linecap:round;stroke-linejoin:round;stroke-miterlimit:4;stroke-opacity:1;stroke-dasharray:none;stroke-dashoffset:0" />
  <path
     d="m 285.00002,151.90611 -22.4375,14.28125 8.15625,21.40625 -7.15625,12.25 1.03125,32.625 2.03125,7.125 -9.1875,25.5 6.09375,4.875 11.25,-0.78125 9.1875,1 2.03125,3.0625 26.53125,3.0625 23.4375,-4.0625 81.59375,-23.46875 1.09375,-1.28125 -1.09375,-8.90625 -9.1875,-7.15625 -1,-8.15625 -5.125,1.03125 0,8.15625 0,8.15625 -5.09375,-1.03125 -7.125,1.03125 -6.125,2.03125 1.03125,-12.21875 3.0625,-7.15625 -7.15625,-1 -10.1875,5.09375 -3.0625,-5.09375 -7.15625,-5.125 -5.09375,5.125 -5.09375,-6.125 33.65625,-44.875 -14.28125,-5.09375 -12.21875,-2.0625 -72.40625,-12.21875 z"
     id="path8837"
     style="fill:#d4e5b6;fill-opacity:1;stroke:#ffffff;stroke-width:2.5;stroke-linecap:round;stroke-linejoin:round;stroke-miterlimit:4;stroke-opacity:1;stroke-dasharray:none;stroke-dashoffset:0" />
  <path
     d="m 368.61143,471.10363 -17.33703,7.13879 3.05943,9.17841 -8.15873,4.07931 -6.11887,-3.05948 -5.099,-6.11894 -11.21816,3.05946 -3.05943,-5.0991 6.11886,-3.05948 -15.29731,-31.61459 -20.39645,-1.01982 -9.17845,-13.25772 3.05943,-6.11895 -24.47575,-8.1586 -3.05958,5.09912 -2.03957,2.03965 -8.15858,-10.19826 -3.05959,0 5.09916,-33.65421 -1.01971,-9.17843 8.15843,-26.51546 -3.05943,-13.25772 -5.099,-7.13876 -6.11917,-3.05948 5.09931,-12.23791 -4.07945,-11.21807 9.17845,-10.19826 4.07929,-7.13877 5.0993,1.01982 7.13873,7.13878 5.099,0 4.07944,8.1586 3.05943,10.19824 7.13872,7.13879 6.11902,10.19826 32.63433,12.23789 32.63448,7.13878 -3.05958,11.21807 -23.45604,47.93178 3.05958,4.07929 -6.11901,7.13877 29.57505,48.9516 7.13873,-2.03964 2.03972,10.19824 z"
     id="path8883"
     style="fill:#d4e5b6;fill-opacity:1;stroke:#ffffff;stroke-width:2.5;stroke-linecap:round;stroke-linejoin:round;stroke-miterlimit:4;stroke-opacity:1;stroke-dasharray:none;stroke-dashoffset:0" />
  <path
     d="m 213.59377,262.03111 -14.28125,9.1875 2.0625,8.15625 -4.09375,28.5625 -13.25,5.09375 -89.75,17.34375 3.0625,8.15625 9.1875,0 7.125,6.125 9.1875,-9.1875 18.34375,27.53125 9.1875,10.1875 9.1875,-5.09375 5.09375,5.09375 -5.09375,7.15625 14.25,18.34375 74.53125,16.65625 -1.09375,-1.34375 -3.0625,0 5.09375,-33.65625 -1,-9.1875 8.15625,-26.5 -3.0625,-13.28125 -5.09375,-7.125 -6.125,-3.0625 5.09375,-12.25 -4.0625,-11.21875 9.15625,-10.1875 2.25,-3.90625 5.90625,-13.4375 3.03125,-0.21875 -2.59375,-2.0625 -38.84375,-1.71875 -1.34375,0.9375 -7.15625,-5.09375 z"
     id="path8895"
     style="fill:#d4e5b6;fill-opacity:1;stroke:#ffffff;stroke-width:2.5;stroke-linecap:round;stroke-linejoin:round;stroke-miterlimit:4;stroke-opacity:1;stroke-dasharray:none;stroke-dashoffset:0" />
  <path
     d="m 89.18752,166.18736 -16.03125,19.78125 -8.4375,16.90625 20.375,6.125 41.8125,13.28125 0,9.15625 1.03125,8.15625 7.125,2.0625 -10.1875,10.1875 -74.437499,6.125 2.03125,8.15625 -8.15625,1 -1.03125,10.21875 7.15625,3.0625 3.0625,20.375 -10.21875,3.0625 3.0625,8.15625 9.1875,-2.03125 9.187499,25.5 10.1875,-3.0625 13.25,4.09375 4.09375,-8.15625 4.09375,1.625 87.6875,-16.9375 13.25,-5.09375 4.09375,-28.5625 -2.0625,-8.15625 14.28125,-9.1875 7.15625,5.09375 1.34375,-0.9375 -1.34375,-0.0625 7.125,-6.125 -10.1875,-26.5 -20.40625,-28.5625 -62.21875,-38.75 -45.875,0 z"
     id="path4705-8"
     style="fill:#d4e5b6;fill-opacity:1;stroke:#ffffff;stroke-width:2.5;stroke-linecap:round;stroke-linejoin:round;stroke-miterlimit:4;stroke-opacity:1;stroke-dasharray:none;stroke-dashoffset:0" />
  <path
     d="m 424.68752,235.53111 1.03125,5.09375 5.09375,0 -5.09375,3.0625 -2.03125,-2.03125 -6.125,7.125 -81.59375,23.46875 -23.4375,4.0625 -26.53125,-3.0625 -2.03125,-3.0625 -9.1875,-1 -14.28125,1 -5.90625,13.4375 1.84375,-3.21875 5.09375,1 7.125,7.15625 5.125,0 4.0625,8.15625 3.0625,10.1875 7.125,7.15625 6.125,10.1875 32.65625,12.25 32.625,7.125 -1.3125,4.8125 28.84375,7.4375 38.75,-2.0625 0,-6.09375 7.15625,-4.09375 1,-10.1875 16.3125,-4.09375 -1,-27.53125 7.125,1.03125 4.09375,-12.25 -5.125,-4.09375 3.0625,-14.25 6.125,0 -1,8.15625 13.25,-5.09375 0,-17.34375 -11.21875,-5.09375 -5.09375,-5.125 -2.0625,9.1875 -25.46875,-3.0625 0,-6.125 3.03125,-7.125 -5.09375,-5.09375 -6.125,0 z"
     id="path11061"
     style="fill:#0A7A27;fill-opacity:1;stroke:#000000;stroke-width:7.5;stroke-linecap:round;stroke-linejoin:round;stroke-miterlimit:4;stroke-opacity:1;stroke-dasharray:none;stroke-dashoffset:0" />
  <path
     d="m 424.68752,235.53111 1.03125,5.09375 5.09375,0 -5.09375,3.0625 -2.03125,-2.03125 -6.125,7.125 -81.59375,23.46875 -23.4375,4.0625 -26.53125,-3.0625 -2.03125,-3.0625 -9.1875,-1 -14.28125,1 -5.90625,13.4375 1.84375,-3.21875 5.09375,1 7.125,7.15625 5.125,0 4.0625,8.15625 3.0625,10.1875 7.125,7.15625 6.125,10.1875 32.65625,12.25 32.625,7.125 -1.3125,4.8125 28.84375,7.4375 38.75,-2.0625 0,-6.09375 7.15625,-4.09375 1,-10.1875 16.3125,-4.09375 -1,-27.53125 7.125,1.03125 4.09375,-12.25 -5.125,-4.09375 3.0625,-14.25 6.125,0 -1,8.15625 13.25,-5.09375 0,-17.34375 -11.21875,-5.09375 -5.09375,-5.125 -2.0625,9.1875 -25.46875,-3.0625 0,-6.125 3.03125,-7.125 -5.09375,-5.09375 -6.125,0 z"
     id="path8860"
     style="fill:#0A7A27;fill-opacity:1;stroke:#ffffff;stroke-width:2.5;stroke-linecap:round;stroke-linejoin:round;stroke-miterlimit:4;stroke-opacity:1;stroke-dasharray:none;stroke-dashoffset:0" />
  <g
     transform="translate(-40,-40)"
     id="g5977">
    <path
       d="m 424.29618,319.37251 c -1.56241,5e-5 -3.0906,0.15055 -4.5625,0.46875 -1.31694,0.28479 -2.55229,0.64474 -3.71875,1.125 -1.01784,0.41915 -1.96447,0.86054 -2.84375,1.40625 -3e-5,0.0104 -3e-5,0.0208 0,0.0312 -0.69334,0.43039 -1.16362,0.63251 -2.03125,1.5 -0.37144,0.3715 -0.74687,0.7603 -1.1875,1.53125 -0.2433,0.42586 -0.44643,0.86389 -0.59375,1.28125 -0.23599,0.66874 -0.3273,1.26388 -0.375,1.8125 -0.0358,0.41155 -0.0313,0.81465 -0.0312,1.21875 -10e-6,0.54337 2.5e-4,1.03367 0.0625,1.59375 0.0652,0.58696 0.15464,1.21556 0.59375,2.15625 0.40274,0.86325 1.25927,2.08705 2.71875,2.75 0.83554,0.38005 1.70488,0.53142 2.4375,0.53125 3.11298,5e-4 3.13008,-0.91602 3.875,-1.4375 0.24646,-0.17251 0.70219,-0.42876 1.3125,-0.75 0.49832,-0.26226 1.13875,-0.56679 1.90625,-0.84375 0.34877,-0.12584 0.80745,-0.21873 1.4375,-0.21875 0.54781,2e-5 0.82632,0.0824 0.9375,0.125 0.21957,0.084 0.18525,0.12506 0.125,0.0625 0.0159,0.0165 6e-5,-0.0251 0.0312,0.0625 0.0603,0.16921 0.0937,0.32289 0.0937,0.5625 -1e-5,0.48341 -0.0481,0.73072 -0.125,0.90625 -0.0974,0.22235 -0.19417,0.34147 -0.375,0.5 -0.14939,0.13097 -0.3701,0.28413 -0.84375,0.4375 -0.44116,0.14286 -1.0778,0.25001 -1.9375,0.25 l -3.3125,0 c -0.82355,1e-4 -1.78433,0.17353 -2.6875,0.625 -0.94553,0.47289 -1.70123,1.1807 -2.1875,1.84375 -0.63425,0.86495 -0.89504,1.67723 -1.0625,2.375 -0.19276,0.80316 -0.21876,1.45945 -0.21875,2.09375 -1e-5,0.68799 0.006,1.37453 0.25,2.28125 0.17235,0.64027 0.45652,1.36587 1,2.15625 0.51572,0.75028 1.32963,1.54356 2.375,2.03125 0.76413,0.3567 1.67675,0.5626 2.5625,0.5625 l 3.59375,0 c 1.13596,1e-5 2.03761,0.1299 2.6875,0.3125 0.68173,0.19157 1.06201,0.42471 1.28125,0.59375 0.26366,0.20332 0.3335,0.31987 0.40625,0.46875 0.0592,0.12111 0.12499,0.26476 0.125,0.6875 -1e-5,0.40998 -0.0441,0.67266 -0.125,0.875 -0.0609,0.15216 -0.0888,0.19397 -0.21875,0.3125 -0.0986,0.0899 -0.29215,0.1987 -0.71875,0.34375 -0.34179,0.11621 -0.92151,0.25 -1.78125,0.25 -0.93598,0 -1.6883,-0.11932 -2.25,-0.28125 -0.90985,-0.26229 -1.64446,-0.53917 -2.1875,-0.78125 -0.68242,-0.3042 -1.17867,-0.56247 -1.4375,-0.71875 -0.36598,-0.22097 -0.72558,-0.41681 -1.1875,-0.625 -0.46192,-0.20819 -0.86822,-0.56244 -2.4375,-0.5625 -2.04869,5e-5 -4.37208,1.80666 -5.0625,3.1875 -0.90336,1.80671 -0.71875,2.66029 -0.71875,3.6875 0,0.52923 0.008,1.0335 0.0625,1.5625 0.0523,0.50558 0.12865,1.01222 0.3125,1.625 0.14208,0.47364 0.33635,1.00271 0.65625,1.5625 0.38983,0.68225 0.85109,1.16104 1.28125,1.5625 1.15083,1.07415 1.44065,1.07173 2.125,1.4375 0.92191,0.49275 1.854,0.87199 2.90625,1.21875 1.12286,0.37004 2.31297,0.63698 3.59375,0.875 1.44215,0.26801 2.96123,0.40625 4.5,0.40625 2.51818,0 4.91147,-0.33625 7.15625,-1.0625 2.20452,-0.71324 4.22977,-1.77965 5.9375,-3.28125 1.67119,-1.46952 3.02065,-3.33249 3.90625,-5.375 0.9066,-2.09111 1.31246,-4.36874 1.3125,-6.6875 -4e-5,-1.80608 -0.32861,-3.61041 -1.03125,-5.28125 -0.67731,-1.61037 -1.66842,-3.10586 -2.90625,-4.34375 -0.10074,-0.10074 -0.24005,-0.15246 -0.34375,-0.25 0.76944,-1.1372 1.44532,-2.34897 1.84375,-3.65625 0.46989,-1.54189 0.68747,-3.15273 0.6875,-4.78125 -3e-5,-1.91481 -0.31733,-3.78742 -1,-5.5625 -0.70092,-1.82225 -1.81312,-3.5173 -3.25,-4.84375 -1.46659,-1.35368 -3.24258,-2.33199 -5.125,-2.96875 -1.96226,-0.66364 -4.03509,-0.93745 -6.21875,-0.9375 l 5e-5,5e-5 z"
       id="text2507"
       style="font-size:60px;font-style:normal;font-variant:normal;font-weight:normal;font-stretch:normal;text-indent:0;text-align:start;text-decoration:none;line-height:125%;letter-spacing:normal;word-spacing:normal;text-transform:none;direction:ltr;block-progression:tb;writing-mode:lr-tb;text-anchor:start;opacity:0.5;color:#000000;fill:#ffffff;fill-opacity:1;fill-rule:nonzero;stroke:none;stroke-width:10;marker:none;visibility:visible;display:inline;overflow:visible;enable-background:accumulate;font-family:Calibri;-inkscape-font-specification:Calibri" />
    <path
       d="m 424.29618,321.87251 c -1.40621,4e-5 -2.75331,0.12998 -4.03125,0.40625 -1.20047,0.2596 -2.31424,0.58899 -3.3125,1 -0.92396,0.38049 -1.74591,0.77013 -2.46875,1.21875 -0.62988,0.39099 -1.03591,0.661 -1.5625,1.1875 -0.2785,0.27854 -0.55313,0.54619 -0.8125,1 -0.16072,0.28131 -0.27204,0.58333 -0.375,0.875 -0.1473,0.41739 -0.21638,0.8009 -0.25,1.1875 -0.0277,0.31809 -0.0312,0.65148 -0.0312,1 0,0.48655 -0.0145,0.90064 0.0312,1.3125 0.0473,0.42533 0.12126,0.86268 0.375,1.40625 0.23555,0.50488 0.71655,1.14413 1.5,1.5 0.47148,0.21445 0.97158,0.3126 1.40625,0.3125 1.65414,2.6e-4 1.85215,-0.53709 2.46875,-0.96875 0.36737,-0.25714 0.88625,-0.58155 1.5625,-0.9375 0.62025,-0.32642 1.36136,-0.65936 2.21875,-0.96875 0.64801,-0.2338 1.39981,-0.37497 2.28125,-0.375 0.79148,3e-5 1.39264,0.13988 1.84375,0.3125 0.50529,0.19341 0.80746,0.39263 1.03125,0.625 0.26184,0.27194 0.45119,0.56854 0.59375,0.96875 0.15707,0.44107 0.21874,0.89583 0.21875,1.40625 -10e-6,0.77883 -0.11487,1.38393 -0.34375,1.90625 -0.23916,0.54576 -0.55315,0.98324 -1,1.375 -0.43115,0.378 -0.96924,0.69481 -1.71875,0.9375 -0.73328,0.23746 -1.64437,0.37502 -2.71875,0.375 l -3.3125,0 c -0.49967,6e-5 -1.07381,0.1151 -1.59375,0.375 -0.54113,0.27063 -0.95316,0.65774 -1.25,1.0625 -0.37084,0.50573 -0.54323,1.02906 -0.65625,1.5 -0.12568,0.52366 -0.15626,0.99731 -0.15625,1.5 -10e-6,0.54908 0.0312,1.0447 0.1875,1.625 0.12035,0.4471 0.26829,0.93295 0.59375,1.40625 0.31157,0.45327 0.81032,0.90948 1.40625,1.1875 0.4553,0.21254 0.979,0.31256 1.5,0.3125 l 3.59375,0 c 1.31993,2e-5 2.45923,0.14894 3.375,0.40625 0.93168,0.26181 1.6101,0.63424 2.125,1.03125 0.5371,0.41417 0.87865,0.83963 1.125,1.34375 0.23954,0.49025 0.37499,1.03277 0.375,1.78125 -2e-5,0.69327 -0.10603,1.26505 -0.3125,1.78125 -0.19646,0.49112 -0.47798,0.888 -0.875,1.25 -0.38136,0.3477 -0.86093,0.63646 -1.5625,0.875 -0.65918,0.22412 -1.51935,0.375 -2.59375,0.375 -1.13206,0 -2.11467,-0.13778 -2.9375,-0.375 -0.99692,-0.28739 -1.82321,-0.60454 -2.5,-0.90625 -0.74648,-0.33276 -1.33055,-0.60936 -1.71875,-0.84375 -0.31239,-0.18861 -0.58862,-0.35684 -0.90625,-0.5 -0.31763,-0.14316 -0.60892,-0.34372 -1.4375,-0.34375 -1.1513,3e-5 -2.39893,0.98536 -2.8125,1.8125 -0.52004,1.04008 -0.46875,1.69734 -0.46875,2.5625 0,0.46969 0.0205,0.9064 0.0625,1.3125 0.0408,0.39439 0.0975,0.7522 0.21875,1.15625 0.10034,0.33448 0.23849,0.683 0.4375,1.03125 0.23398,0.40948 0.49293,0.73091 0.78125,1 0.64865,0.60544 0.96837,0.697 1.59375,1.03125 0.74416,0.39774 1.57543,0.74752 2.53125,1.0625 0.99111,0.32662 2.0891,0.59095 3.28125,0.8125 1.27283,0.23654 2.62709,0.34375 4.03125,0.34375 2.304,0 4.42252,-0.30582 6.375,-0.9375 1.93233,-0.62517 3.64222,-1.5324 5.0625,-2.78125 1.40199,-1.2328 2.50445,-2.74925 3.25,-4.46875 0.75602,-1.74379 1.12497,-3.69022 1.125,-5.71875 -3e-5,-1.49874 -0.27272,-2.95461 -0.84375,-4.3125 -0.55839,-1.32764 -1.36547,-2.52167 -2.375,-3.53125 -0.65508,-0.65505 -1.51163,-1.09708 -2.3125,-1.59375 0.47126,-0.43053 1.01894,-0.77526 1.40625,-1.28125 0.79617,-1.04017 1.38973,-2.24666 1.78125,-3.53125 0.39118,-1.28363 0.59372,-2.65252 0.59375,-4.0625 -3e-5,-1.65075 -0.2827,-3.22865 -0.84375,-4.6875 -0.5702,-1.4824 -1.46223,-2.8016 -2.625,-3.875 -1.17764,-1.08698 -2.61349,-1.89449 -4.21875,-2.4375 -1.6452,-0.55641 -3.43552,-0.81246 -5.40625,-0.8125 z"
       id="text8154"
       style="font-size:60px;font-style:normal;font-variant:normal;font-weight:normal;font-stretch:normal;text-indent:0;text-align:start;text-decoration:none;line-height:125%;letter-spacing:normal;word-spacing:normal;text-transform:none;direction:ltr;block-progression:tb;writing-mode:lr-tb;text-anchor:start;color:#000000;fill:#ffffff;fill-opacity:1;fill-rule:nonzero;stroke:none;stroke-width:5;marker:none;visibility:visible;display:inline;overflow:visible;enable-background:accumulate;font-family:Calibri;-inkscape-font-specification:Calibri" />
    <g
       transform="translate(-2.9850746,0.49751244)"
       id="text8150"
       style="font-size:60px;font-style:normal;font-variant:normal;font-weight:normal;font-stretch:normal;text-align:start;line-height:125%;writing-mode:lr-tb;text-anchor:start;fill:#000000;stroke:none;font-family:Calibri;-inkscape-font-specification:Calibri">
      <path
         d="m 439.62924,351.50998 c -2e-5,1.73829 -0.30276,3.30567 -0.9082,4.70215 -0.6055,1.39649 -1.47463,2.59277 -2.60742,3.58886 -1.13284,0.9961 -2.52932,1.7627 -4.18946,2.29981 -1.66017,0.53711 -3.53517,0.80566 -5.625,0.80566 -1.26954,0 -2.45606,-0.10254 -3.55957,-0.30761 -1.10352,-0.20508 -2.08497,-0.44922 -2.94433,-0.73243 -0.85938,-0.2832 -1.57227,-0.57617 -2.13867,-0.8789 -0.56641,-0.30273 -0.92286,-0.52246 -1.06934,-0.65918 -0.14649,-0.13672 -0.25879,-0.27344 -0.33691,-0.41016 -0.0781,-0.13671 -0.14649,-0.30273 -0.20508,-0.49804 -0.0586,-0.19531 -0.10254,-0.43457 -0.13184,-0.71778 -0.0293,-0.2832 -0.0439,-0.62988 -0.0439,-1.04004 -1e-5,-0.70312 0.0684,-1.1914 0.20507,-1.46484 0.13672,-0.27343 0.33203,-0.41015 0.58594,-0.41016 0.17578,10e-6 0.52246,0.15626 1.04004,0.46875 0.51757,0.31251 1.18164,0.64942 1.99219,1.01075 0.81054,0.36133 1.7578,0.69824 2.8418,1.01074 1.08397,0.3125 2.29002,0.46875 3.61816,0.46875 1.28905,0 2.42186,-0.16601 3.39844,-0.49805 0.97654,-0.33203 1.79685,-0.80078 2.46093,-1.40625 0.66405,-0.60546 1.16209,-1.32323 1.49415,-2.15332 0.33201,-0.83007 0.49802,-1.73339 0.49804,-2.70996 -2e-5,-1.07421 -0.20998,-2.041 -0.62988,-2.90039 -0.41994,-0.85936 -1.03518,-1.60155 -1.8457,-2.22656 -0.81057,-0.62499 -1.80666,-1.1035 -2.98829,-1.43555 -1.18165,-0.33201 -2.52442,-0.49803 -4.02832,-0.49805 l -3.60351,0 c -0.15626,2e-5 -0.30763,-0.0342 -0.4541,-0.10254 -0.14649,-0.0683 -0.27345,-0.18064 -0.38086,-0.33691 -0.10743,-0.15623 -0.19532,-0.36131 -0.26367,-0.61524 -0.0684,-0.25388 -0.10255,-0.58591 -0.10254,-0.99609 -10e-6,-0.37107 0.0293,-0.67869 0.0879,-0.92285 0.0586,-0.24412 0.14159,-0.43943 0.24902,-0.58594 0.10742,-0.14646 0.22949,-0.25388 0.36621,-0.32226 0.13671,-0.0683 0.29296,-0.10252 0.46875,-0.10254 l 3.31055,0 c 1.28905,2e-5 2.44627,-0.166 3.47168,-0.49805 1.02537,-0.33201 1.89451,-0.81052 2.60742,-1.43555 0.71287,-0.62497 1.25975,-1.37204 1.64063,-2.24121 0.38084,-0.86911 0.57126,-1.84079 0.57128,-2.91504 -2e-5,-0.78122 -0.12697,-1.52829 -0.38085,-2.24121 -0.25393,-0.71286 -0.63479,-1.33297 -1.14258,-1.86035 -0.50783,-0.52731 -1.15725,-0.94235 -1.94825,-1.24512 -0.79103,-0.3027 -1.70411,-0.45406 -2.73925,-0.4541 -1.13283,4e-5 -2.17287,0.17093 -3.12012,0.5127 -0.94728,0.34183 -1.792,0.70804 -2.53418,1.09863 -0.74219,0.39066 -1.35743,0.75687 -1.8457,1.09863 -0.48829,0.34183 -0.83009,0.51273 -1.02539,0.5127 -0.13673,3e-5 -0.2588,-0.0244 -0.36621,-0.0732 -0.10743,-0.0488 -0.19532,-0.14646 -0.26368,-0.29297 -0.0684,-0.14646 -0.11719,-0.35153 -0.14648,-0.61524 -0.0293,-0.26364 -0.044,-0.61032 -0.044,-1.04004 0,-0.29293 0.01,-0.55172 0.0293,-0.77636 0.0195,-0.22458 0.0586,-0.41989 0.11719,-0.58594 0.0586,-0.16598 0.12695,-0.31735 0.20508,-0.4541 0.0781,-0.13669 0.20995,-0.29782 0.3955,-0.4834 0.18555,-0.18551 0.56152,-0.45407 1.12793,-0.80566 0.5664,-0.35153 1.26465,-0.69821 2.09473,-1.04004 0.83007,-0.34176 1.7871,-0.62985 2.87109,-0.86426 1.08398,-0.23434 2.25097,-0.35153 3.50098,-0.35156 1.7578,3e-5 3.30076,0.22464 4.62891,0.67382 1.3281,0.44926 2.4365,1.08403 3.32519,1.9043 0.88865,0.82035 1.55271,1.80179 1.99219,2.94434 0.43943,1.14261 0.65915,2.40725 0.65918,3.79394 -3e-5,1.19144 -0.15628,2.29983 -0.46875,3.3252 -0.31252,1.02541 -0.77151,1.93362 -1.37695,2.72461 -0.6055,0.79103 -1.34768,1.46486 -2.22657,2.02148 -0.87892,0.55666 -1.89455,0.9424 -3.04687,1.15723 l 0,0.0586 c 1.30857,0.13674 2.50486,0.46389 3.58887,0.98145 1.08396,0.51759 2.01657,1.16701 2.79785,1.94824 0.78122,0.78127 1.39157,1.69435 1.83105,2.73926 0.43943,1.04493 0.65916,2.1631 0.65918,3.35449 z"
         id="path5941"
         style="fill:#000000;font-family:Calibri;-inkscape-font-specification:Calibri" />
    </g>
  </g>
</svg>
