<?xml version="1.0" encoding="UTF-8" standalone="no"?>
<!-- Created with Inkscape (http://www.inkscape.org/) -->

<svg
   xmlns:dc="http://purl.org/dc/elements/1.1/"
   xmlns:cc="http://creativecommons.org/ns#"
   xmlns:rdf="http://www.w3.org/1999/02/22-rdf-syntax-ns#"
   xmlns:svg="http://www.w3.org/2000/svg"
   xmlns="http://www.w3.org/2000/svg"
   xmlns:sodipodi="http://sodipodi.sourceforge.net/DTD/sodipodi-0.dtd"
   xmlns:inkscape="http://www.inkscape.org/namespaces/inkscape"
   version="1.0"
   width="520"
   height="520"
   id="svg8364"
   sodipodi:version="0.32"
   inkscape:version="0.46+devel r21167"
   sodipodi:docname="Bucureşti Sectoare.svg"
   inkscape:output_extension="org.inkscape.output.svg.inkscape">
  <metadata
     id="metadata12106">
    <rdf:RDF>
      <cc:Work
         rdf:about="">
        <dc:format>image/svg+xml</dc:format>
        <dc:type
           rdf:resource="http://purl.org/dc/dcmitype/StillImage" />
      </cc:Work>
    </rdf:RDF>
  </metadata>
  <sodipodi:namedview
     pagecolor="#ffffff"
     bordercolor="#666666"
     borderopacity="1"
     objecttolerance="10"
     gridtolerance="10"
     guidetolerance="10"
     inkscape:pageopacity="0"
     inkscape:pageshadow="2"
     inkscape:window-width="1600"
     inkscape:window-height="850"
     id="namedview12104"
     showgrid="false"
     inkscape:zoom="1.1596154"
     inkscape:cx="28.727428"
     inkscape:cy="229.07701"
     inkscape:window-x="-8"
     inkscape:window-y="-8"
     inkscape:current-layer="svg8364" />
  <defs
     id="defs8366">
    <inkscape:perspective
       sodipodi:type="inkscape:persp3d"
       inkscape:vp_x="0 : 260 : 1"
       inkscape:vp_y="0 : 1000 : 0"
       inkscape:vp_z="520 : 260 : 1"
       inkscape:persp3d-origin="260 : 173.33333 : 1"
       id="perspective12108" />
  </defs>
  <path
     d="m 224.8125,28.5 -16.3125,6.125 0,12.21875 -26.53125,9.1875 -5.09375,-4.0625 -5.09375,3.03125 3.0625,6.125 -21.40625,10.21875 -7.15625,-8.15625 -8.15625,13.25 4.09375,6.125 -25.5,13.25 -3.0625,29.5625 -10.1875,0 -9.1875,11.21875 -10.1875,-10.1875 -11.21875,7.125 -1.03125,6.125 11.21875,12.25 -11.21875,21.40625 0,14.28125 1.3125,-1.625 -8.4375,16.90625 20.375,6.125 41.8125,13.28125 0,9.15625 1.03125,8.15625 7.125,2.0625 -10.1875,10.1875 -74.4375,6.125 2.03125,8.15625 -8.15625,1 -1.03125,10.21875 7.15625,3.0625 3.0625,20.375 -10.21875,3.0625 3.0625,8.15625 9.1875,-2.03125 9.1875,25.5 10.1875,-3.0625 13.25,4.09375 4.09375,-8.15625 4.09375,1.625 -2.0625,0.40625 3.0625,8.15625 9.1875,0 7.125,6.125 9.1875,-9.1875 L 141.1875,363 l 9.1875,10.1875 9.1875,-5.09375 5.09375,5.09375 -5.09375,7.15625 14.25,18.34375 74.53125,16.65625 7.0625,8.84375 2.03125,-2.03125 3.0625,-5.09375 24.5,8.15625 -3.0625,6.125 9.15625,13.25 20.40625,1 15.3125,31.625 -6.125,3.0625 3.0625,5.09375 11.21875,-3.0625 5.09375,6.125 6.125,3.0625 8.15625,-4.09375 -3.0625,-9.15625 17.34375,-7.15625 -2.0625,-10.1875 -7.125,2.03125 L 329.84375,414 l 6.125,-7.15625 -3.0625,-4.0625 23.46875,-47.9375 1.75,-6.40625 28.84375,7.4375 38.75,-2.0625 0,-6.09375 7.15625,-4.09375 1,-10.1875 16.3125,-4.09375 -1,-27.53125 7.125,1.03125 4.09375,-12.25 -5.125,-4.09375 3.0625,-14.25 6.125,0 -1,8.15625 13.25,-5.09375 0,-17.34375 L 465.5,252.875 l -5.09375,-5.125 -2.0625,9.1875 -25.46875,-3.0625 0,-6.125 3.03125,-7.125 -5.09375,-5.09375 -6.125,0 1.03125,5.09375 5.09375,0 -5.09375,3.0625 -2.03125,-2.03125 -5.03125,5.84375 -1.09375,-8.90625 -9.1875,-7.15625 -1,-8.15625 -5.125,1.03125 0,8.15625 0,8.15625 -5.09375,-1.03125 -7.125,1.03125 -6.125,2.03125 1.03125,-12.21875 3.0625,-7.15625 -7.15625,-1 -10.1875,5.09375 -3.0625,-5.09375 -7.15625,-5.125 -5.09375,5.125 -5.09375,-6.125 33.65625,-44.875 L 369.625,166.1875 357.40625,164.125 285,151.90625 l -0.625,0.40625 -4.5,-9.59375 2.0625,-6.125 -12.25,-14.28125 12.25,-8.15625 -4.09375,-3.0625 -9.1875,1.03125 -1,-22.4375 5.09375,-3.0625 -4.09375,-7.125 0,-16.3125 -1,-5.125 0,-21.40625 -7.15625,-6.125 -6.09375,7.15625 -24.5,2.03125 L 224.8125,28.5 z"
     id="path10953"
     style="opacity:0.1;fill:none;stroke:#000000;stroke-width:17.5;stroke-linecap:round;stroke-linejoin:round;stroke-miterlimit:4;stroke-opacity:1;stroke-dasharray:none;stroke-dashoffset:0" />
  <path
     d="m 224.8125,28.5 -16.3125,6.125 0,12.21875 -26.53125,9.1875 -5.09375,-4.0625 -5.09375,3.03125 3.0625,6.125 -21.40625,10.21875 -7.15625,-8.15625 -8.15625,13.25 4.09375,6.125 -25.5,13.25 -3.0625,29.5625 -10.1875,0 -9.1875,11.21875 -10.1875,-10.1875 -11.21875,7.125 -1.03125,6.125 11.21875,12.25 -11.21875,21.40625 0,14.28125 1.3125,-1.625 -8.4375,16.90625 20.375,6.125 41.8125,13.28125 0,9.15625 1.03125,8.15625 7.125,2.0625 -10.1875,10.1875 -74.4375,6.125 2.03125,8.15625 -8.15625,1 -1.03125,10.21875 7.15625,3.0625 3.0625,20.375 -10.21875,3.0625 3.0625,8.15625 9.1875,-2.03125 9.1875,25.5 10.1875,-3.0625 13.25,4.09375 4.09375,-8.15625 4.09375,1.625 -2.0625,0.40625 3.0625,8.15625 9.1875,0 7.125,6.125 9.1875,-9.1875 L 141.1875,363 l 9.1875,10.1875 9.1875,-5.09375 5.09375,5.09375 -5.09375,7.15625 14.25,18.34375 74.53125,16.65625 7.0625,8.84375 2.03125,-2.03125 3.0625,-5.09375 24.5,8.15625 -3.0625,6.125 9.15625,13.25 20.40625,1 15.3125,31.625 -6.125,3.0625 3.0625,5.09375 11.21875,-3.0625 5.09375,6.125 6.125,3.0625 8.15625,-4.09375 -3.0625,-9.15625 17.34375,-7.15625 -2.0625,-10.1875 -7.125,2.03125 L 329.84375,414 l 6.125,-7.15625 -3.0625,-4.0625 23.46875,-47.9375 1.75,-6.40625 28.84375,7.4375 38.75,-2.0625 0,-6.09375 7.15625,-4.09375 1,-10.1875 16.3125,-4.09375 -1,-27.53125 7.125,1.03125 4.09375,-12.25 -5.125,-4.09375 3.0625,-14.25 6.125,0 -1,8.15625 13.25,-5.09375 0,-17.34375 L 465.5,252.875 l -5.09375,-5.125 -2.0625,9.1875 -25.46875,-3.0625 0,-6.125 3.03125,-7.125 -5.09375,-5.09375 -6.125,0 1.03125,5.09375 5.09375,0 -5.09375,3.0625 -2.03125,-2.03125 -5.03125,5.84375 -1.09375,-8.90625 -9.1875,-7.15625 -1,-8.15625 -5.125,1.03125 0,8.15625 0,8.15625 -5.09375,-1.03125 -7.125,1.03125 -6.125,2.03125 1.03125,-12.21875 3.0625,-7.15625 -7.15625,-1 -10.1875,5.09375 -3.0625,-5.09375 -7.15625,-5.125 -5.09375,5.125 -5.09375,-6.125 33.65625,-44.875 L 369.625,166.1875 357.40625,164.125 285,151.90625 l -0.625,0.40625 -4.5,-9.59375 2.0625,-6.125 -12.25,-14.28125 12.25,-8.15625 -4.09375,-3.0625 -9.1875,1.03125 -1,-22.4375 5.09375,-3.0625 -4.09375,-7.125 0,-16.3125 -1,-5.125 0,-21.40625 -7.15625,-6.125 -6.09375,7.15625 -24.5,2.03125 L 224.8125,28.5 z"
     id="path10951"
     style="opacity:0.1;fill:none;stroke:#000000;stroke-width:12.5;stroke-linecap:round;stroke-linejoin:round;stroke-miterlimit:4;stroke-opacity:1;stroke-dasharray:none;stroke-dashoffset:0" />
  <path
     d="m 224.8125,28.5 -16.3125,6.125 0,12.21875 -26.53125,9.1875 -5.09375,-4.0625 -5.09375,3.03125 3.0625,6.125 -21.40625,10.21875 -7.15625,-8.15625 -8.15625,13.25 4.09375,6.125 -25.5,13.25 -3.0625,29.5625 -10.1875,0 -9.1875,11.21875 -10.1875,-10.1875 -11.21875,7.125 -1.03125,6.125 11.21875,12.25 -11.21875,21.40625 0,14.28125 1.3125,-1.625 -8.4375,16.90625 20.375,6.125 41.8125,13.28125 0,9.15625 1.03125,8.15625 7.125,2.0625 -10.1875,10.1875 -74.4375,6.125 2.03125,8.15625 -8.15625,1 -1.03125,10.21875 7.15625,3.0625 3.0625,20.375 -10.21875,3.0625 3.0625,8.15625 9.1875,-2.03125 9.1875,25.5 10.1875,-3.0625 13.25,4.09375 4.09375,-8.15625 4.09375,1.625 -2.0625,0.40625 3.0625,8.15625 9.1875,0 7.125,6.125 9.1875,-9.1875 L 141.1875,363 l 9.1875,10.1875 9.1875,-5.09375 5.09375,5.09375 -5.09375,7.15625 14.25,18.34375 74.53125,16.65625 7.0625,8.84375 2.03125,-2.03125 3.0625,-5.09375 24.5,8.15625 -3.0625,6.125 9.15625,13.25 20.40625,1 15.3125,31.625 -6.125,3.0625 3.0625,5.09375 11.21875,-3.0625 5.09375,6.125 6.125,3.0625 8.15625,-4.09375 -3.0625,-9.15625 17.34375,-7.15625 -2.0625,-10.1875 -7.125,2.03125 L 329.84375,414 l 6.125,-7.15625 -3.0625,-4.0625 23.46875,-47.9375 1.75,-6.40625 28.84375,7.4375 38.75,-2.0625 0,-6.09375 7.15625,-4.09375 1,-10.1875 16.3125,-4.09375 -1,-27.53125 7.125,1.03125 4.09375,-12.25 -5.125,-4.09375 3.0625,-14.25 6.125,0 -1,8.15625 13.25,-5.09375 0,-17.34375 L 465.5,252.875 l -5.09375,-5.125 -2.0625,9.1875 -25.46875,-3.0625 0,-6.125 3.03125,-7.125 -5.09375,-5.09375 -6.125,0 1.03125,5.09375 5.09375,0 -5.09375,3.0625 -2.03125,-2.03125 -5.03125,5.84375 -1.09375,-8.90625 -9.1875,-7.15625 -1,-8.15625 -5.125,1.03125 0,8.15625 0,8.15625 -5.09375,-1.03125 -7.125,1.03125 -6.125,2.03125 1.03125,-12.21875 3.0625,-7.15625 -7.15625,-1 -10.1875,5.09375 -3.0625,-5.09375 -7.15625,-5.125 -5.09375,5.125 -5.09375,-6.125 33.65625,-44.875 L 369.625,166.1875 357.40625,164.125 285,151.90625 l -0.625,0.40625 -4.5,-9.59375 2.0625,-6.125 -12.25,-14.28125 12.25,-8.15625 -4.09375,-3.0625 -9.1875,1.03125 -1,-22.4375 5.09375,-3.0625 -4.09375,-7.125 0,-16.3125 -1,-5.125 0,-21.40625 -7.15625,-6.125 -6.09375,7.15625 -24.5,2.03125 L 224.8125,28.5 z"
     id="path10938"
     style="opacity:1;fill:none;stroke:#000000;stroke-width:7.50000000000000000;stroke-linecap:round;stroke-linejoin:round;stroke-miterlimit:4;stroke-opacity:1;stroke-dasharray:none;stroke-dashoffset:0" />
  <g
     id="g10955">
    <path
       d="m 224.81252,28.499861 -16.3125,6.125 0,12.21875 -26.53125,9.1875 -5.09375,-4.0625 -5.09375,3.03125 3.0625,6.124999 -21.40625,10.21875 -7.15625,-8.15625 -8.15625,13.25 4.09375,6.125 -25.5,13.25 -3.0625,29.5625 -10.1875,0 -9.1875,11.21875 -10.1875,-10.1875 -11.21875,7.125 -1.03125,6.125 11.21875,12.25 -11.21875,21.40625 0,14.28125 17.34375,-21.40625 45.875,0 62.21875,38.75 20.40625,28.5625 10.1875,26.5 -7.125,6.125 40.1875,1.78125 -3.5,-2.8125 9.1875,-25.5 -2.03125,-7.125 -1.03125,-32.625 7.15625,-12.25 -8.15625,-21.40625 21.8125,-13.875 -4.5,-9.59375 2.0625,-6.125 -12.25,-14.28125 12.25,-8.15625 -4.09375,-3.0625 -9.1875,1.03125 -1,-22.4375 5.09375,-3.0625 -4.09375,-7.125 0,-16.3125 -1,-5.124999 0,-21.40625 -7.15625,-6.125 -6.09375,7.15625 -24.5,2.03125 -5.09375,-11.21875 z"
       id="path8785"
       style="fill:#0A7A27;;fill-opacity:1;stroke:#ffffff;stroke-width:2.5;stroke-linecap:round;stroke-linejoin:round;stroke-miterlimit:4;stroke-opacity:1;stroke-dasharray:none;stroke-dashoffset:0" />
    <path
       d="m 285.00002,151.90611 -22.4375,14.28125 8.15625,21.40625 -7.15625,12.25 1.03125,32.625 2.03125,7.125 -9.1875,25.5 6.09375,4.875 11.25,-0.78125 9.1875,1 2.03125,3.0625 26.53125,3.0625 23.4375,-4.0625 81.59375,-23.46875 1.09375,-1.28125 -1.09375,-8.90625 -9.1875,-7.15625 -1,-8.15625 -5.125,1.03125 0,8.15625 0,8.15625 -5.09375,-1.03125 -7.125,1.03125 -6.125,2.03125 1.03125,-12.21875 3.0625,-7.15625 -7.15625,-1 -10.1875,5.09375 -3.0625,-5.09375 -7.15625,-5.125 -5.09375,5.125 -5.09375,-6.125 33.65625,-44.875 -14.28125,-5.09375 -12.21875,-2.0625 -72.40625,-12.21875 z"
       id="path8837"
       style="fill:#0A7A27;;fill-opacity:1;stroke:#ffffff;stroke-width:2.5;stroke-linecap:round;stroke-linejoin:round;stroke-miterlimit:4;stroke-opacity:1;stroke-dasharray:none;stroke-dashoffset:0" />
    <path
       d="m 424.68752,235.53111 1.03125,5.09375 5.09375,0 -5.09375,3.0625 -2.03125,-2.03125 -6.125,7.125 -81.59375,23.46875 -23.4375,4.0625 -26.53125,-3.0625 -2.03125,-3.0625 -9.1875,-1 -14.28125,1 -5.90625,13.4375 1.84375,-3.21875 5.09375,1 7.125,7.15625 5.125,0 4.0625,8.15625 3.0625,10.1875 7.125,7.15625 6.125,10.1875 32.65625,12.25 32.625,7.125 -1.3125,4.8125 28.84375,7.4375 38.75,-2.0625 0,-6.09375 7.15625,-4.09375 1,-10.1875 16.3125,-4.09375 -1,-27.53125 7.125,1.03125 4.09375,-12.25 -5.125,-4.09375 3.0625,-14.25 6.125,0 -1,8.15625 13.25,-5.09375 0,-17.34375 -11.21875,-5.09375 -5.09375,-5.125 -2.0625,9.1875 -25.46875,-3.0625 0,-6.125 3.03125,-7.125 -5.09375,-5.09375 -6.125,0 z"
       id="path8860"
       style="fill:#0A7A27;fill-opacity:1;stroke:#ffffff;stroke-width:2.5;stroke-linecap:round;stroke-linejoin:round;stroke-miterlimit:4;stroke-opacity:1;stroke-dasharray:none;stroke-dashoffset:0" />
    <path
       d="m 368.61143,471.10363 -17.33703,7.13879 3.05943,9.17841 -8.15873,4.07931 -6.11887,-3.05948 -5.099,-6.11894 -11.21816,3.05946 -3.05943,-5.0991 6.11886,-3.05948 -15.29731,-31.61459 -20.39645,-1.01982 -9.17845,-13.25772 3.05943,-6.11895 -24.47575,-8.1586 -3.05958,5.09912 -2.03957,2.03965 -8.15858,-10.19826 -3.05959,0 5.09916,-33.65421 -1.01971,-9.17843 8.15843,-26.51546 -3.05943,-13.25772 -5.099,-7.13876 -6.11917,-3.05948 5.09931,-12.23791 -4.07945,-11.21807 9.17845,-10.19826 4.07929,-7.13877 5.0993,1.01982 7.13873,7.13878 5.099,0 4.07944,8.1586 3.05943,10.19824 7.13872,7.13879 6.11902,10.19826 32.63433,12.23789 32.63448,7.13878 -3.05958,11.21807 -23.45604,47.93178 3.05958,4.07929 -6.11901,7.13877 29.57505,48.9516 7.13873,-2.03964 2.03972,10.19824 z"
       id="path8883"
       style="fill:#0A7A27;;fill-opacity:1;stroke:#ffffff;stroke-width:2.5;stroke-linecap:round;stroke-linejoin:round;stroke-miterlimit:4;stroke-opacity:1;stroke-dasharray:none;stroke-dashoffset:0" />
    <path
       d="m 213.59377,262.03111 -14.28125,9.1875 2.0625,8.15625 -4.09375,28.5625 -13.25,5.09375 -89.75,17.34375 3.0625,8.15625 9.1875,0 7.125,6.125 9.1875,-9.1875 18.34375,27.53125 9.1875,10.1875 9.1875,-5.09375 5.09375,5.09375 -5.09375,7.15625 14.25,18.34375 74.53125,16.65625 -1.09375,-1.34375 -3.0625,0 5.09375,-33.65625 -1,-9.1875 8.15625,-26.5 -3.0625,-13.28125 -5.09375,-7.125 -6.125,-3.0625 5.09375,-12.25 -4.0625,-11.21875 9.15625,-10.1875 2.25,-3.90625 5.90625,-13.4375 3.03125,-0.21875 -2.59375,-2.0625 -38.84375,-1.71875 -1.34375,0.9375 -7.15625,-5.09375 z"
       id="path8895"
       style="fill:#0A7A27;;fill-opacity:1;stroke:#ffffff;stroke-width:2.5;stroke-linecap:round;stroke-linejoin:round;stroke-miterlimit:4;stroke-opacity:1;stroke-dasharray:none;stroke-dashoffset:0" />
    <path
       d="m 89.18752,166.18736 -16.03125,19.78125 -8.4375,16.90625 20.375,6.125 41.8125,13.28125 0,9.15625 1.03125,8.15625 7.125,2.0625 -10.1875,10.1875 -74.437499,6.125 2.03125,8.15625 -8.15625,1 -1.03125,10.21875 7.15625,3.0625 3.0625,20.375 -10.21875,3.0625 3.0625,8.15625 9.1875,-2.03125 9.187499,25.5 10.1875,-3.0625 13.25,4.09375 4.09375,-8.15625 4.09375,1.625 87.6875,-16.9375 13.25,-5.09375 4.09375,-28.5625 -2.0625,-8.15625 14.28125,-9.1875 7.15625,5.09375 1.34375,-0.9375 -1.34375,-0.0625 7.125,-6.125 -10.1875,-26.5 -20.40625,-28.5625 -62.21875,-38.75 -45.875,0 z"
       id="path4705-8"
       style="fill:#0A7A27;;fill-opacity:1;stroke:#ffffff;stroke-width:2.5;stroke-linecap:round;stroke-linejoin:round;stroke-miterlimit:4;stroke-opacity:1;stroke-dasharray:none;stroke-dashoffset:0" />
  </g>
  <g
     transform="translate(-40,-40)"
     id="g5977">
    <path
       d="m 424.29618,319.37251 c -1.56241,5e-5 -3.0906,0.15055 -4.5625,0.46875 -1.31694,0.28479 -2.55229,0.64474 -3.71875,1.125 -1.01784,0.41915 -1.96447,0.86054 -2.84375,1.40625 -3e-5,0.0104 -3e-5,0.0208 0,0.0312 -0.69334,0.43039 -1.16362,0.63251 -2.03125,1.5 -0.37144,0.3715 -0.74687,0.7603 -1.1875,1.53125 -0.2433,0.42586 -0.44643,0.86389 -0.59375,1.28125 -0.23599,0.66874 -0.3273,1.26388 -0.375,1.8125 -0.0358,0.41155 -0.0313,0.81465 -0.0312,1.21875 -10e-6,0.54337 2.5e-4,1.03367 0.0625,1.59375 0.0652,0.58696 0.15464,1.21556 0.59375,2.15625 0.40274,0.86325 1.25927,2.08705 2.71875,2.75 0.83554,0.38005 1.70488,0.53142 2.4375,0.53125 3.11298,5e-4 3.13008,-0.91602 3.875,-1.4375 0.24646,-0.17251 0.70219,-0.42876 1.3125,-0.75 0.49832,-0.26226 1.13875,-0.56679 1.90625,-0.84375 0.34877,-0.12584 0.80745,-0.21873 1.4375,-0.21875 0.54781,2e-5 0.82632,0.0824 0.9375,0.125 0.21957,0.084 0.18525,0.12506 0.125,0.0625 0.0159,0.0165 6e-5,-0.0251 0.0312,0.0625 0.0603,0.16921 0.0937,0.32289 0.0937,0.5625 -1e-5,0.48341 -0.0481,0.73072 -0.125,0.90625 -0.0974,0.22235 -0.19417,0.34147 -0.375,0.5 -0.14939,0.13097 -0.3701,0.28413 -0.84375,0.4375 -0.44116,0.14286 -1.0778,0.25001 -1.9375,0.25 l -3.3125,0 c -0.82355,1e-4 -1.78433,0.17353 -2.6875,0.625 -0.94553,0.47289 -1.70123,1.1807 -2.1875,1.84375 -0.63425,0.86495 -0.89504,1.67723 -1.0625,2.375 -0.19276,0.80316 -0.21876,1.45945 -0.21875,2.09375 -1e-5,0.68799 0.006,1.37453 0.25,2.28125 0.17235,0.64027 0.45652,1.36587 1,2.15625 0.51572,0.75028 1.32963,1.54356 2.375,2.03125 0.76413,0.3567 1.67675,0.5626 2.5625,0.5625 l 3.59375,0 c 1.13596,1e-5 2.03761,0.1299 2.6875,0.3125 0.68173,0.19157 1.06201,0.42471 1.28125,0.59375 0.26366,0.20332 0.3335,0.31987 0.40625,0.46875 0.0592,0.12111 0.12499,0.26476 0.125,0.6875 -1e-5,0.40998 -0.0441,0.67266 -0.125,0.875 -0.0609,0.15216 -0.0888,0.19397 -0.21875,0.3125 -0.0986,0.0899 -0.29215,0.1987 -0.71875,0.34375 -0.34179,0.11621 -0.92151,0.25 -1.78125,0.25 -0.93598,0 -1.6883,-0.11932 -2.25,-0.28125 -0.90985,-0.26229 -1.64446,-0.53917 -2.1875,-0.78125 -0.68242,-0.3042 -1.17867,-0.56247 -1.4375,-0.71875 -0.36598,-0.22097 -0.72558,-0.41681 -1.1875,-0.625 -0.46192,-0.20819 -0.86822,-0.56244 -2.4375,-0.5625 -2.04869,5e-5 -4.37208,1.80666 -5.0625,3.1875 -0.90336,1.80671 -0.71875,2.66029 -0.71875,3.6875 0,0.52923 0.008,1.0335 0.0625,1.5625 0.0523,0.50558 0.12865,1.01222 0.3125,1.625 0.14208,0.47364 0.33635,1.00271 0.65625,1.5625 0.38983,0.68225 0.85109,1.16104 1.28125,1.5625 1.15083,1.07415 1.44065,1.07173 2.125,1.4375 0.92191,0.49275 1.854,0.87199 2.90625,1.21875 1.12286,0.37004 2.31297,0.63698 3.59375,0.875 1.44215,0.26801 2.96123,0.40625 4.5,0.40625 2.51818,0 4.91147,-0.33625 7.15625,-1.0625 2.20452,-0.71324 4.22977,-1.77965 5.9375,-3.28125 1.67119,-1.46952 3.02065,-3.33249 3.90625,-5.375 0.9066,-2.09111 1.31246,-4.36874 1.3125,-6.6875 -4e-5,-1.80608 -0.32861,-3.61041 -1.03125,-5.28125 -0.67731,-1.61037 -1.66842,-3.10586 -2.90625,-4.34375 -0.10074,-0.10074 -0.24005,-0.15246 -0.34375,-0.25 0.76944,-1.1372 1.44532,-2.34897 1.84375,-3.65625 0.46989,-1.54189 0.68747,-3.15273 0.6875,-4.78125 -3e-5,-1.91481 -0.31733,-3.78742 -1,-5.5625 -0.70092,-1.82225 -1.81312,-3.5173 -3.25,-4.84375 -1.46659,-1.35368 -3.24258,-2.33199 -5.125,-2.96875 -1.96226,-0.66364 -4.03509,-0.93745 -6.21875,-0.9375 l 5e-5,5e-5 z"
       id="text2507"
       style="font-size:60px;font-style:normal;font-variant:normal;font-weight:normal;font-stretch:normal;text-indent:0;text-align:start;text-decoration:none;line-height:125%;letter-spacing:normal;word-spacing:normal;text-transform:none;direction:ltr;block-progression:tb;writing-mode:lr-tb;text-anchor:start;opacity:0.5;color:#000000;fill:#ffffff;fill-opacity:1;fill-rule:nonzero;stroke:none;stroke-width:10;marker:none;visibility:visible;display:inline;overflow:visible;enable-background:accumulate;font-family:Calibri;-inkscape-font-specification:Calibri" />
    <path
       d="m 424.29618,321.87251 c -1.40621,4e-5 -2.75331,0.12998 -4.03125,0.40625 -1.20047,0.2596 -2.31424,0.58899 -3.3125,1 -0.92396,0.38049 -1.74591,0.77013 -2.46875,1.21875 -0.62988,0.39099 -1.03591,0.661 -1.5625,1.1875 -0.2785,0.27854 -0.55313,0.54619 -0.8125,1 -0.16072,0.28131 -0.27204,0.58333 -0.375,0.875 -0.1473,0.41739 -0.21638,0.8009 -0.25,1.1875 -0.0277,0.31809 -0.0312,0.65148 -0.0312,1 0,0.48655 -0.0145,0.90064 0.0312,1.3125 0.0473,0.42533 0.12126,0.86268 0.375,1.40625 0.23555,0.50488 0.71655,1.14413 1.5,1.5 0.47148,0.21445 0.97158,0.3126 1.40625,0.3125 1.65414,2.6e-4 1.85215,-0.53709 2.46875,-0.96875 0.36737,-0.25714 0.88625,-0.58155 1.5625,-0.9375 0.62025,-0.32642 1.36136,-0.65936 2.21875,-0.96875 0.64801,-0.2338 1.39981,-0.37497 2.28125,-0.375 0.79148,3e-5 1.39264,0.13988 1.84375,0.3125 0.50529,0.19341 0.80746,0.39263 1.03125,0.625 0.26184,0.27194 0.45119,0.56854 0.59375,0.96875 0.15707,0.44107 0.21874,0.89583 0.21875,1.40625 -10e-6,0.77883 -0.11487,1.38393 -0.34375,1.90625 -0.23916,0.54576 -0.55315,0.98324 -1,1.375 -0.43115,0.378 -0.96924,0.69481 -1.71875,0.9375 -0.73328,0.23746 -1.64437,0.37502 -2.71875,0.375 l -3.3125,0 c -0.49967,6e-5 -1.07381,0.1151 -1.59375,0.375 -0.54113,0.27063 -0.95316,0.65774 -1.25,1.0625 -0.37084,0.50573 -0.54323,1.02906 -0.65625,1.5 -0.12568,0.52366 -0.15626,0.99731 -0.15625,1.5 -10e-6,0.54908 0.0312,1.0447 0.1875,1.625 0.12035,0.4471 0.26829,0.93295 0.59375,1.40625 0.31157,0.45327 0.81032,0.90948 1.40625,1.1875 0.4553,0.21254 0.979,0.31256 1.5,0.3125 l 3.59375,0 c 1.31993,2e-5 2.45923,0.14894 3.375,0.40625 0.93168,0.26181 1.6101,0.63424 2.125,1.03125 0.5371,0.41417 0.87865,0.83963 1.125,1.34375 0.23954,0.49025 0.37499,1.03277 0.375,1.78125 -2e-5,0.69327 -0.10603,1.26505 -0.3125,1.78125 -0.19646,0.49112 -0.47798,0.888 -0.875,1.25 -0.38136,0.3477 -0.86093,0.63646 -1.5625,0.875 -0.65918,0.22412 -1.51935,0.375 -2.59375,0.375 -1.13206,0 -2.11467,-0.13778 -2.9375,-0.375 -0.99692,-0.28739 -1.82321,-0.60454 -2.5,-0.90625 -0.74648,-0.33276 -1.33055,-0.60936 -1.71875,-0.84375 -0.31239,-0.18861 -0.58862,-0.35684 -0.90625,-0.5 -0.31763,-0.14316 -0.60892,-0.34372 -1.4375,-0.34375 -1.1513,3e-5 -2.39893,0.98536 -2.8125,1.8125 -0.52004,1.04008 -0.46875,1.69734 -0.46875,2.5625 0,0.46969 0.0205,0.9064 0.0625,1.3125 0.0408,0.39439 0.0975,0.7522 0.21875,1.15625 0.10034,0.33448 0.23849,0.683 0.4375,1.03125 0.23398,0.40948 0.49293,0.73091 0.78125,1 0.64865,0.60544 0.96837,0.697 1.59375,1.03125 0.74416,0.39774 1.57543,0.74752 2.53125,1.0625 0.99111,0.32662 2.0891,0.59095 3.28125,0.8125 1.27283,0.23654 2.62709,0.34375 4.03125,0.34375 2.304,0 4.42252,-0.30582 6.375,-0.9375 1.93233,-0.62517 3.64222,-1.5324 5.0625,-2.78125 1.40199,-1.2328 2.50445,-2.74925 3.25,-4.46875 0.75602,-1.74379 1.12497,-3.69022 1.125,-5.71875 -3e-5,-1.49874 -0.27272,-2.95461 -0.84375,-4.3125 -0.55839,-1.32764 -1.36547,-2.52167 -2.375,-3.53125 -0.65508,-0.65505 -1.51163,-1.09708 -2.3125,-1.59375 0.47126,-0.43053 1.01894,-0.77526 1.40625,-1.28125 0.79617,-1.04017 1.38973,-2.24666 1.78125,-3.53125 0.39118,-1.28363 0.59372,-2.65252 0.59375,-4.0625 -3e-5,-1.65075 -0.2827,-3.22865 -0.84375,-4.6875 -0.5702,-1.4824 -1.46223,-2.8016 -2.625,-3.875 -1.17764,-1.08698 -2.61349,-1.89449 -4.21875,-2.4375 -1.6452,-0.55641 -3.43552,-0.81246 -5.40625,-0.8125 z"
       id="text8154"
       style="font-size:60px;font-style:normal;font-variant:normal;font-weight:normal;font-stretch:normal;text-indent:0;text-align:start;text-decoration:none;line-height:125%;letter-spacing:normal;word-spacing:normal;text-transform:none;direction:ltr;block-progression:tb;writing-mode:lr-tb;text-anchor:start;color:#000000;fill:#ffffff;fill-opacity:1;fill-rule:nonzero;stroke:none;stroke-width:5;marker:none;visibility:visible;display:inline;overflow:visible;enable-background:accumulate;font-family:Calibri;-inkscape-font-specification:Calibri" />
    <g
       transform="translate(-2.9850746,0.49751244)"
       id="text8150"
       style="font-size:60px;font-style:normal;font-variant:normal;font-weight:normal;font-stretch:normal;text-align:start;line-height:125%;writing-mode:lr-tb;text-anchor:start;fill:#000000;stroke:none;font-family:Calibri;-inkscape-font-specification:Calibri">
      <path
         d="m 439.62924,351.50998 c -2e-5,1.73829 -0.30276,3.30567 -0.9082,4.70215 -0.6055,1.39649 -1.47463,2.59277 -2.60742,3.58886 -1.13284,0.9961 -2.52932,1.7627 -4.18946,2.29981 -1.66017,0.53711 -3.53517,0.80566 -5.625,0.80566 -1.26954,0 -2.45606,-0.10254 -3.55957,-0.30761 -1.10352,-0.20508 -2.08497,-0.44922 -2.94433,-0.73243 -0.85938,-0.2832 -1.57227,-0.57617 -2.13867,-0.8789 -0.56641,-0.30273 -0.92286,-0.52246 -1.06934,-0.65918 -0.14649,-0.13672 -0.25879,-0.27344 -0.33691,-0.41016 -0.0781,-0.13671 -0.14649,-0.30273 -0.20508,-0.49804 -0.0586,-0.19531 -0.10254,-0.43457 -0.13184,-0.71778 -0.0293,-0.2832 -0.0439,-0.62988 -0.0439,-1.04004 -1e-5,-0.70312 0.0684,-1.1914 0.20507,-1.46484 0.13672,-0.27343 0.33203,-0.41015 0.58594,-0.41016 0.17578,10e-6 0.52246,0.15626 1.04004,0.46875 0.51757,0.31251 1.18164,0.64942 1.99219,1.01075 0.81054,0.36133 1.7578,0.69824 2.8418,1.01074 1.08397,0.3125 2.29002,0.46875 3.61816,0.46875 1.28905,0 2.42186,-0.16601 3.39844,-0.49805 0.97654,-0.33203 1.79685,-0.80078 2.46093,-1.40625 0.66405,-0.60546 1.16209,-1.32323 1.49415,-2.15332 0.33201,-0.83007 0.49802,-1.73339 0.49804,-2.70996 -2e-5,-1.07421 -0.20998,-2.041 -0.62988,-2.90039 -0.41994,-0.85936 -1.03518,-1.60155 -1.8457,-2.22656 -0.81057,-0.62499 -1.80666,-1.1035 -2.98829,-1.43555 -1.18165,-0.33201 -2.52442,-0.49803 -4.02832,-0.49805 l -3.60351,0 c -0.15626,2e-5 -0.30763,-0.0342 -0.4541,-0.10254 -0.14649,-0.0683 -0.27345,-0.18064 -0.38086,-0.33691 -0.10743,-0.15623 -0.19532,-0.36131 -0.26367,-0.61524 -0.0684,-0.25388 -0.10255,-0.58591 -0.10254,-0.99609 -10e-6,-0.37107 0.0293,-0.67869 0.0879,-0.92285 0.0586,-0.24412 0.14159,-0.43943 0.24902,-0.58594 0.10742,-0.14646 0.22949,-0.25388 0.36621,-0.32226 0.13671,-0.0683 0.29296,-0.10252 0.46875,-0.10254 l 3.31055,0 c 1.28905,2e-5 2.44627,-0.166 3.47168,-0.49805 1.02537,-0.33201 1.89451,-0.81052 2.60742,-1.43555 0.71287,-0.62497 1.25975,-1.37204 1.64063,-2.24121 0.38084,-0.86911 0.57126,-1.84079 0.57128,-2.91504 -2e-5,-0.78122 -0.12697,-1.52829 -0.38085,-2.24121 -0.25393,-0.71286 -0.63479,-1.33297 -1.14258,-1.86035 -0.50783,-0.52731 -1.15725,-0.94235 -1.94825,-1.24512 -0.79103,-0.3027 -1.70411,-0.45406 -2.73925,-0.4541 -1.13283,4e-5 -2.17287,0.17093 -3.12012,0.5127 -0.94728,0.34183 -1.792,0.70804 -2.53418,1.09863 -0.74219,0.39066 -1.35743,0.75687 -1.8457,1.09863 -0.48829,0.34183 -0.83009,0.51273 -1.02539,0.5127 -0.13673,3e-5 -0.2588,-0.0244 -0.36621,-0.0732 -0.10743,-0.0488 -0.19532,-0.14646 -0.26368,-0.29297 -0.0684,-0.14646 -0.11719,-0.35153 -0.14648,-0.61524 -0.0293,-0.26364 -0.044,-0.61032 -0.044,-1.04004 0,-0.29293 0.01,-0.55172 0.0293,-0.77636 0.0195,-0.22458 0.0586,-0.41989 0.11719,-0.58594 0.0586,-0.16598 0.12695,-0.31735 0.20508,-0.4541 0.0781,-0.13669 0.20995,-0.29782 0.3955,-0.4834 0.18555,-0.18551 0.56152,-0.45407 1.12793,-0.80566 0.5664,-0.35153 1.26465,-0.69821 2.09473,-1.04004 0.83007,-0.34176 1.7871,-0.62985 2.87109,-0.86426 1.08398,-0.23434 2.25097,-0.35153 3.50098,-0.35156 1.7578,3e-5 3.30076,0.22464 4.62891,0.67382 1.3281,0.44926 2.4365,1.08403 3.32519,1.9043 0.88865,0.82035 1.55271,1.80179 1.99219,2.94434 0.43943,1.14261 0.65915,2.40725 0.65918,3.79394 -3e-5,1.19144 -0.15628,2.29983 -0.46875,3.3252 -0.31252,1.02541 -0.77151,1.93362 -1.37695,2.72461 -0.6055,0.79103 -1.34768,1.46486 -2.22657,2.02148 -0.87892,0.55666 -1.89455,0.9424 -3.04687,1.15723 l 0,0.0586 c 1.30857,0.13674 2.50486,0.46389 3.58887,0.98145 1.08396,0.51759 2.01657,1.16701 2.79785,1.94824 0.78122,0.78127 1.39157,1.69435 1.83105,2.73926 0.43943,1.04493 0.65916,2.1631 0.65918,3.35449 z"
         id="path5941"
         style="fill:#000000;font-family:Calibri;-inkscape-font-specification:Calibri" />
    </g>
  </g>
  <g
     transform="translate(-40,-40)"
     id="g5995">
    <path
       d="m 339.35121,391.03623 c -0.6691,4e-5 -1.26052,-0.008 -1.84375,0.0312 -0.65344,0.0446 -1.30098,0.14909 -2.03125,0.34375 -0.64013,0.17077 -1.35928,0.3915 -2.125,0.875 -0.69862,0.44134 -1.4145,1.11326 -1.96875,2 a 5.0005,5.0005 0 0 0 -0.0625,0.0937 l -13.65625,23.03125 a 5.0005,5.0005 0 0 0 -0.125,0.1875 c -0.19287,0.35821 -0.36811,0.71854 -0.53125,1.09375 -0.21596,0.49672 -0.3755,1.01252 -0.5,1.53125 -0.13508,0.56285 -0.21453,1.09288 -0.25,1.625 -0.0288,0.43279 -0.0312,0.88493 -0.0312,1.34375 0,0.64238 0.005,1.24919 0.125,1.96875 0.14065,0.84395 0.45005,1.90014 1.34375,3 0.56716,0.69809 1.42351,1.42841 2.53125,1.84375 0.92601,0.34731 1.69261,0.40627 2.34375,0.40625 l 10.65625,0 0,2.96875 c -1e-4,0.88574 0.21682,2.05974 0.875,3.09375 0.87381,1.37351 1.91766,1.87655 2.65625,2.1875 0.83628,0.35215 1.46374,0.45641 2.0625,0.53125 0.61785,0.0772 1.20485,0.0937 1.8125,0.0937 0.6216,0 1.182,-0.0149 1.8125,-0.0937 0.59235,-0.074 1.2179,-0.1872 2,-0.5 0.71551,-0.28624 1.68923,-0.7254 2.59375,-1.96875 0.75603,-1.03984 1.06235,-2.35459 1.0625,-3.34375 l 0,-3.125 c 1.90163,-0.33044 3.84737,-1.76328 4.53125,-3.0625 0.75083,-1.42675 0.87495,-2.72553 0.875,-3.875 -5e-5,-1.18913 -0.0482,-2.48635 -1.03125,-4.125 -0.72017,-1.20008 -2.5534,-2.41002 -4.375,-2.71875 l 0,-19.4375 c -2.2e-4,-1.65716 -1.03034,-3.47349 -2.0625,-4.3125 -0.95319,-0.77412 -1.83223,-1.05515 -2.5625,-1.25 -0.69668,-0.18568 -1.29383,-0.27802 -1.9375,-0.34375 -0.70375,-0.0718 -1.41689,-0.0937 -2.1875,-0.0937 z"
       id="text5635"
       style="font-size:60px;font-style:normal;font-variant:normal;font-weight:normal;font-stretch:normal;text-indent:0;text-align:start;text-decoration:none;line-height:125%;letter-spacing:normal;word-spacing:normal;text-transform:none;direction:ltr;block-progression:tb;writing-mode:lr-tb;text-anchor:start;opacity:0.5;color:#000000;fill:#ffffff;fill-opacity:1;fill-rule:nonzero;stroke:none;stroke-width:10;marker:none;visibility:visible;display:inline;overflow:visible;enable-background:accumulate;font-family:Calibri;-inkscape-font-specification:Calibri" />
    <path
       d="m 339.35121,393.53623 c -0.62753,4e-5 -1.18105,-0.003 -1.6875,0.0312 -0.54157,0.037 -1.05089,0.11363 -1.5625,0.25 -0.46656,0.12447 -0.93063,0.29343 -1.40625,0.59375 -0.44209,0.27928 -0.8928,0.66602 -1.21875,1.1875 -0.0107,0.0207 -0.0211,0.0415 -0.0312,0.0625 l -13.625,23.03125 c -0.0215,0.0308 -0.0424,0.062 -0.0625,0.0937 -0.1648,0.30606 -0.3071,0.60635 -0.4375,0.90625 -0.15681,0.36067 -0.28346,0.71232 -0.375,1.09375 -0.0968,0.4035 -0.16,0.83746 -0.1875,1.25 -0.0242,0.36289 -0.0312,0.7413 -0.0312,1.15625 0,0.55557 0.009,1.02499 0.0937,1.53125 0.0947,0.56846 0.30217,1.2157 0.8125,1.84375 0.34706,0.42718 0.83675,0.85679 1.46875,1.09375 0.54113,0.20296 1.02599,0.25002 1.46875,0.25 l 13.15625,0 0,5.46875 c -6e-5,0.521 0.10547,1.17929 0.46875,1.75 0.47108,0.74047 1.06917,1.02421 1.53125,1.21875 0.5109,0.21514 0.95061,0.31805 1.40625,0.375 0.46516,0.0582 0.96179,0.0625 1.5,0.0625 0.55493,0 1.02849,-0.004 1.5,-0.0625 0.45241,-0.0566 0.88628,-0.14829 1.375,-0.34375 0.4554,-0.18218 1.00867,-0.44961 1.5,-1.125 0.41706,-0.57363 0.59366,-1.30229 0.59375,-1.875 l 0,-5.46875 1.78125,0 c 1.23127,3e-5 2.54799,-0.98817 3.03125,-1.90625 0.47306,-0.89892 0.59371,-1.7905 0.59375,-2.6875 -4e-5,-0.94612 -0.0935,-1.85352 -0.6875,-2.84375 -0.51134,-0.85209 -1.74763,-1.7187 -2.9375,-1.71875 l -1.78125,0 0,-21.71875 c -1.2e-4,-0.91645 -0.56205,-1.892 -1.15625,-2.375 -0.55473,-0.45052 -1.08214,-0.64475 -1.59375,-0.78125 -0.49484,-0.13188 -1.00142,-0.22395 -1.5625,-0.28125 -0.59114,-0.0603 -1.22994,-0.0625 -1.9375,-0.0625 l -5e-5,10e-5 z m -3.625,15.9375 0,9.28125 -5.5,0 5.5,-9.28125 z"
       id="text5453"
       style="font-size:60px;font-style:normal;font-variant:normal;font-weight:normal;font-stretch:normal;text-indent:0;text-align:start;text-decoration:none;line-height:125%;letter-spacing:normal;word-spacing:normal;text-transform:none;direction:ltr;block-progression:tb;writing-mode:lr-tb;text-anchor:start;color:#000000;fill:#ffffff;fill-opacity:1;fill-rule:nonzero;stroke:none;stroke-width:5;marker:none;visibility:visible;display:inline;overflow:visible;enable-background:accumulate;font-family:Calibri;-inkscape-font-specification:Calibri" />
    <g
       transform="translate(-1.4925373,-0.99502488)"
       id="text5457"
       style="font-size:60px;font-style:normal;font-variant:normal;font-weight:normal;font-stretch:normal;text-align:start;line-height:125%;writing-mode:lr-tb;text-anchor:start;fill:#000000;stroke:none;font-family:Calibri;-inkscape-font-specification:Calibri">
      <path
         d="m 349.99124,424.32608 c -3e-5,0.64454 -0.0977,1.15235 -0.29297,1.52344 -0.19534,0.3711 -0.46878,0.55665 -0.82031,0.55664 l -4.27734,0 0,7.96875 c -3e-5,0.15625 -0.0391,0.28808 -0.11719,0.39551 -0.0781,0.10742 -0.21487,0.20019 -0.41016,0.27832 -0.19533,0.0781 -0.44924,0.13672 -0.76172,0.17578 -0.31252,0.0391 -0.71291,0.0586 -1.20117,0.0586 -0.46877,0 -0.85939,-0.0195 -1.17187,-0.0586 -0.31252,-0.0391 -0.56155,-0.0977 -0.74707,-0.17578 -0.18557,-0.0781 -0.31252,-0.1709 -0.38086,-0.27832 -0.0684,-0.10743 -0.10256,-0.23926 -0.10254,-0.39551 l 0,-7.96875 -15.64453,0 c -0.23438,10e-6 -0.42969,-0.0293 -0.58594,-0.0879 -0.15625,-0.0586 -0.29785,-0.16601 -0.42481,-0.32227 -0.12695,-0.15624 -0.21484,-0.38085 -0.26367,-0.67383 -0.0488,-0.29295 -0.0732,-0.67381 -0.0732,-1.14257 0,-0.37109 0.01,-0.70312 0.0293,-0.9961 0.0195,-0.29295 0.0586,-0.56151 0.11719,-0.80566 0.0586,-0.24413 0.13671,-0.4785 0.23437,-0.70313 0.0977,-0.22459 0.21484,-0.46385 0.35156,-0.71777 l 13.65235,-23.02734 c 0.0976,-0.15622 0.23924,-0.29294 0.4248,-0.41016 0.18553,-0.11715 0.42479,-0.21481 0.71777,-0.29297 0.29296,-0.0781 0.65428,-0.1318 1.08399,-0.16113 0.42967,-0.0293 0.93748,-0.0439 1.52344,-0.0439 0.64451,4e-5 1.20603,0.0245 1.68457,0.0733 0.47849,0.0489 0.86423,0.11234 1.15722,0.19042 0.29295,0.0782 0.51756,0.18071 0.67383,0.30762 0.15623,0.12699 0.23435,0.27836 0.23438,0.4541 l 0,24.19922 4.27734,0 c 0.332,2e-5 0.60056,0.17091 0.80566,0.5127 0.20505,0.34181 0.30759,0.86427 0.30762,1.56738 z m -10.2832,-22.88086 -0.0586,0 -12.33398,20.80078 12.39258,0 z"
         id="path5944"
         style="fill:#000000;font-family:Calibri;-inkscape-font-specification:Calibri" />
    </g>
  </g>
  <g
     transform="translate(-40,-40)"
     id="g5989">
    <path
       d="m 239.39132,367.78374 c -1.48577,10e-5 -3.48796,0.53711 -4.875,1.96875 -1.49777,1.54624 -1.87501,3.51011 -1.875,4.9375 l 0,15.4375 c -1e-5,1.26322 -0.15075,2.8525 1.6875,4.84375 1.54904,1.67829 3.52299,2.00005 4.84375,2 1.00543,3e-5 2.01213,-0.0755 3.0625,-0.21875 0.55295,-0.0754 1.37872,-0.12498 2.40625,-0.125 1.37932,2e-5 2.4417,0.11044 3.125,0.28125 0.68632,0.17159 1.02745,0.36857 1.15625,0.46875 0.13665,0.10629 0.12099,0.11924 0.1875,0.28125 0.0906,0.22081 0.21874,0.62572 0.21875,1.3125 -1e-5,0.92735 -0.16439,1.4333 -0.25,1.625 -0.17072,0.38225 -0.30415,0.55433 -0.5,0.71875 -0.2177,0.18276 -0.49967,0.35705 -1,0.5 -0.58731,0.1678 -1.30819,0.28125 -2.21875,0.28125 -1.10533,0 -1.96105,-0.12428 -2.46875,-0.25 -0.85961,-0.21285 -1.4962,-0.43902 -1.875,-0.59375 -0.54723,-0.22351 -0.92381,-0.39215 -1,-0.4375 -0.70987,-0.42253 -1.19022,-1.06243 -3.46875,-1.0625 -1.08895,5e-5 -2.35781,0.39094 -3.28125,1.0625 -1.00348,0.72983 -1.54959,1.58975 -1.875,2.28125 -0.40984,0.87089 -0.52331,1.5847 -0.59375,2.21875 -0.0547,0.49265 -0.0937,0.95839 -0.0937,1.4375 0,0.44418 0.0294,0.88259 0.0625,1.3125 0.0376,0.48854 0.0886,1.00131 0.28125,1.65625 0.11174,0.37995 0.26743,0.78489 0.5,1.25 0.45614,0.91235 0.91939,1.38519 1.34375,1.78125 1.29262,1.20649 1.70618,1.15761 2.40625,1.46875 0.81783,0.36349 1.66617,0.65214 2.625,0.9375 1.08485,0.32288 2.23885,0.58766 3.46875,0.78125 1.33567,0.21025 2.68576,0.3125 4.09375,0.3125 2.55689,0 5.01206,-0.33994 7.3125,-1.09375 2.2865,-0.74925 4.40133,-1.91983 6.1875,-3.46875 1.81872,-1.57719 3.25991,-3.5623 4.21875,-5.78125 0.99261,-2.29725 1.43747,-4.81414 1.4375,-7.40625 -4e-5,-2.20604 -0.38887,-4.39694 -1.21875,-6.40625 -0.83605,-2.02399 -2.132,-3.83995 -3.78125,-5.28125 -1.67415,-1.46293 -3.65715,-2.49931 -5.8125,-3.1875 -2.10469,-0.67194 -4.38454,-0.96646 -6.78125,-1 l 0,-0.46875 9.15625,0 c 2.20376,2.1e-4 4.54931,-1.87992 5.28125,-3.34375 0.73195,-1.46396 0.81246,-2.70899 0.8125,-3.875 -4e-5,-0.59019 -0.0388,-1.1854 -0.15625,-1.84375 -0.11766,-0.65847 -0.29019,-1.39072 -0.75,-2.21875 -0.44118,-0.79375 -1.20124,-1.65789 -2.1875,-2.25 -0.81849,-0.4908 -1.90692,-0.84348 -3,-0.84375 l -16.8125,0 -5e-5,0 z"
       id="text5461"
       style="font-size:60px;font-style:normal;font-variant:normal;font-weight:normal;font-stretch:normal;text-indent:0;text-align:start;text-decoration:none;line-height:125%;letter-spacing:normal;word-spacing:normal;text-transform:none;direction:ltr;block-progression:tb;writing-mode:lr-tb;text-anchor:start;opacity:0.5;color:#000000;fill:#ffffff;fill-opacity:1;fill-rule:nonzero;stroke:none;stroke-width:10;marker:none;visibility:visible;display:inline;overflow:visible;enable-background:accumulate;font-family:Calibri;-inkscape-font-specification:Calibri" />
    <path
       d="m 239.39132,370.28374 c -1.02609,7e-5 -2.24886,0.3467 -3.09375,1.21875 -0.90025,0.92939 -1.15626,2.15156 -1.15625,3.1875 l 0,15.4375 c -1e-5,0.99295 -0.005,2.03368 1.03125,3.15625 0.8917,0.96611 2.06618,1.18753 3,1.1875 0.87381,2e-5 1.79512,-0.0885 2.75,-0.21875 0.70616,-0.0963 1.60928,-0.12498 2.71875,-0.125 1.5295,2e-5 2.80287,0.13824 3.75,0.375 0.94862,0.23717 1.60258,0.54855 2.0625,0.90625 0.46382,0.36077 0.74505,0.76764 0.96875,1.3125 0.23574,0.57428 0.40623,1.30115 0.40625,2.25 -2e-5,1.18634 -0.20135,2.05747 -0.46875,2.65625 -0.30998,0.69406 -0.69408,1.17951 -1.1875,1.59375 -0.50437,0.42341 -1.10922,0.77228 -1.90625,1 -0.84054,0.24015 -1.79668,0.375 -2.90625,0.375 -1.2558,0 -2.29596,-0.12269 -3.0625,-0.3125 -0.9425,-0.23338 -1.68267,-0.46853 -2.21875,-0.6875 -0.6203,-0.25336 -1.10058,-0.48025 -1.34375,-0.625 -0.56002,-0.33333 -0.95058,-0.71871 -2.1875,-0.71875 -0.61283,3e-5 -1.29707,0.21891 -1.8125,0.59375 -0.55545,0.40398 -0.89199,0.88375 -1.09375,1.3125 -0.24398,0.51846 -0.32513,0.98864 -0.375,1.4375 -0.042,0.37816 -0.0625,0.75068 -0.0625,1.15625 0,0.39787 0.005,0.75185 0.0312,1.09375 0.0285,0.37123 0.098,0.74577 0.21875,1.15625 0.0803,0.27298 0.16691,0.5526 0.3125,0.84375 0.25737,0.51477 0.55833,0.82736 0.84375,1.09375 0.71955,0.67161 1.07379,0.72724 1.6875,1 0.67258,0.29893 1.45417,0.579 2.34375,0.84375 0.95258,0.28351 1.9827,0.50769 3.125,0.6875 1.19517,0.18813 2.42881,0.28125 3.71875,0.28125 2.33313,0 4.51676,-0.30864 6.53125,-0.96875 2.0075,-0.65783 3.82566,-1.6523 5.34375,-2.96875 1.53435,-1.33059 2.74127,-3.00576 3.5625,-4.90625 0.83809,-1.93964 1.21872,-4.09456 1.21875,-6.40625 -3e-5,-1.92333 -0.338,-3.75901 -1.03125,-5.4375 -0.69636,-1.68581 -1.75839,-3.18071 -3.125,-4.375 -1.37908,-1.20509 -3.04929,-2.0846 -4.9375,-2.6875 -1.92869,-0.61575 -4.07061,-0.90622 -6.4375,-0.90625 -0.77804,2e-5 -1.42587,0.0178 -2.0625,0.0312 l 0,-5.46875 11.65625,0 c 1.27765,1.2e-4 2.56761,-1.0415 3.03125,-1.96875 0.46362,-0.92727 0.56247,-1.81542 0.5625,-2.75 -3e-5,-0.48062 -0.0106,-0.94034 -0.0937,-1.40625 -0.0833,-0.46593 -0.22128,-0.93557 -0.5,-1.4375 -0.26943,-0.48475 -0.71489,-1.00373 -1.28125,-1.34375 -0.4825,-0.28933 -1.0941,-0.4686 -1.71875,-0.46875 l -16.8125,0 0,5e-5 z"
       id="text5465"
       style="font-size:60px;font-style:normal;font-variant:normal;font-weight:normal;font-stretch:normal;text-indent:0;text-align:start;text-decoration:none;line-height:125%;letter-spacing:normal;word-spacing:normal;text-transform:none;direction:ltr;block-progression:tb;writing-mode:lr-tb;text-anchor:start;color:#000000;fill:#ffffff;fill-opacity:1;fill-rule:nonzero;stroke:none;stroke-width:5;marker:none;visibility:visible;display:inline;overflow:visible;enable-background:accumulate;font-family:Calibri;-inkscape-font-specification:Calibri" />
    <g
       transform="translate(2.9850746,-0.49751244)"
       id="text5469"
       style="font-size:60px;font-style:normal;font-variant:normal;font-weight:normal;font-stretch:normal;text-align:start;line-height:125%;writing-mode:lr-tb;text-anchor:start;fill:#000000;stroke:none;font-family:Calibri;-inkscape-font-specification:Calibri">
      <path
         d="m 256.66185,398.99658 c -3e-5,2.03126 -0.34182,3.8379 -1.02539,5.41992 -0.68362,1.58204 -1.65042,2.91505 -2.90039,3.99903 -1.25002,1.08398 -2.73928,1.90918 -4.46777,2.47558 -1.72854,0.56641 -3.64748,0.84961 -5.75684,0.84961 -1.17189,0 -2.28517,-0.083 -3.33984,-0.24902 -1.0547,-0.16602 -1.9922,-0.37109 -2.8125,-0.61524 -0.82032,-0.24414 -1.49415,-0.48339 -2.02149,-0.71777 -0.52735,-0.23437 -0.86426,-0.41992 -1.01074,-0.55664 -0.14649,-0.13672 -0.24903,-0.26367 -0.30762,-0.38086 -0.0586,-0.11718 -0.11231,-0.25879 -0.16113,-0.4248 -0.0488,-0.16602 -0.083,-0.37598 -0.10254,-0.62989 -0.0195,-0.2539 -0.0293,-0.55663 -0.0293,-0.9082 0,-0.33203 0.0146,-0.62988 0.0439,-0.89355 0.0293,-0.26367 0.083,-0.47851 0.16113,-0.64454 0.0781,-0.16601 0.1709,-0.28808 0.27832,-0.36621 0.10742,-0.0781 0.22949,-0.11718 0.36621,-0.11718 0.19531,0 0.49805,0.12207 0.90821,0.36621 0.41015,0.24414 0.9619,0.50781 1.65527,0.79101 0.69335,0.28321 1.55273,0.55177 2.57812,0.80567 1.02538,0.25391 2.2412,0.38086 3.64746,0.38086 1.30858,0 2.50976,-0.15625 3.60352,-0.46875 1.09373,-0.3125 2.03612,-0.80078 2.82715,-1.46485 0.79099,-0.66405 1.41111,-1.49901 1.86035,-2.50488 0.4492,-1.00585 0.67381,-2.23144 0.67383,-3.67676 -2e-5,-1.21092 -0.19045,-2.28026 -0.57129,-3.20801 -0.38088,-0.92771 -0.96682,-1.6992 -1.75781,-2.31445 -0.79104,-0.61522 -1.79201,-1.0742 -3.00293,-1.37695 -1.21096,-0.30272 -2.65627,-0.45408 -4.33594,-0.4541 -1.19142,2e-5 -2.21681,0.0586 -3.07617,0.17578 -0.85938,0.1172 -1.66017,0.1758 -2.40235,0.17578 -0.54688,2e-5 -0.9375,-0.12694 -1.17187,-0.38086 -0.23438,-0.25389 -0.35157,-0.74217 -0.35156,-1.46484 l 0,-15.43946 c -1e-5,-0.64449 0.15136,-1.12301 0.4541,-1.43554 0.30273,-0.31247 0.7373,-0.46872 1.30371,-0.46875 l 16.78711,0 c 0.15623,3e-5 0.30759,0.044 0.4541,0.13183 0.14646,0.0879 0.26853,0.21977 0.36621,0.39551 0.0976,0.17582 0.17088,0.40043 0.21973,0.67383 0.0488,0.27347 0.0732,0.59574 0.0732,0.96679 -2e-5,0.70316 -0.0977,1.25004 -0.29297,1.64063 -0.19534,0.39066 -0.46877,0.58597 -0.82031,0.58594 l -14.15039,0 0,10.63476 c 0.68358,-0.0976 1.38182,-0.15622 2.09472,-0.17578 0.71288,-0.0195 1.53808,-0.0293 2.47559,-0.0293 2.16795,3e-5 4.06248,0.25882 5.68359,0.77637 1.62108,0.5176 2.97361,1.25002 4.05762,2.19727 1.08396,0.94728 1.90427,2.09474 2.46094,3.44238 0.55661,1.34767 0.83493,2.84181 0.83496,4.48242 z"
         id="path5947"
         style="fill:#000000;font-family:Calibri;-inkscape-font-specification:Calibri" />
    </g>
  </g>
  <g
     transform="translate(-40,-40)"
     id="g5983">
    <path
       d="m 208.78125,268.625 c -2.60294,5e-5 -5.05864,0.3616 -7.34375,1.1875 -2.12202,0.76704 -4.0813,1.83696 -5.75,3.28125 -1.58963,1.37593 -2.92652,3.04124 -3.96875,4.875 -0.96761,1.70253 -1.7273,3.50356 -2.28125,5.40625 -0.53483,1.83703 -0.91934,3.74515 -1.125,5.6875 -0.19373,1.82964 -0.28125,3.63569 -0.28125,5.4375 0,1.9778 0.0758,3.87092 0.25,5.65625 0.17925,1.8374 0.49455,3.56668 0.9375,5.21875 0.45482,1.6964 1.07494,3.30945 1.90625,4.78125 0.88457,1.56614 2.03391,2.96479 3.4375,4.09375 1.41047,1.13452 3.05677,1.97497 4.78125,2.53125 1.81641,0.58594 3.72519,0.84375 5.71875,0.84375 2.74536,0 5.3635,-0.45053 7.75,-1.5 2.18716,-0.96184 4.1805,-2.33537 5.75,-4.09375 1.51367,-1.69591 2.6345,-3.70644 3.34375,-5.875 0.67141,-2.05308 1.03121,-4.20509 1.03125,-6.375 -4e-5,-1.95827 -0.24497,-3.86658 -0.75,-5.6875 -0.55525,-2.00166 -1.56044,-3.90594 -2.9375,-5.46875 -1.445,-1.63975 -3.2944,-2.85737 -5.3125,-3.65625 -2.17959,-0.86271 -4.52813,-1.18747 -7.03125,-1.1875 -0.53125,10e-6 -1.04163,0.0881 -1.5625,0.125 0.27418,-0.27915 0.52251,-0.59485 0.90625,-0.8125 0.44507,-0.25242 1.08327,-0.46873 2.21875,-0.46875 0.76741,3e-5 1.34889,0.0578 1.71875,0.125 0.60402,0.10985 1.05917,0.23277 1.3125,0.3125 0.47295,0.14893 0.8584,0.27681 1.125,0.375 0.66501,0.24508 1.3177,0.5002 2.59375,0.5 0.91711,1.7e-4 2.21852,-0.22127 3.375,-1.0625 0.98228,-0.71425 1.57513,-1.61827 1.90625,-2.375 0.43186,-0.98727 0.50572,-1.77552 0.53125,-2.4375 0.0131,-0.34206 0.0312,-0.69607 0.0312,-1.09375 -4e-5,-0.3922 -0.0163,-0.77955 -0.0625,-1.21875 -0.0415,-0.39396 -0.1293,-0.79695 -0.25,-1.25 -0.13344,-0.49994 -0.30263,-1.01707 -0.5625,-1.5 -0.44876,-0.83285 -1.05491,-1.45808 -1.625,-1.90625 -1.09487,-0.8598 -1.47469,-0.88447 -2.0625,-1.125 -0.76519,-0.31295 -1.50294,-0.52895 -2.3125,-0.71875 -0.83659,-0.19602 -1.72362,-0.36196 -2.625,-0.46875 -0.93023,-0.11011 -1.85609,-0.1562 -2.78125,-0.15625 z M 206,297.78125 c 0.83454,10e-6 1.30986,0.1177 1.40625,0.15625 0.22084,0.0883 0.14628,0.0955 0.0937,0.0312 0.003,0.004 0.0486,0.0596 0.125,0.375 0.1151,0.47549 0.18748,1.10385 0.1875,1.90625 -1e-5,0.57927 -0.0636,1.11585 -0.21875,1.65625 -0.12023,0.41872 -0.27549,0.70669 -0.5,1 -0.15396,0.20114 -0.29379,0.31557 -0.59375,0.46875 -0.0994,0.0507 -0.34378,0.15625 -0.96875,0.15625 -0.63524,0 -0.92937,-0.0925 -1.0625,-0.15625 0.0558,0.0267 0.0566,0.10483 -0.15625,-0.25 -0.18647,-0.31078 -0.53322,-1.16093 -0.78125,-2.46875 -0.10655,-0.56179 -0.12005,-1.62147 -0.1875,-2.40625 0.42499,-0.14013 0.86554,-0.25973 1.34375,-0.34375 0.44296,-0.0778 0.88253,-0.12499 1.3125,-0.125 z"
       id="text5473"
       style="font-size:60px;font-style:normal;font-variant:normal;font-weight:normal;font-stretch:normal;text-indent:0;text-align:start;text-decoration:none;line-height:125%;letter-spacing:normal;word-spacing:normal;text-transform:none;direction:ltr;block-progression:tb;writing-mode:lr-tb;text-anchor:start;opacity:0.5;color:#000000;fill:#ffffff;fill-opacity:1;fill-rule:nonzero;stroke:none;stroke-width:10;marker:none;visibility:visible;display:inline;overflow:visible;enable-background:accumulate;font-family:Calibri;-inkscape-font-specification:Calibri" />
    <path
       d="m 208.78125,271.125 c -2.3757,4e-5 -4.54691,0.32535 -6.5,1.03125 -1.87156,0.67651 -3.55335,1.61869 -4.96875,2.84375 -1.37587,1.19091 -2.53065,2.59192 -3.4375,4.1875 -0.86955,1.52999 -1.56092,3.18343 -2.0625,4.90625 -0.49202,1.69001 -0.80928,3.41751 -1,5.21875 -0.18476,1.74491 -0.28125,3.47606 -0.28125,5.1875 0,1.90688 0.0848,3.71281 0.25,5.40625 0.16775,1.71949 0.44161,3.34389 0.84375,4.84375 0.40807,1.52203 0.94274,2.92426 1.65625,4.1875 0.74013,1.31041 1.72398,2.44919 2.875,3.375 1.15445,0.92859 2.46979,1.6203 3.9375,2.09375 1.51367,0.48828 3.18095,0.71875 4.96875,0.71875 2.47619,0 4.7462,-0.40007 6.75,-1.28125 1.90412,-0.83736 3.5629,-1.99874 4.875,-3.46875 1.28417,-1.43877 2.23521,-3.13935 2.84375,-5 0.5896,-1.8029 0.90622,-3.67871 0.90625,-5.59375 -3e-5,-1.76038 -0.2182,-3.45184 -0.65625,-5.03125 -0.46319,-1.66976 -1.28316,-3.19417 -2.40625,-4.46875 -1.15708,-1.31303 -2.66284,-2.29098 -4.375,-2.96875 -1.79293,-0.70966 -3.81681,-1.03122 -6.09375,-1.03125 -1.08456,3e-5 -2.12686,0.10718 -3.125,0.28125 -0.93774,0.16358 -1.82442,0.35601 -2.6875,0.625 0.0349,-0.16 0.0241,-0.34174 0.0625,-0.5 0.34115,-1.40622 0.84792,-2.58054 1.5,-3.5625 0.62129,-0.93558 1.36169,-1.63049 2.34375,-2.1875 0.87682,-0.49729 1.9928,-0.81247 3.46875,-0.8125 0.88174,3e-5 1.59533,0.0855 2.15625,0.1875 0.67797,0.1233 1.23465,0.25214 1.625,0.375 0.50014,0.15749 0.93114,0.28881 1.25,0.40625 0.51804,0.19092 0.97329,0.34386 1.71875,0.34375 0.54643,10e-5 1.27429,-0.13406 1.90625,-0.59375 0.54484,-0.39617 0.894,-0.88725 1.09375,-1.34375 0.2501,-0.57174 0.29484,-1.07329 0.3125,-1.53125 0.0114,-0.29796 0.0312,-0.62536 0.0312,-1 -3e-5,-0.3328 -0.0297,-0.65636 -0.0625,-0.96875 -0.0306,-0.28974 -0.0764,-0.57522 -0.15625,-0.875 -0.0863,-0.32319 -0.2109,-0.63254 -0.375,-0.9375 -0.25857,-0.47988 -0.61536,-0.84719 -0.96875,-1.125 6e-5,-0.0104 6e-5,-0.0208 0,-0.0312 -0.61581,-0.48359 -0.92876,-0.54182 -1.4375,-0.75 -0.59745,-0.24435 -1.25148,-0.45684 -1.96875,-0.625 -0.73081,-0.17123 -1.49073,-0.27764 -2.3125,-0.375 -0.83622,-0.099 -1.6761,-0.15621 -2.5,-0.15625 l 5e-5,-5e-5 z M 206,295.28125 c 1.06179,2e-5 1.82484,0.1487 2.3125,0.34375 0.54986,0.21996 0.88758,0.45985 1.125,0.75 0.26526,0.32423 0.4745,0.75345 0.625,1.375 0.16985,0.70162 0.24998,1.5324 0.25,2.5 -2e-5,0.80722 -0.0933,1.58039 -0.3125,2.34375 -0.20173,0.70253 -0.49127,1.30159 -0.90625,1.84375 -0.37973,0.49608 -0.82854,0.87654 -1.4375,1.1875 -0.50867,0.25975 -1.18752,0.40625 -2.125,0.40625 -0.93286,0 -1.63071,-0.15465 -2.15625,-0.40625 -0.43111,-0.20638 -0.80469,-0.52864 -1.21875,-1.21875 -0.40086,-0.66808 -0.80861,-1.77773 -1.09375,-3.28125 -0.21573,-1.13746 -0.28887,-2.79991 -0.34375,-4.5 0.0661,-0.034 0.11923,-0.0602 0.1875,-0.0937 0.5106,-0.25124 1.05425,-0.46599 1.625,-0.65625 0.55354,-0.1845 1.14434,-0.33109 1.75,-0.4375 0.5828,-0.10237 1.14243,-0.15623 1.71875,-0.15625 l 0,-5e-5 z"
       id="text5477"
       style="font-size:60px;font-style:normal;font-variant:normal;font-weight:normal;font-stretch:normal;text-indent:0;text-align:start;text-decoration:none;line-height:125%;letter-spacing:normal;word-spacing:normal;text-transform:none;direction:ltr;block-progression:tb;writing-mode:lr-tb;text-anchor:start;color:#000000;fill:#ffffff;fill-opacity:1;fill-rule:nonzero;stroke:none;stroke-width:5;marker:none;visibility:visible;display:inline;overflow:visible;enable-background:accumulate;font-family:Calibri;-inkscape-font-specification:Calibri" />
    <g
       id="text5481"
       style="font-size:60px;font-style:normal;font-variant:normal;font-weight:normal;font-stretch:normal;text-align:start;line-height:125%;writing-mode:lr-tb;text-anchor:start;fill:#000000;stroke:none;font-family:Calibri;-inkscape-font-specification:Calibri">
      <path
         d="m 217.9254,299.78299 c -3e-5,1.66017 -0.25393,3.26661 -0.76172,4.81934 -0.50784,1.55274 -1.28909,2.91992 -2.34375,4.10156 -1.05471,1.18164 -2.3926,2.12891 -4.01367,2.84179 -1.62111,0.7129 -3.53517,1.06934 -5.74219,1.06934 -1.58204,0 -2.97853,-0.19531 -4.18945,-0.58594 -1.21095,-0.39062 -2.26564,-0.94726 -3.16406,-1.66992 -0.89845,-0.72265 -1.64552,-1.61132 -2.24121,-2.66601 -0.59571,-1.05469 -1.07423,-2.25586 -1.43555,-3.60352 -0.36133,-1.34765 -0.62012,-2.82225 -0.77637,-4.42383 -0.15625,-1.60155 -0.23438,-3.32029 -0.23437,-5.15625 -10e-6,-1.62107 0.0879,-3.2617 0.26367,-4.92187 0.17578,-1.66014 0.48828,-3.2617 0.9375,-4.80469 0.44921,-1.54294 1.05956,-2.99313 1.83105,-4.35059 0.77148,-1.35739 1.73828,-2.53902 2.90039,-3.54492 1.1621,-1.00582 2.5537,-1.80172 4.17481,-2.38769 1.62108,-0.5859 3.50584,-0.87887 5.65429,-0.87891 0.72264,4e-5 1.45506,0.044 2.19727,0.13184 0.74217,0.0879 1.42576,0.20511 2.05078,0.35156 0.62498,0.14652 1.15232,0.30765 1.58203,0.4834 0.42967,0.17582 0.71287,0.31742 0.84961,0.4248 0.1367,0.10746 0.23923,0.22465 0.30762,0.35156 0.0683,0.12699 0.12204,0.26371 0.16113,0.41016 0.039,0.14652 0.0683,0.31254 0.0879,0.49805 0.0195,0.18558 0.0293,0.41507 0.0293,0.68847 -3e-5,0.3516 -0.005,0.65434 -0.0146,0.90821 -0.01,0.25394 -0.0489,0.45902 -0.11719,0.61523 -0.0684,0.15628 -0.15627,0.27347 -0.26367,0.35156 -0.10745,0.0782 -0.24905,0.11722 -0.4248,0.11719 -0.21487,3e-5 -0.50784,-0.0683 -0.87891,-0.20508 -0.37112,-0.13668 -0.82034,-0.28805 -1.34766,-0.4541 -0.52736,-0.16598 -1.16701,-0.31735 -1.91894,-0.4541 -0.75197,-0.13668 -1.626,-0.20504 -2.62207,-0.20508 -1.81642,4e-5 -3.37892,0.37113 -4.6875,1.11328 -1.30861,0.74222 -2.37794,1.73832 -3.20801,2.98828 -0.83009,1.25003 -1.44532,2.70023 -1.8457,4.35059 -0.4004,1.65042 -0.62989,3.37405 -0.68848,5.1709 0.50781,-0.29295 1.07909,-0.58592 1.71387,-0.87891 0.63475,-0.29294 1.32811,-0.55662 2.08008,-0.79101 0.75194,-0.23436 1.54784,-0.42478 2.38769,-0.57129 0.83983,-0.14646 1.73827,-0.21971 2.69531,-0.21973 2.05077,2e-5 3.77928,0.27834 5.18555,0.83496 1.40623,0.55666 2.54392,1.32815 3.41309,2.31446 0.86911,0.98634 1.48923,2.14845 1.86035,3.48632 0.37107,1.33791 0.55661,2.7881 0.55664,4.35059 z m -5.09766,0.46875 c -2e-5,-1.1328 -0.11232,-2.16307 -0.33691,-3.09082 -0.22463,-0.92772 -0.60061,-1.71385 -1.12793,-2.3584 -0.52736,-0.64451 -1.23049,-1.14256 -2.10938,-1.49414 -0.87892,-0.35154 -1.9629,-0.52732 -3.25195,-0.52734 -0.72267,2e-5 -1.44533,0.0635 -2.16797,0.19043 -0.72267,0.12697 -1.42091,0.30275 -2.09472,0.52734 -0.67384,0.22463 -1.31837,0.4883 -1.9336,0.79102 -0.61524,0.30275 -1.17676,0.6299 -1.68457,0.98144 -1e-5,2.51955 0.16113,4.62892 0.4834,6.32813 0.32226,1.69922 0.79101,3.06153 1.40625,4.08691 0.61522,1.0254 1.38183,1.75782 2.29981,2.19727 0.91795,0.43945 1.99217,0.65918 3.22265,0.65918 1.24998,0 2.33397,-0.23438 3.25195,-0.70313 0.91795,-0.46875 1.67967,-1.09863 2.28516,-1.88965 0.60545,-0.79101 1.04978,-1.67968 1.33301,-2.66601 0.28318,-0.98632 0.42478,-1.99706 0.4248,-3.03223 z"
         id="path5950"
         style="fill:#000000;font-family:Calibri;-inkscape-font-specification:Calibri" />
    </g>
  </g>
  <g
     transform="translate(-40,-40)"
     id="g5965">
    <path
       d="m 351.06996,231.97373 c -1.49123,5e-5 -2.94719,0.17979 -4.375,0.5 -1.26243,0.2832 -2.48311,0.61349 -3.625,1.0625 -1.06221,0.41776 -2.02222,0.87908 -2.9375,1.4375 -0.68777,0.4197 -1.20961,0.73428 -1.90625,1.34375 -0.44141,0.38629 -0.88759,0.70974 -1.5,1.78125 -0.26238,0.45926 -0.47357,0.95299 -0.625,1.4375 -0.18673,0.59763 -0.26885,1.11359 -0.3125,1.59375 -0.0381,0.41894 -0.0625,0.81465 -0.0625,1.21875 -10e-6,0.56893 0.0143,1.12268 0.0937,1.71875 0.0722,0.54194 0.17669,1.09292 0.46875,1.84375 0.29832,0.7673 0.85709,1.79415 2,2.625 0.92374,0.67211 2.19151,1.06275 3.28125,1.0625 2.5962,3.4e-4 3.1448,-0.82492 3.9375,-1.375 0.27767,-0.19265 0.74088,-0.48214 1.34375,-0.8125 0.41807,-0.22906 0.97951,-0.49086 1.71875,-0.75 0.3298,-0.11559 0.83547,-0.21873 1.5625,-0.21875 0.47083,2e-5 0.68642,0.0667 0.75,0.0937 0.20524,0.0872 0.21797,0.12414 0.21875,0.125 0.0702,0.0768 0.0913,0.13376 0.15625,0.3125 0.0692,0.19025 0.12499,0.39026 0.125,0.6875 -10e-6,0.49113 -0.0587,1.0798 -0.1875,1.78125 -0.0719,0.39145 -0.26969,1.08913 -0.6875,1.96875 -0.38334,0.80701 -1.04085,1.84697 -1.9375,3.09375 -0.84235,1.17126 -2.06568,2.66177 -3.65625,4.34375 l -7.34375,7.78125 c -0.0104,0.0103 -0.0208,0.0207 -0.0312,0.0312 -0.38065,0.41237 -0.75165,0.85044 -1.09375,1.375 -0.28535,0.43754 -0.56209,0.93342 -0.78125,1.4375 -0.34172,0.78595 -0.49106,1.53556 -0.5625,2.25 -0.0512,0.51194 -0.0625,1.0156 -0.0625,1.53125 -10e-6,0.69486 0.0275,1.39897 0.21875,2.21875 0.20324,0.87108 0.61496,1.95807 1.5625,2.96875 0.69395,0.74023 1.64327,1.33943 2.59375,1.65625 0.83756,0.27919 1.59115,0.34375 2.28125,0.34375 l 20.9375,0 c 1.00921,0 2.15966,-0.30214 3.0625,-0.84375 1.09908,-0.65957 1.89536,-1.6509 2.3125,-2.53125 0.34105,-0.72022 0.48806,-1.37718 0.59375,-1.96875 0.11389,-0.63815 0.15621,-1.22968 0.15625,-1.8125 -4e-5,-0.58282 -0.0351,-1.18922 -0.15625,-1.84375 -0.13216,-0.71328 -0.36363,-1.50673 -0.875,-2.34375 -0.44128,-0.7219 -1.1489,-1.49546 -2.09375,-2.0625 -0.81876,-0.49114 -1.90621,-0.84372 -3,-0.84375 l -4.96875,0 c 1.29557,-1.41774 2.68918,-2.89329 3.65625,-4.15625 1.44908,-1.89247 2.61074,-3.67774 3.5,-5.46875 0.85578,-1.72365 1.49263,-3.46179 1.8125,-5.25 0.26608,-1.48776 0.40622,-2.99341 0.40625,-4.5 -4e-5,-1.90313 -0.33129,-3.78882 -1,-5.5625 -0.6953,-1.8439 -1.78686,-3.52058 -3.1875,-4.90625 -1.46505,-1.4492 -3.25764,-2.52453 -5.1875,-3.25 -2.06197,-0.775 -4.28803,-1.12495 -6.59375,-1.125 l 0,10e-5 z"
       id="text5503"
       style="font-size:60px;font-style:normal;font-variant:normal;font-weight:normal;font-stretch:normal;text-indent:0;text-align:start;text-decoration:none;line-height:125%;letter-spacing:normal;word-spacing:normal;text-transform:none;direction:ltr;block-progression:tb;writing-mode:lr-tb;text-anchor:start;opacity:0.5;color:#000000;fill:#ffffff;fill-opacity:1;fill-rule:nonzero;stroke:none;stroke-width:10;marker:none;visibility:visible;display:inline;overflow:visible;enable-background:accumulate;font-family:Calibri;-inkscape-font-specification:Calibri" />
    <path
       d="m 351.06996,234.47373 c -1.32179,4e-5 -2.60739,0.16023 -3.84375,0.4375 -1.15368,0.25881 -2.21324,0.57336 -3.21875,0.96875 -0.96568,0.3798 -1.81678,0.76378 -2.5625,1.21875 -0.63197,0.38565 -1.09699,0.68649 -1.5625,1.09375 -0.33789,0.2957 -0.65473,0.55216 -1,1.15625 -0.17026,0.29801 -0.30612,0.61714 -0.40625,0.9375 -0.11778,0.37696 -0.18716,0.71501 -0.21875,1.0625 -0.0288,0.31691 -0.0312,0.65148 -0.0312,1 0,0.48956 0.0345,0.9305 0.0937,1.375 0.0557,0.41747 0.13229,0.81796 0.3125,1.28125 0.18334,0.47156 0.49983,1.04553 1.125,1.5 0.51558,0.37513 1.19927,0.59389 1.8125,0.59375 1.41528,1.9e-4 1.86439,-0.49643 2.5,-0.9375 0.37809,-0.26233 0.90462,-0.57699 1.5625,-0.9375 0.56548,-0.30983 1.28174,-0.6419 2.125,-0.9375 0.63853,-0.22379 1.41578,-0.34372 2.375,-0.34375 0.74322,2e-5 1.29633,0.13299 1.71875,0.3125 0.49324,0.20965 0.83456,0.43514 1.09375,0.71875 0.29388,0.32163 0.51827,0.69092 0.6875,1.15625 0.1713,0.47112 0.24999,0.96272 0.25,1.53125 -2e-5,0.6655 -0.0665,1.42077 -0.21875,2.25 -0.12385,0.67425 -0.41903,1.53676 -0.90625,2.5625 -0.47,0.98945 -1.19524,2.16373 -2.15625,3.5 -0.93388,1.29853 -2.23011,2.85433 -3.875,4.59375 l -7.34375,7.78125 c -0.0105,0.0103 -0.0209,0.0207 -0.0312,0.0312 -0.30751,0.33314 -0.56821,0.65667 -0.8125,1.03125 -0.21592,0.33108 -0.40409,0.69816 -0.5625,1.0625 -0.21969,0.50528 -0.32463,0.9963 -0.375,1.5 -0.0403,0.40246 -0.0625,0.82811 -0.0625,1.28125 0,0.56228 0.0264,1.09987 0.15625,1.65625 0.1358,0.58203 0.39049,1.22904 0.9375,1.8125 0.42021,0.44824 0.98472,0.80741 1.5625,1 0.52132,0.17378 1.01823,0.21875 1.5,0.21875 l 20.9375,0 c 0.59248,0 1.25657,-0.154 1.78125,-0.46875 0.62277,-0.37373 1.05997,-0.96705 1.3125,-1.5 0.21446,-0.45288 0.32897,-0.88 0.40625,-1.3125 0.0813,-0.45579 0.12496,-0.90781 0.125,-1.375 -4e-5,-0.46719 -0.04,-0.9159 -0.125,-1.375 -0.0905,-0.48848 -0.22186,-0.9936 -0.53125,-1.5 -0.0104,-6e-5 -0.0208,-6e-5 -0.0312,0 -0.27436,-0.44884 -0.67309,-0.92253 -1.21875,-1.25 -0.48263,-0.28951 -1.09374,-0.46873 -1.71875,-0.46875 l -10.65625,0 1.9375,-2.03125 c 0.012,-0.0123 0.0193,-0.019 0.0312,-0.0312 2.19914,-2.26055 3.98739,-4.28158 5.375,-6.09375 1.37883,-1.80072 2.48993,-3.46874 3.28125,-5.0625 0.77456,-1.56005 1.29513,-3.09905 1.5625,-4.59375 0.24045,-1.34445 0.37497,-2.70372 0.375,-4.0625 -3e-5,-1.62538 -0.2848,-3.20494 -0.84375,-4.6875 -0.57227,-1.51764 -1.47059,-2.88918 -2.625,-4.03125 -1.18664,-1.1738 -2.62785,-2.06596 -4.28125,-2.6875 -1.71947,-0.64627 -3.64793,-0.93746 -5.71875,-0.9375 l -5e-5,0 z"
       id="text5507"
       style="font-size:60px;font-style:normal;font-variant:normal;font-weight:normal;font-stretch:normal;text-indent:0;text-align:start;text-decoration:none;line-height:125%;letter-spacing:normal;word-spacing:normal;text-transform:none;direction:ltr;block-progression:tb;writing-mode:lr-tb;text-anchor:start;color:#000000;fill:#ffffff;fill-opacity:1;fill-rule:nonzero;stroke:none;stroke-width:5;marker:none;visibility:visible;display:inline;overflow:visible;enable-background:accumulate;font-family:Calibri;-inkscape-font-specification:Calibri" />
    <g
       transform="translate(-1.4925373,-0.99502488)"
       id="text5511"
       style="font-size:60px;font-style:normal;font-variant:normal;font-weight:normal;font-stretch:normal;text-align:start;line-height:125%;writing-mode:lr-tb;text-anchor:start;fill:#000000;stroke:none;font-family:Calibri;-inkscape-font-specification:Calibri">
      <path
         d="m 365.25266,274.2829 c -3e-5,0.35156 -0.0245,0.66406 -0.0732,0.9375 -0.0489,0.27344 -0.11721,0.50293 -0.20508,0.68847 -0.0879,0.18555 -0.2051,0.32227 -0.35156,0.41016 -0.14651,0.0879 -0.30764,0.13184 -0.4834,0.13184 l -20.94726,0 c -0.27344,0 -0.5127,-0.0342 -0.71778,-0.10254 -0.20508,-0.0684 -0.38086,-0.18067 -0.52734,-0.33692 -0.14649,-0.15625 -0.25391,-0.38085 -0.32226,-0.67382 -0.0684,-0.29297 -0.10255,-0.6543 -0.10254,-1.08399 -1e-5,-0.39062 0.0146,-0.73242 0.0439,-1.02539 0.0293,-0.29296 0.0928,-0.55175 0.19043,-0.77637 0.0977,-0.2246 0.21972,-0.44921 0.36621,-0.67382 0.14648,-0.22461 0.33691,-0.46387 0.57129,-0.71778 l 7.35352,-7.79297 c 1.6992,-1.79686 3.06151,-3.40818 4.08691,-4.83398 1.02537,-1.42576 1.81639,-2.72459 2.37305,-3.89649 0.55662,-1.17185 0.92283,-2.2363 1.09863,-3.19336 0.17576,-0.957 0.26365,-1.85544 0.26367,-2.69531 -2e-5,-0.83981 -0.13674,-1.63571 -0.41015,-2.38769 -0.27346,-0.75193 -0.66897,-1.4111 -1.18653,-1.97754 -0.51759,-0.56638 -1.16701,-1.01559 -1.94824,-1.34766 -0.78126,-0.332 -1.6797,-0.49801 -2.69531,-0.49805 -1.19142,4e-5 -2.26076,0.16605 -3.20801,0.49805 -0.94727,0.33207 -1.77735,0.69339 -2.49023,1.08399 -0.7129,0.39065 -1.3086,0.75198 -1.78711,1.08398 -0.47852,0.33206 -0.83497,0.49808 -1.06934,0.49805 -0.13672,3e-5 -0.25879,-0.039 -0.36621,-0.11719 -0.10743,-0.0781 -0.19532,-0.20505 -0.26367,-0.38086 -0.0684,-0.17575 -0.12208,-0.41012 -0.16113,-0.70312 -0.0391,-0.29294 -0.0586,-0.6445 -0.0586,-1.05469 0,-0.29294 0.01,-0.54684 0.0293,-0.76172 0.0195,-0.21481 0.0537,-0.40036 0.10254,-0.55664 0.0488,-0.15622 0.1123,-0.3027 0.19043,-0.43945 0.0781,-0.13669 0.23437,-0.30759 0.46875,-0.5127 0.23437,-0.20504 0.63964,-0.48336 1.21582,-0.83496 0.57616,-0.35153 1.29882,-0.69821 2.16797,-1.04004 0.86913,-0.34176 1.82616,-0.62984 2.87109,-0.86426 1.04491,-0.23433 2.14354,-0.35152 3.2959,-0.35156 1.83592,4e-5 3.44236,0.25883 4.81933,0.77637 1.37694,0.51761 2.51951,1.22562 3.42774,2.12402 0.90818,0.89847 1.58689,1.94339 2.03613,3.13477 0.44919,1.19143 0.6738,2.46096 0.67383,3.80859 -3e-5,1.21096 -0.10745,2.41702 -0.32227,3.61816 -0.21486,1.2012 -0.66897,2.50003 -1.3623,3.89649 -0.69338,1.3965 -1.69436,2.94924 -3.00293,4.6582 -1.30861,1.709 -3.04689,3.67677 -5.21484,5.90332 l -6.00586,6.26953 16.49414,0 c 0.15622,1e-5 0.30759,0.0439 0.4541,0.13184 0.14646,0.0879 0.27341,0.21973 0.38086,0.39551 0.10739,0.17578 0.18552,0.39551 0.23437,0.65918 0.0488,0.26367 0.0732,0.57129 0.0732,0.92285 z"
         id="path5953"
         style="fill:#000000;font-family:Calibri;-inkscape-font-specification:Calibri" />
    </g>
  </g>
  <g
     transform="translate(-40,-40)"
     id="g5971">
    <path
       d="m 260.6051,171.98756 c -0.45901,0.0192 -0.95162,0.0658 -1.5,0.1875 -0.29011,0.0645 -0.58407,0.16354 -0.9375,0.28125 -0.40783,0.13606 -0.89741,0.38287 -1.375,0.6875 l -0.0312,-0.0312 -0.3125,0.21875 -8.40625,5.375 a 5.0005,5.0005 0 0 0 -0.0937,0.0625 c -0.42438,0.28299 -0.87953,0.61869 -1.34375,1.125 -0.54904,0.59908 -0.98296,1.31923 -1.25,2.03125 -0.25089,0.66911 -0.34303,1.21296 -0.40625,1.71875 -0.0653,0.52274 -0.0625,0.98963 -0.0625,1.46875 -1e-5,0.63043 0.008,1.23561 0.125,1.9375 0.15311,0.91887 0.50549,2.24436 1.8125,3.46875 l 0.0312,0 c 1.32653,1.21548 3.49347,1.63037 4.78125,1.40625 1.15316,-0.20041 1.72621,-0.51869 2.34375,-0.84375 l 0,15.03125 -2.90625,0 c -1.09364,3e-5 -2.36496,0.39689 -3.28125,1.03125 -0.89431,0.61913 -1.49203,1.43283 -1.875,2.15625 -0.36613,0.69155 -0.55943,1.28872 -0.6875,1.84375 -0.17231,0.74663 -0.21876,1.40187 -0.21875,2.03125 -1e-5,0.63429 0.0401,1.28848 0.21875,2.0625 0.1586,0.68733 0.41664,1.46403 1,2.3125 0.39547,0.57526 0.96244,1.24375 1.9375,1.8125 0.84826,0.49485 1.93623,0.78125 2.90625,0.78125 l 19.8125,0 c 0.97018,0 1.96365,-0.26417 2.75,-0.6875 1.0557,-0.56857 1.77879,-1.39001 2.21875,-2.09375 0.50426,-0.80703 0.73008,-1.49732 0.875,-2.125 0.17844,-0.77358 0.2187,-1.42845 0.21875,-2.0625 -5e-5,-0.58282 -0.058,-1.20122 -0.1875,-1.875 -0.11574,-0.60148 -0.28591,-1.2412 -0.6875,-2 -0.41869,-0.79061 -1.13146,-1.65133 -2.0625,-2.25 -0.86525,-0.5561 -2.0312,-0.93747 -3.125,-0.9375 l -1.875,0 0,-28.3125 c -1.6e-4,-0.95022 -0.2636,-1.94108 -0.6875,-2.71875 -0.85169,-1.56037 -2.11265,-2.21026 -2.9375,-2.53125 -0.80793,-0.31399 -1.35239,-0.39945 -1.90625,-0.46875 -0.61731,-0.0771 -1.2051,-0.0937 -1.8125,-0.0937 -0.39757,4e-5 -0.7249,-0.014 -1.0625,0 z"
       id="text5515"
       style="font-size:60px;font-style:normal;font-variant:normal;font-weight:normal;font-stretch:normal;text-indent:0;text-align:start;text-decoration:none;line-height:125%;letter-spacing:normal;word-spacing:normal;text-transform:none;direction:ltr;block-progression:tb;writing-mode:lr-tb;text-anchor:start;opacity:0.5;color:#000000;fill:#ffffff;fill-opacity:1;fill-rule:nonzero;stroke:none;stroke-width:10;marker:none;visibility:visible;display:inline;overflow:visible;enable-background:accumulate;font-family:Calibri;-inkscape-font-specification:Calibri" />
    <path
       d="m 260.69885,174.48756 c -0.3467,0.0145 -0.70043,0.0759 -1.0625,0.15625 -0.23295,0.0518 -0.4522,0.10913 -0.6875,0.1875 -0.26334,0.0879 -0.55634,0.21698 -0.84375,0.40625 l -0.125,0.0625 c -0.0129,0.009 -0.0183,0.0216 -0.0312,0.0312 l -8.5625,5.5 c -0.021,0.0101 -0.0418,0.0205 -0.0625,0.0312 -0.30008,0.2001 -0.58918,0.40702 -0.875,0.71875 -0.32823,0.35815 -0.58719,0.78463 -0.75,1.21875 -0.15474,0.4127 -0.20374,0.78618 -0.25,1.15625 -0.0473,0.37857 -0.0625,0.75069 -0.0625,1.15625 -1e-5,0.53984 0.0108,1.03384 0.0937,1.53125 0.10139,0.60848 0.30029,1.38393 1.03125,2.0625 0.73066,0.67865 1.92799,0.88218 2.6875,0.75 0.68888,-0.11972 1.13068,-0.33355 1.625,-0.59375 0.0422,-0.0197 0.0839,-0.0405 0.125,-0.0625 l 3.53125,-2.125 0,21.9375 -5.40625,0 c -0.62495,2e-5 -1.32213,0.20138 -1.84375,0.5625 -0.51063,0.35351 -0.88957,0.83653 -1.125,1.28125 -0.22701,0.42879 -0.34417,0.84553 -0.4375,1.25 -0.11546,0.50027 -0.15626,0.97828 -0.15625,1.46875 -1e-5,0.50269 0.0376,0.98604 0.15625,1.5 0.10859,0.47062 0.27961,0.96639 0.625,1.46875 0.25144,0.36576 0.61012,0.74394 1.15625,1.0625 0.48272,0.2816 1.07163,0.4375 1.625,0.4375 l 19.8125,0 c 0.55344,0 1.10583,-0.12915 1.5625,-0.375 0.59131,-0.31847 1.01243,-0.78876 1.28125,-1.21875 0.30094,-0.48164 0.46073,-0.93421 0.5625,-1.375 0.1185,-0.51374 0.15621,-0.99743 0.15625,-1.5 -4e-5,-0.46719 -0.0358,-0.91116 -0.125,-1.375 6e-5,-0.0104 6e-5,-0.0208 0,-0.0312 -0.0823,-0.42769 -0.22402,-0.85009 -0.46875,-1.3125 -0.25331,-0.47831 -0.65363,-0.96922 -1.1875,-1.3125 -0.501,-0.32199 -1.15624,-0.53123 -1.78125,-0.53125 l -4.375,0 0,-30.8125 c -9e-5,-0.53369 -0.13377,-1.08869 -0.375,-1.53125 -0.45515,-0.83388 -1.15594,-1.21156 -1.65625,-1.40625 -0.49186,-0.19115 -0.87933,-0.2583 -1.3125,-0.3125 -0.46491,-0.0581 -0.96193,-0.0625 -1.5,-0.0625 -0.37458,4e-5 -0.68277,-0.0119 -0.96875,0 l 0,5e-5 z"
       id="text5519"
       style="font-size:60px;font-style:normal;font-variant:normal;font-weight:normal;font-stretch:normal;text-indent:0;text-align:start;text-decoration:none;line-height:125%;letter-spacing:normal;word-spacing:normal;text-transform:none;direction:ltr;block-progression:tb;writing-mode:lr-tb;text-anchor:start;color:#000000;fill:#ffffff;fill-opacity:1;fill-rule:nonzero;stroke:none;stroke-width:5;marker:none;visibility:visible;display:inline;overflow:visible;enable-background:accumulate;font-family:Calibri;-inkscape-font-specification:Calibri" />
    <g
       transform="translate(3.9800995,2.4875622)"
       id="text5523"
       style="font-size:60px;font-style:normal;font-variant:normal;font-weight:normal;font-stretch:normal;text-align:start;line-height:125%;writing-mode:lr-tb;text-anchor:start;fill:#000000;stroke:none;font-family:Calibri;-inkscape-font-specification:Calibri">
      <path
         d="m 267.95618,210.67711 c -3e-5,0.37109 -0.0293,0.68359 -0.0879,0.9375 -0.0586,0.25391 -0.13675,0.45898 -0.23438,0.61523 -0.0977,0.15625 -0.20999,0.26856 -0.33691,0.33692 -0.12698,0.0684 -0.25882,0.10254 -0.39551,0.10254 l -19.80469,0 c -0.13672,0 -0.26368,-0.0342 -0.38086,-0.10254 -0.11719,-0.0684 -0.2295,-0.18067 -0.33691,-0.33692 -0.10743,-0.15625 -0.19044,-0.36132 -0.24903,-0.61523 -0.0586,-0.25391 -0.0879,-0.56641 -0.0879,-0.9375 0,-0.35156 0.0293,-0.6543 0.0879,-0.9082 0.0586,-0.25391 0.13184,-0.46387 0.21973,-0.62989 0.0879,-0.16601 0.19531,-0.29296 0.32227,-0.38086 0.12694,-0.0879 0.26855,-0.13183 0.4248,-0.13183 l 7.91016,0 0,-28.82813 -7.32422,4.36524 c -0.3711,0.19534 -0.66895,0.31253 -0.89356,0.35156 -0.22461,0.0391 -0.40527,-0.005 -0.54199,-0.13184 -0.13672,-0.12692 -0.2295,-0.33688 -0.27832,-0.62988 -0.0488,-0.29294 -0.0733,-0.66403 -0.0732,-1.11328 -1e-5,-0.332 0.0146,-0.6152 0.0439,-0.84961 0.0293,-0.23434 0.0732,-0.42966 0.13183,-0.58594 0.0586,-0.15622 0.1416,-0.29293 0.24902,-0.41015 0.10742,-0.11716 0.24902,-0.23435 0.42481,-0.35157 l 8.73047,-5.5957 c 0.0781,-0.0586 0.17576,-0.10738 0.29297,-0.14648 0.11717,-0.039 0.26365,-0.0781 0.43945,-0.11719 0.17577,-0.039 0.38084,-0.0634 0.61523,-0.0732 0.23436,-0.01 0.52733,-0.0146 0.87891,-0.0146 0.46873,4e-5 0.85936,0.0196 1.17188,0.0586 0.31248,0.0391 0.55662,0.0928 0.73242,0.16113 0.17576,0.0684 0.29295,0.15629 0.35156,0.26368 0.0586,0.10746 0.0879,0.21976 0.0879,0.33691 l 0,33.31055 6.85547,0 c 0.15622,0 0.30271,0.0439 0.43945,0.13183 0.13669,0.0879 0.249,0.21485 0.33692,0.38086 0.0879,0.16602 0.15622,0.37598 0.20507,0.62989 0.0488,0.2539 0.0732,0.55664 0.0733,0.9082 z"
         id="path5956"
         style="fill:#000000;font-family:Calibri;-inkscape-font-specification:Calibri" />
    </g>
  </g>
</svg>
