<?xml version="1.0" encoding="UTF-8" standalone="no"?>
<!-- Created with Inkscape (http://www.inkscape.org/) -->

<svg
   xmlns:svg="http://www.w3.org/2000/svg"
   xmlns="http://www.w3.org/2000/svg"
   version="1.0"
   width="520"
   height="520"
   id="svg8364">
  <defs
     id="defs8366" />
  <path
     d="m 224.8125,28.5 -16.3125,6.125 0,12.21875 -26.53125,9.1875 -5.09375,-4.0625 -5.09375,3.03125 3.0625,6.125 -21.40625,10.21875 -7.15625,-8.15625 -8.15625,13.25 4.09375,6.125 -25.5,13.25 -3.0625,29.5625 -10.1875,0 -9.1875,11.21875 -10.1875,-10.1875 -11.21875,7.125 -1.03125,6.125 11.21875,12.25 -11.21875,21.40625 0,14.28125 1.3125,-1.625 -8.4375,16.90625 20.375,6.125 41.8125,13.28125 0,9.15625 1.03125,8.15625 7.125,2.0625 -10.1875,10.1875 -74.4375,6.125 2.03125,8.15625 -8.15625,1 -1.03125,10.21875 7.15625,3.0625 3.0625,20.375 -10.21875,3.0625 3.0625,8.15625 9.1875,-2.03125 9.1875,25.5 10.1875,-3.0625 13.25,4.09375 4.09375,-8.15625 4.09375,1.625 -2.0625,0.40625 3.0625,8.15625 9.1875,0 7.125,6.125 9.1875,-9.1875 L 141.1875,363 l 9.1875,10.1875 9.1875,-5.09375 5.09375,5.09375 -5.09375,7.15625 14.25,18.34375 74.53125,16.65625 7.0625,8.84375 2.03125,-2.03125 3.0625,-5.09375 24.5,8.15625 -3.0625,6.125 9.15625,13.25 20.40625,1 15.3125,31.625 -6.125,3.0625 3.0625,5.09375 11.21875,-3.0625 5.09375,6.125 6.125,3.0625 8.15625,-4.09375 -3.0625,-9.15625 17.34375,-7.15625 -2.0625,-10.1875 -7.125,2.03125 L 329.84375,414 l 6.125,-7.15625 -3.0625,-4.0625 23.46875,-47.9375 1.75,-6.40625 28.84375,7.4375 38.75,-2.0625 0,-6.09375 7.15625,-4.09375 1,-10.1875 16.3125,-4.09375 -1,-27.53125 7.125,1.03125 4.09375,-12.25 -5.125,-4.09375 3.0625,-14.25 6.125,0 -1,8.15625 13.25,-5.09375 0,-17.34375 L 465.5,252.875 l -5.09375,-5.125 -2.0625,9.1875 -25.46875,-3.0625 0,-6.125 3.03125,-7.125 -5.09375,-5.09375 -6.125,0 1.03125,5.09375 5.09375,0 -5.09375,3.0625 -2.03125,-2.03125 -5.03125,5.84375 -1.09375,-8.90625 -9.1875,-7.15625 -1,-8.15625 -5.125,1.03125 0,8.15625 0,8.15625 -5.09375,-1.03125 -7.125,1.03125 -6.125,2.03125 1.03125,-12.21875 3.0625,-7.15625 -7.15625,-1 -10.1875,5.09375 -3.0625,-5.09375 -7.15625,-5.125 -5.09375,5.125 -5.09375,-6.125 33.65625,-44.875 L 369.625,166.1875 357.40625,164.125 285,151.90625 l -0.625,0.40625 -4.5,-9.59375 2.0625,-6.125 -12.25,-14.28125 12.25,-8.15625 -4.09375,-3.0625 -9.1875,1.03125 -1,-22.4375 5.09375,-3.0625 -4.09375,-7.125 0,-16.3125 -1,-5.125 0,-21.40625 -7.15625,-6.125 -6.09375,7.15625 -24.5,2.03125 L 224.8125,28.5 z"
     id="path10953"
     style="opacity:0.1;fill:none;stroke:#000000;stroke-width:17.5;stroke-linecap:round;stroke-linejoin:round;stroke-miterlimit:4;stroke-opacity:1;stroke-dasharray:none;stroke-dashoffset:0" />
  <path
     d="m 224.8125,28.5 -16.3125,6.125 0,12.21875 -26.53125,9.1875 -5.09375,-4.0625 -5.09375,3.03125 3.0625,6.125 -21.40625,10.21875 -7.15625,-8.15625 -8.15625,13.25 4.09375,6.125 -25.5,13.25 -3.0625,29.5625 -10.1875,0 -9.1875,11.21875 -10.1875,-10.1875 -11.21875,7.125 -1.03125,6.125 11.21875,12.25 -11.21875,21.40625 0,14.28125 1.3125,-1.625 -8.4375,16.90625 20.375,6.125 41.8125,13.28125 0,9.15625 1.03125,8.15625 7.125,2.0625 -10.1875,10.1875 -74.4375,6.125 2.03125,8.15625 -8.15625,1 -1.03125,10.21875 7.15625,3.0625 3.0625,20.375 -10.21875,3.0625 3.0625,8.15625 9.1875,-2.03125 9.1875,25.5 10.1875,-3.0625 13.25,4.09375 4.09375,-8.15625 4.09375,1.625 -2.0625,0.40625 3.0625,8.15625 9.1875,0 7.125,6.125 9.1875,-9.1875 L 141.1875,363 l 9.1875,10.1875 9.1875,-5.09375 5.09375,5.09375 -5.09375,7.15625 14.25,18.34375 74.53125,16.65625 7.0625,8.84375 2.03125,-2.03125 3.0625,-5.09375 24.5,8.15625 -3.0625,6.125 9.15625,13.25 20.40625,1 15.3125,31.625 -6.125,3.0625 3.0625,5.09375 11.21875,-3.0625 5.09375,6.125 6.125,3.0625 8.15625,-4.09375 -3.0625,-9.15625 17.34375,-7.15625 -2.0625,-10.1875 -7.125,2.03125 L 329.84375,414 l 6.125,-7.15625 -3.0625,-4.0625 23.46875,-47.9375 1.75,-6.40625 28.84375,7.4375 38.75,-2.0625 0,-6.09375 7.15625,-4.09375 1,-10.1875 16.3125,-4.09375 -1,-27.53125 7.125,1.03125 4.09375,-12.25 -5.125,-4.09375 3.0625,-14.25 6.125,0 -1,8.15625 13.25,-5.09375 0,-17.34375 L 465.5,252.875 l -5.09375,-5.125 -2.0625,9.1875 -25.46875,-3.0625 0,-6.125 3.03125,-7.125 -5.09375,-5.09375 -6.125,0 1.03125,5.09375 5.09375,0 -5.09375,3.0625 -2.03125,-2.03125 -5.03125,5.84375 -1.09375,-8.90625 -9.1875,-7.15625 -1,-8.15625 -5.125,1.03125 0,8.15625 0,8.15625 -5.09375,-1.03125 -7.125,1.03125 -6.125,2.03125 1.03125,-12.21875 3.0625,-7.15625 -7.15625,-1 -10.1875,5.09375 -3.0625,-5.09375 -7.15625,-5.125 -5.09375,5.125 -5.09375,-6.125 33.65625,-44.875 L 369.625,166.1875 357.40625,164.125 285,151.90625 l -0.625,0.40625 -4.5,-9.59375 2.0625,-6.125 -12.25,-14.28125 12.25,-8.15625 -4.09375,-3.0625 -9.1875,1.03125 -1,-22.4375 5.09375,-3.0625 -4.09375,-7.125 0,-16.3125 -1,-5.125 0,-21.40625 -7.15625,-6.125 -6.09375,7.15625 -24.5,2.03125 L 224.8125,28.5 z"
     id="path10951"
     style="opacity:0.1;fill:none;stroke:#000000;stroke-width:12.5;stroke-linecap:round;stroke-linejoin:round;stroke-miterlimit:4;stroke-opacity:1;stroke-dasharray:none;stroke-dashoffset:0" />
  <path
     d="m 224.8125,28.5 -16.3125,6.125 0,12.21875 -26.53125,9.1875 -5.09375,-4.0625 -5.09375,3.03125 3.0625,6.125 -21.40625,10.21875 -7.15625,-8.15625 -8.15625,13.25 4.09375,6.125 -25.5,13.25 -3.0625,29.5625 -10.1875,0 -9.1875,11.21875 -10.1875,-10.1875 -11.21875,7.125 -1.03125,6.125 11.21875,12.25 -11.21875,21.40625 0,14.28125 1.3125,-1.625 -8.4375,16.90625 20.375,6.125 41.8125,13.28125 0,9.15625 1.03125,8.15625 7.125,2.0625 -10.1875,10.1875 -74.4375,6.125 2.03125,8.15625 -8.15625,1 -1.03125,10.21875 7.15625,3.0625 3.0625,20.375 -10.21875,3.0625 3.0625,8.15625 9.1875,-2.03125 9.1875,25.5 10.1875,-3.0625 13.25,4.09375 4.09375,-8.15625 4.09375,1.625 -2.0625,0.40625 3.0625,8.15625 9.1875,0 7.125,6.125 9.1875,-9.1875 L 141.1875,363 l 9.1875,10.1875 9.1875,-5.09375 5.09375,5.09375 -5.09375,7.15625 14.25,18.34375 74.53125,16.65625 7.0625,8.84375 2.03125,-2.03125 3.0625,-5.09375 24.5,8.15625 -3.0625,6.125 9.15625,13.25 20.40625,1 15.3125,31.625 -6.125,3.0625 3.0625,5.09375 11.21875,-3.0625 5.09375,6.125 6.125,3.0625 8.15625,-4.09375 -3.0625,-9.15625 17.34375,-7.15625 -2.0625,-10.1875 -7.125,2.03125 L 329.84375,414 l 6.125,-7.15625 -3.0625,-4.0625 23.46875,-47.9375 1.75,-6.40625 28.84375,7.4375 38.75,-2.0625 0,-6.09375 7.15625,-4.09375 1,-10.1875 16.3125,-4.09375 -1,-27.53125 7.125,1.03125 4.09375,-12.25 -5.125,-4.09375 3.0625,-14.25 6.125,0 -1,8.15625 13.25,-5.09375 0,-17.34375 L 465.5,252.875 l -5.09375,-5.125 -2.0625,9.1875 -25.46875,-3.0625 0,-6.125 3.03125,-7.125 -5.09375,-5.09375 -6.125,0 1.03125,5.09375 5.09375,0 -5.09375,3.0625 -2.03125,-2.03125 -5.03125,5.84375 -1.09375,-8.90625 -9.1875,-7.15625 -1,-8.15625 -5.125,1.03125 0,8.15625 0,8.15625 -5.09375,-1.03125 -7.125,1.03125 -6.125,2.03125 1.03125,-12.21875 3.0625,-7.15625 -7.15625,-1 -10.1875,5.09375 -3.0625,-5.09375 -7.15625,-5.125 -5.09375,5.125 -5.09375,-6.125 33.65625,-44.875 L 369.625,166.1875 357.40625,164.125 285,151.90625 l -0.625,0.40625 -4.5,-9.59375 2.0625,-6.125 -12.25,-14.28125 12.25,-8.15625 -4.09375,-3.0625 -9.1875,1.03125 -1,-22.4375 5.09375,-3.0625 -4.09375,-7.125 0,-16.3125 -1,-5.125 0,-21.40625 -7.15625,-6.125 -6.09375,7.15625 -24.5,2.03125 L 224.8125,28.5 z"
     id="path10938"
     style="opacity:0.1;fill:none;stroke:#000000;stroke-width:7.5;stroke-linecap:round;stroke-linejoin:round;stroke-miterlimit:4;stroke-opacity:1;stroke-dasharray:none;stroke-dashoffset:0" />
  <path
     d="m 224.81252,28.499861 -16.3125,6.125 0,12.21875 -26.53125,9.1875 -5.09375,-4.0625 -5.09375,3.03125 3.0625,6.124999 -21.40625,10.21875 -7.15625,-8.15625 -8.15625,13.25 4.09375,6.125 -25.5,13.25 -3.0625,29.5625 -10.1875,0 -9.1875,11.21875 -10.1875,-10.1875 -11.21875,7.125 -1.03125,6.125 11.21875,12.25 -11.21875,21.40625 0,14.28125 17.34375,-21.40625 45.875,0 62.21875,38.75 20.40625,28.5625 10.1875,26.5 -7.125,6.125 40.1875,1.78125 -3.5,-2.8125 9.1875,-25.5 -2.03125,-7.125 -1.03125,-32.625 7.15625,-12.25 -8.15625,-21.40625 21.8125,-13.875 -4.5,-9.59375 2.0625,-6.125 -12.25,-14.28125 12.25,-8.15625 -4.09375,-3.0625 -9.1875,1.03125 -1,-22.4375 5.09375,-3.0625 -4.09375,-7.125 0,-16.3125 -1,-5.124999 0,-21.40625 -7.15625,-6.125 -6.09375,7.15625 -24.5,2.03125 -5.09375,-11.21875 z"
     id="path8785"
     style="fill:#d4e5b6;fill-opacity:1;stroke:#ffffff;stroke-width:2.5;stroke-linecap:round;stroke-linejoin:round;stroke-miterlimit:4;stroke-opacity:1;stroke-dasharray:none;stroke-dashoffset:0" />
  <path
     d="m 424.68752,235.53111 1.03125,5.09375 5.09375,0 -5.09375,3.0625 -2.03125,-2.03125 -6.125,7.125 -81.59375,23.46875 -23.4375,4.0625 -26.53125,-3.0625 -2.03125,-3.0625 -9.1875,-1 -14.28125,1 -5.90625,13.4375 1.84375,-3.21875 5.09375,1 7.125,7.15625 5.125,0 4.0625,8.15625 3.0625,10.1875 7.125,7.15625 6.125,10.1875 32.65625,12.25 32.625,7.125 -1.3125,4.8125 28.84375,7.4375 38.75,-2.0625 0,-6.09375 7.15625,-4.09375 1,-10.1875 16.3125,-4.09375 -1,-27.53125 7.125,1.03125 4.09375,-12.25 -5.125,-4.09375 3.0625,-14.25 6.125,0 -1,8.15625 13.25,-5.09375 0,-17.34375 -11.21875,-5.09375 -5.09375,-5.125 -2.0625,9.1875 -25.46875,-3.0625 0,-6.125 3.03125,-7.125 -5.09375,-5.09375 -6.125,0 z"
     id="path8860"
     style="fill:#d4e5b6;fill-opacity:1;stroke:#ffffff;stroke-width:2.5;stroke-linecap:round;stroke-linejoin:round;stroke-miterlimit:4;stroke-opacity:1;stroke-dasharray:none;stroke-dashoffset:0" />
  <path
     d="m 368.61143,471.10363 -17.33703,7.13879 3.05943,9.17841 -8.15873,4.07931 -6.11887,-3.05948 -5.099,-6.11894 -11.21816,3.05946 -3.05943,-5.0991 6.11886,-3.05948 -15.29731,-31.61459 -20.39645,-1.01982 -9.17845,-13.25772 3.05943,-6.11895 -24.47575,-8.1586 -3.05958,5.09912 -2.03957,2.03965 -8.15858,-10.19826 -3.05959,0 5.09916,-33.65421 -1.01971,-9.17843 8.15843,-26.51546 -3.05943,-13.25772 -5.099,-7.13876 -6.11917,-3.05948 5.09931,-12.23791 -4.07945,-11.21807 9.17845,-10.19826 4.07929,-7.13877 5.0993,1.01982 7.13873,7.13878 5.099,0 4.07944,8.1586 3.05943,10.19824 7.13872,7.13879 6.11902,10.19826 32.63433,12.23789 32.63448,7.13878 -3.05958,11.21807 -23.45604,47.93178 3.05958,4.07929 -6.11901,7.13877 29.57505,48.9516 7.13873,-2.03964 2.03972,10.19824 z"
     id="path8883"
     style="fill:#d4e5b6;fill-opacity:1;stroke:#ffffff;stroke-width:2.5;stroke-linecap:round;stroke-linejoin:round;stroke-miterlimit:4;stroke-opacity:1;stroke-dasharray:none;stroke-dashoffset:0" />
  <path
     d="m 213.59377,262.03111 -14.28125,9.1875 2.0625,8.15625 -4.09375,28.5625 -13.25,5.09375 -89.75,17.34375 3.0625,8.15625 9.1875,0 7.125,6.125 9.1875,-9.1875 18.34375,27.53125 9.1875,10.1875 9.1875,-5.09375 5.09375,5.09375 -5.09375,7.15625 14.25,18.34375 74.53125,16.65625 -1.09375,-1.34375 -3.0625,0 5.09375,-33.65625 -1,-9.1875 8.15625,-26.5 -3.0625,-13.28125 -5.09375,-7.125 -6.125,-3.0625 5.09375,-12.25 -4.0625,-11.21875 9.15625,-10.1875 2.25,-3.90625 5.90625,-13.4375 3.03125,-0.21875 -2.59375,-2.0625 -38.84375,-1.71875 -1.34375,0.9375 -7.15625,-5.09375 z"
     id="path8895"
     style="fill:#d4e5b6;fill-opacity:1;stroke:#ffffff;stroke-width:2.5;stroke-linecap:round;stroke-linejoin:round;stroke-miterlimit:4;stroke-opacity:1;stroke-dasharray:none;stroke-dashoffset:0" />
  <path
     d="m 89.18752,166.18736 -16.03125,19.78125 -8.4375,16.90625 20.375,6.125 41.8125,13.28125 0,9.15625 1.03125,8.15625 7.125,2.0625 -10.1875,10.1875 -74.437499,6.125 2.03125,8.15625 -8.15625,1 -1.03125,10.21875 7.15625,3.0625 3.0625,20.375 -10.21875,3.0625 3.0625,8.15625 9.1875,-2.03125 9.187499,25.5 10.1875,-3.0625 13.25,4.09375 4.09375,-8.15625 4.09375,1.625 87.6875,-16.9375 13.25,-5.09375 4.09375,-28.5625 -2.0625,-8.15625 14.28125,-9.1875 7.15625,5.09375 1.34375,-0.9375 -1.34375,-0.0625 7.125,-6.125 -10.1875,-26.5 -20.40625,-28.5625 -62.21875,-38.75 -45.875,0 z"
     id="path4705-8"
     style="fill:#d4e5b6;fill-opacity:1;stroke:#ffffff;stroke-width:2.5;stroke-linecap:round;stroke-linejoin:round;stroke-miterlimit:4;stroke-opacity:1;stroke-dasharray:none;stroke-dashoffset:0" />
  <path
     d="m 285.00002,151.90611 -22.4375,14.28125 8.15625,21.40625 -7.15625,12.25 1.03125,32.625 2.03125,7.125 -9.1875,25.5 6.09375,4.875 11.25,-0.78125 9.1875,1 2.03125,3.0625 26.53125,3.0625 23.4375,-4.0625 81.59375,-23.46875 1.09375,-1.28125 -1.09375,-8.90625 -9.1875,-7.15625 -1,-8.15625 -5.125,1.03125 0,8.15625 0,8.15625 -5.09375,-1.03125 -7.125,1.03125 -6.125,2.03125 1.03125,-12.21875 3.0625,-7.15625 -7.15625,-1 -10.1875,5.09375 -3.0625,-5.09375 -7.15625,-5.125 -5.09375,5.125 -5.09375,-6.125 33.65625,-44.875 -14.28125,-5.09375 -12.21875,-2.0625 -72.40625,-12.21875 z"
     id="path11059"
     style="fill:#0A7A27;fill-opacity:1;stroke:#000000;stroke-width:7.5;stroke-linecap:round;stroke-linejoin:round;stroke-miterlimit:4;stroke-opacity:1;stroke-dasharray:none;stroke-dashoffset:0" />
  <path
     d="m 285.00002,151.90611 -22.4375,14.28125 8.15625,21.40625 -7.15625,12.25 1.03125,32.625 2.03125,7.125 -9.1875,25.5 6.09375,4.875 11.25,-0.78125 9.1875,1 2.03125,3.0625 26.53125,3.0625 23.4375,-4.0625 81.59375,-23.46875 1.09375,-1.28125 -1.09375,-8.90625 -9.1875,-7.15625 -1,-8.15625 -5.125,1.03125 0,8.15625 0,8.15625 -5.09375,-1.03125 -7.125,1.03125 -6.125,2.03125 1.03125,-12.21875 3.0625,-7.15625 -7.15625,-1 -10.1875,5.09375 -3.0625,-5.09375 -7.15625,-5.125 -5.09375,5.125 -5.09375,-6.125 33.65625,-44.875 -14.28125,-5.09375 -12.21875,-2.0625 -72.40625,-12.21875 z"
     id="path8837"
     style="fill:#0A7A27;fill-opacity:1;stroke:#ffffff;stroke-width:2.5;stroke-linecap:round;stroke-linejoin:round;stroke-miterlimit:4;stroke-opacity:1;stroke-dasharray:none;stroke-dashoffset:0" />
  <g
     transform="translate(-40,-40)"
     id="g5965">
    <path
       d="m 351.06996,231.97373 c -1.49123,5e-5 -2.94719,0.17979 -4.375,0.5 -1.26243,0.2832 -2.48311,0.61349 -3.625,1.0625 -1.06221,0.41776 -2.02222,0.87908 -2.9375,1.4375 -0.68777,0.4197 -1.20961,0.73428 -1.90625,1.34375 -0.44141,0.38629 -0.88759,0.70974 -1.5,1.78125 -0.26238,0.45926 -0.47357,0.95299 -0.625,1.4375 -0.18673,0.59763 -0.26885,1.11359 -0.3125,1.59375 -0.0381,0.41894 -0.0625,0.81465 -0.0625,1.21875 -10e-6,0.56893 0.0143,1.12268 0.0937,1.71875 0.0722,0.54194 0.17669,1.09292 0.46875,1.84375 0.29832,0.7673 0.85709,1.79415 2,2.625 0.92374,0.67211 2.19151,1.06275 3.28125,1.0625 2.5962,3.4e-4 3.1448,-0.82492 3.9375,-1.375 0.27767,-0.19265 0.74088,-0.48214 1.34375,-0.8125 0.41807,-0.22906 0.97951,-0.49086 1.71875,-0.75 0.3298,-0.11559 0.83547,-0.21873 1.5625,-0.21875 0.47083,2e-5 0.68642,0.0667 0.75,0.0937 0.20524,0.0872 0.21797,0.12414 0.21875,0.125 0.0702,0.0768 0.0913,0.13376 0.15625,0.3125 0.0692,0.19025 0.12499,0.39026 0.125,0.6875 -10e-6,0.49113 -0.0587,1.0798 -0.1875,1.78125 -0.0719,0.39145 -0.26969,1.08913 -0.6875,1.96875 -0.38334,0.80701 -1.04085,1.84697 -1.9375,3.09375 -0.84235,1.17126 -2.06568,2.66177 -3.65625,4.34375 l -7.34375,7.78125 c -0.0104,0.0103 -0.0208,0.0207 -0.0312,0.0312 -0.38065,0.41237 -0.75165,0.85044 -1.09375,1.375 -0.28535,0.43754 -0.56209,0.93342 -0.78125,1.4375 -0.34172,0.78595 -0.49106,1.53556 -0.5625,2.25 -0.0512,0.51194 -0.0625,1.0156 -0.0625,1.53125 -10e-6,0.69486 0.0275,1.39897 0.21875,2.21875 0.20324,0.87108 0.61496,1.95807 1.5625,2.96875 0.69395,0.74023 1.64327,1.33943 2.59375,1.65625 0.83756,0.27919 1.59115,0.34375 2.28125,0.34375 l 20.9375,0 c 1.00921,0 2.15966,-0.30214 3.0625,-0.84375 1.09908,-0.65957 1.89536,-1.6509 2.3125,-2.53125 0.34105,-0.72022 0.48806,-1.37718 0.59375,-1.96875 0.11389,-0.63815 0.15621,-1.22968 0.15625,-1.8125 -4e-5,-0.58282 -0.0351,-1.18922 -0.15625,-1.84375 -0.13216,-0.71328 -0.36363,-1.50673 -0.875,-2.34375 -0.44128,-0.7219 -1.1489,-1.49546 -2.09375,-2.0625 -0.81876,-0.49114 -1.90621,-0.84372 -3,-0.84375 l -4.96875,0 c 1.29557,-1.41774 2.68918,-2.89329 3.65625,-4.15625 1.44908,-1.89247 2.61074,-3.67774 3.5,-5.46875 0.85578,-1.72365 1.49263,-3.46179 1.8125,-5.25 0.26608,-1.48776 0.40622,-2.99341 0.40625,-4.5 -4e-5,-1.90313 -0.33129,-3.78882 -1,-5.5625 -0.6953,-1.8439 -1.78686,-3.52058 -3.1875,-4.90625 -1.46505,-1.4492 -3.25764,-2.52453 -5.1875,-3.25 -2.06197,-0.775 -4.28803,-1.12495 -6.59375,-1.125 l 0,10e-5 z"
       id="text5503"
       style="font-size:60px;font-style:normal;font-variant:normal;font-weight:normal;font-stretch:normal;text-indent:0;text-align:start;text-decoration:none;line-height:125%;letter-spacing:normal;word-spacing:normal;text-transform:none;direction:ltr;block-progression:tb;writing-mode:lr-tb;text-anchor:start;opacity:0.5;color:#000000;fill:#ffffff;fill-opacity:1;fill-rule:nonzero;stroke:none;stroke-width:10;marker:none;visibility:visible;display:inline;overflow:visible;enable-background:accumulate;font-family:Calibri;-inkscape-font-specification:Calibri" />
    <path
       d="m 351.06996,234.47373 c -1.32179,4e-5 -2.60739,0.16023 -3.84375,0.4375 -1.15368,0.25881 -2.21324,0.57336 -3.21875,0.96875 -0.96568,0.3798 -1.81678,0.76378 -2.5625,1.21875 -0.63197,0.38565 -1.09699,0.68649 -1.5625,1.09375 -0.33789,0.2957 -0.65473,0.55216 -1,1.15625 -0.17026,0.29801 -0.30612,0.61714 -0.40625,0.9375 -0.11778,0.37696 -0.18716,0.71501 -0.21875,1.0625 -0.0288,0.31691 -0.0312,0.65148 -0.0312,1 0,0.48956 0.0345,0.9305 0.0937,1.375 0.0557,0.41747 0.13229,0.81796 0.3125,1.28125 0.18334,0.47156 0.49983,1.04553 1.125,1.5 0.51558,0.37513 1.19927,0.59389 1.8125,0.59375 1.41528,1.9e-4 1.86439,-0.49643 2.5,-0.9375 0.37809,-0.26233 0.90462,-0.57699 1.5625,-0.9375 0.56548,-0.30983 1.28174,-0.6419 2.125,-0.9375 0.63853,-0.22379 1.41578,-0.34372 2.375,-0.34375 0.74322,2e-5 1.29633,0.13299 1.71875,0.3125 0.49324,0.20965 0.83456,0.43514 1.09375,0.71875 0.29388,0.32163 0.51827,0.69092 0.6875,1.15625 0.1713,0.47112 0.24999,0.96272 0.25,1.53125 -2e-5,0.6655 -0.0665,1.42077 -0.21875,2.25 -0.12385,0.67425 -0.41903,1.53676 -0.90625,2.5625 -0.47,0.98945 -1.19524,2.16373 -2.15625,3.5 -0.93388,1.29853 -2.23011,2.85433 -3.875,4.59375 l -7.34375,7.78125 c -0.0105,0.0103 -0.0209,0.0207 -0.0312,0.0312 -0.30751,0.33314 -0.56821,0.65667 -0.8125,1.03125 -0.21592,0.33108 -0.40409,0.69816 -0.5625,1.0625 -0.21969,0.50528 -0.32463,0.9963 -0.375,1.5 -0.0403,0.40246 -0.0625,0.82811 -0.0625,1.28125 0,0.56228 0.0264,1.09987 0.15625,1.65625 0.1358,0.58203 0.39049,1.22904 0.9375,1.8125 0.42021,0.44824 0.98472,0.80741 1.5625,1 0.52132,0.17378 1.01823,0.21875 1.5,0.21875 l 20.9375,0 c 0.59248,0 1.25657,-0.154 1.78125,-0.46875 0.62277,-0.37373 1.05997,-0.96705 1.3125,-1.5 0.21446,-0.45288 0.32897,-0.88 0.40625,-1.3125 0.0813,-0.45579 0.12496,-0.90781 0.125,-1.375 -4e-5,-0.46719 -0.04,-0.9159 -0.125,-1.375 -0.0905,-0.48848 -0.22186,-0.9936 -0.53125,-1.5 -0.0104,-6e-5 -0.0208,-6e-5 -0.0312,0 -0.27436,-0.44884 -0.67309,-0.92253 -1.21875,-1.25 -0.48263,-0.28951 -1.09374,-0.46873 -1.71875,-0.46875 l -10.65625,0 1.9375,-2.03125 c 0.012,-0.0123 0.0193,-0.019 0.0312,-0.0312 2.19914,-2.26055 3.98739,-4.28158 5.375,-6.09375 1.37883,-1.80072 2.48993,-3.46874 3.28125,-5.0625 0.77456,-1.56005 1.29513,-3.09905 1.5625,-4.59375 0.24045,-1.34445 0.37497,-2.70372 0.375,-4.0625 -3e-5,-1.62538 -0.2848,-3.20494 -0.84375,-4.6875 -0.57227,-1.51764 -1.47059,-2.88918 -2.625,-4.03125 -1.18664,-1.1738 -2.62785,-2.06596 -4.28125,-2.6875 -1.71947,-0.64627 -3.64793,-0.93746 -5.71875,-0.9375 l -5e-5,0 z"
       id="text5507"
       style="font-size:60px;font-style:normal;font-variant:normal;font-weight:normal;font-stretch:normal;text-indent:0;text-align:start;text-decoration:none;line-height:125%;letter-spacing:normal;word-spacing:normal;text-transform:none;direction:ltr;block-progression:tb;writing-mode:lr-tb;text-anchor:start;color:#000000;fill:#ffffff;fill-opacity:1;fill-rule:nonzero;stroke:none;stroke-width:5;marker:none;visibility:visible;display:inline;overflow:visible;enable-background:accumulate;font-family:Calibri;-inkscape-font-specification:Calibri" />
    <g
       transform="translate(-1.4925373,-0.99502488)"
       id="text5511"
       style="font-size:60px;font-style:normal;font-variant:normal;font-weight:normal;font-stretch:normal;text-align:start;line-height:125%;writing-mode:lr-tb;text-anchor:start;fill:#000000;stroke:none;font-family:Calibri;-inkscape-font-specification:Calibri">
      <path
         d="m 365.25266,274.2829 c -3e-5,0.35156 -0.0245,0.66406 -0.0732,0.9375 -0.0489,0.27344 -0.11721,0.50293 -0.20508,0.68847 -0.0879,0.18555 -0.2051,0.32227 -0.35156,0.41016 -0.14651,0.0879 -0.30764,0.13184 -0.4834,0.13184 l -20.94726,0 c -0.27344,0 -0.5127,-0.0342 -0.71778,-0.10254 -0.20508,-0.0684 -0.38086,-0.18067 -0.52734,-0.33692 -0.14649,-0.15625 -0.25391,-0.38085 -0.32226,-0.67382 -0.0684,-0.29297 -0.10255,-0.6543 -0.10254,-1.08399 -1e-5,-0.39062 0.0146,-0.73242 0.0439,-1.02539 0.0293,-0.29296 0.0928,-0.55175 0.19043,-0.77637 0.0977,-0.2246 0.21972,-0.44921 0.36621,-0.67382 0.14648,-0.22461 0.33691,-0.46387 0.57129,-0.71778 l 7.35352,-7.79297 c 1.6992,-1.79686 3.06151,-3.40818 4.08691,-4.83398 1.02537,-1.42576 1.81639,-2.72459 2.37305,-3.89649 0.55662,-1.17185 0.92283,-2.2363 1.09863,-3.19336 0.17576,-0.957 0.26365,-1.85544 0.26367,-2.69531 -2e-5,-0.83981 -0.13674,-1.63571 -0.41015,-2.38769 -0.27346,-0.75193 -0.66897,-1.4111 -1.18653,-1.97754 -0.51759,-0.56638 -1.16701,-1.01559 -1.94824,-1.34766 -0.78126,-0.332 -1.6797,-0.49801 -2.69531,-0.49805 -1.19142,4e-5 -2.26076,0.16605 -3.20801,0.49805 -0.94727,0.33207 -1.77735,0.69339 -2.49023,1.08399 -0.7129,0.39065 -1.3086,0.75198 -1.78711,1.08398 -0.47852,0.33206 -0.83497,0.49808 -1.06934,0.49805 -0.13672,3e-5 -0.25879,-0.039 -0.36621,-0.11719 -0.10743,-0.0781 -0.19532,-0.20505 -0.26367,-0.38086 -0.0684,-0.17575 -0.12208,-0.41012 -0.16113,-0.70312 -0.0391,-0.29294 -0.0586,-0.6445 -0.0586,-1.05469 0,-0.29294 0.01,-0.54684 0.0293,-0.76172 0.0195,-0.21481 0.0537,-0.40036 0.10254,-0.55664 0.0488,-0.15622 0.1123,-0.3027 0.19043,-0.43945 0.0781,-0.13669 0.23437,-0.30759 0.46875,-0.5127 0.23437,-0.20504 0.63964,-0.48336 1.21582,-0.83496 0.57616,-0.35153 1.29882,-0.69821 2.16797,-1.04004 0.86913,-0.34176 1.82616,-0.62984 2.87109,-0.86426 1.04491,-0.23433 2.14354,-0.35152 3.2959,-0.35156 1.83592,4e-5 3.44236,0.25883 4.81933,0.77637 1.37694,0.51761 2.51951,1.22562 3.42774,2.12402 0.90818,0.89847 1.58689,1.94339 2.03613,3.13477 0.44919,1.19143 0.6738,2.46096 0.67383,3.80859 -3e-5,1.21096 -0.10745,2.41702 -0.32227,3.61816 -0.21486,1.2012 -0.66897,2.50003 -1.3623,3.89649 -0.69338,1.3965 -1.69436,2.94924 -3.00293,4.6582 -1.30861,1.709 -3.04689,3.67677 -5.21484,5.90332 l -6.00586,6.26953 16.49414,0 c 0.15622,1e-5 0.30759,0.0439 0.4541,0.13184 0.14646,0.0879 0.27341,0.21973 0.38086,0.39551 0.10739,0.17578 0.18552,0.39551 0.23437,0.65918 0.0488,0.26367 0.0732,0.57129 0.0732,0.92285 z"
         id="path5953"
         style="fill:#000000;font-family:Calibri;-inkscape-font-specification:Calibri" />
    </g>
  </g>
</svg>
