<?xml version="1.0" encoding="UTF-8" standalone="no"?>
<!-- Created with Inkscape (http://www.inkscape.org/) -->

<svg
   xmlns:svg="http://www.w3.org/2000/svg"
   xmlns="http://www.w3.org/2000/svg"
   version="1.0"
   width="520"
   height="520"
   id="svg8364">
  <defs
     id="defs8366" />
  <path
     d="m 224.8125,28.5 -16.3125,6.125 0,12.21875 -26.53125,9.1875 -5.09375,-4.0625 -5.09375,3.03125 3.0625,6.125 -21.40625,10.21875 -7.15625,-8.15625 -8.15625,13.25 4.09375,6.125 -25.5,13.25 -3.0625,29.5625 -10.1875,0 -9.1875,11.21875 -10.1875,-10.1875 -11.21875,7.125 -1.03125,6.125 11.21875,12.25 -11.21875,21.40625 0,14.28125 1.3125,-1.625 -8.4375,16.90625 20.375,6.125 41.8125,13.28125 0,9.15625 1.03125,8.15625 7.125,2.0625 -10.1875,10.1875 -74.4375,6.125 2.03125,8.15625 -8.15625,1 -1.03125,10.21875 7.15625,3.0625 3.0625,20.375 -10.21875,3.0625 3.0625,8.15625 9.1875,-2.03125 9.1875,25.5 10.1875,-3.0625 13.25,4.09375 4.09375,-8.15625 4.09375,1.625 -2.0625,0.40625 3.0625,8.15625 9.1875,0 7.125,6.125 9.1875,-9.1875 L 141.1875,363 l 9.1875,10.1875 9.1875,-5.09375 5.09375,5.09375 -5.09375,7.15625 14.25,18.34375 74.53125,16.65625 7.0625,8.84375 2.03125,-2.03125 3.0625,-5.09375 24.5,8.15625 -3.0625,6.125 9.15625,13.25 20.40625,1 15.3125,31.625 -6.125,3.0625 3.0625,5.09375 11.21875,-3.0625 5.09375,6.125 6.125,3.0625 8.15625,-4.09375 -3.0625,-9.15625 17.34375,-7.15625 -2.0625,-10.1875 -7.125,2.03125 L 329.84375,414 l 6.125,-7.15625 -3.0625,-4.0625 23.46875,-47.9375 1.75,-6.40625 28.84375,7.4375 38.75,-2.0625 0,-6.09375 7.15625,-4.09375 1,-10.1875 16.3125,-4.09375 -1,-27.53125 7.125,1.03125 4.09375,-12.25 -5.125,-4.09375 3.0625,-14.25 6.125,0 -1,8.15625 13.25,-5.09375 0,-17.34375 L 465.5,252.875 l -5.09375,-5.125 -2.0625,9.1875 -25.46875,-3.0625 0,-6.125 3.03125,-7.125 -5.09375,-5.09375 -6.125,0 1.03125,5.09375 5.09375,0 -5.09375,3.0625 -2.03125,-2.03125 -5.03125,5.84375 -1.09375,-8.90625 -9.1875,-7.15625 -1,-8.15625 -5.125,1.03125 0,8.15625 0,8.15625 -5.09375,-1.03125 -7.125,1.03125 -6.125,2.03125 1.03125,-12.21875 3.0625,-7.15625 -7.15625,-1 -10.1875,5.09375 -3.0625,-5.09375 -7.15625,-5.125 -5.09375,5.125 -5.09375,-6.125 33.65625,-44.875 L 369.625,166.1875 357.40625,164.125 285,151.90625 l -0.625,0.40625 -4.5,-9.59375 2.0625,-6.125 -12.25,-14.28125 12.25,-8.15625 -4.09375,-3.0625 -9.1875,1.03125 -1,-22.4375 5.09375,-3.0625 -4.09375,-7.125 0,-16.3125 -1,-5.125 0,-21.40625 -7.15625,-6.125 -6.09375,7.15625 -24.5,2.03125 L 224.8125,28.5 z"
     id="path10953"
     style="opacity:0.1;fill:none;stroke:#000000;stroke-width:17.5;stroke-linecap:round;stroke-linejoin:round;stroke-miterlimit:4;stroke-opacity:1;stroke-dasharray:none;stroke-dashoffset:0" />
  <path
     d="m 224.8125,28.5 -16.3125,6.125 0,12.21875 -26.53125,9.1875 -5.09375,-4.0625 -5.09375,3.03125 3.0625,6.125 -21.40625,10.21875 -7.15625,-8.15625 -8.15625,13.25 4.09375,6.125 -25.5,13.25 -3.0625,29.5625 -10.1875,0 -9.1875,11.21875 -10.1875,-10.1875 -11.21875,7.125 -1.03125,6.125 11.21875,12.25 -11.21875,21.40625 0,14.28125 1.3125,-1.625 -8.4375,16.90625 20.375,6.125 41.8125,13.28125 0,9.15625 1.03125,8.15625 7.125,2.0625 -10.1875,10.1875 -74.4375,6.125 2.03125,8.15625 -8.15625,1 -1.03125,10.21875 7.15625,3.0625 3.0625,20.375 -10.21875,3.0625 3.0625,8.15625 9.1875,-2.03125 9.1875,25.5 10.1875,-3.0625 13.25,4.09375 4.09375,-8.15625 4.09375,1.625 -2.0625,0.40625 3.0625,8.15625 9.1875,0 7.125,6.125 9.1875,-9.1875 L 141.1875,363 l 9.1875,10.1875 9.1875,-5.09375 5.09375,5.09375 -5.09375,7.15625 14.25,18.34375 74.53125,16.65625 7.0625,8.84375 2.03125,-2.03125 3.0625,-5.09375 24.5,8.15625 -3.0625,6.125 9.15625,13.25 20.40625,1 15.3125,31.625 -6.125,3.0625 3.0625,5.09375 11.21875,-3.0625 5.09375,6.125 6.125,3.0625 8.15625,-4.09375 -3.0625,-9.15625 17.34375,-7.15625 -2.0625,-10.1875 -7.125,2.03125 L 329.84375,414 l 6.125,-7.15625 -3.0625,-4.0625 23.46875,-47.9375 1.75,-6.40625 28.84375,7.4375 38.75,-2.0625 0,-6.09375 7.15625,-4.09375 1,-10.1875 16.3125,-4.09375 -1,-27.53125 7.125,1.03125 4.09375,-12.25 -5.125,-4.09375 3.0625,-14.25 6.125,0 -1,8.15625 13.25,-5.09375 0,-17.34375 L 465.5,252.875 l -5.09375,-5.125 -2.0625,9.1875 -25.46875,-3.0625 0,-6.125 3.03125,-7.125 -5.09375,-5.09375 -6.125,0 1.03125,5.09375 5.09375,0 -5.09375,3.0625 -2.03125,-2.03125 -5.03125,5.84375 -1.09375,-8.90625 -9.1875,-7.15625 -1,-8.15625 -5.125,1.03125 0,8.15625 0,8.15625 -5.09375,-1.03125 -7.125,1.03125 -6.125,2.03125 1.03125,-12.21875 3.0625,-7.15625 -7.15625,-1 -10.1875,5.09375 -3.0625,-5.09375 -7.15625,-5.125 -5.09375,5.125 -5.09375,-6.125 33.65625,-44.875 L 369.625,166.1875 357.40625,164.125 285,151.90625 l -0.625,0.40625 -4.5,-9.59375 2.0625,-6.125 -12.25,-14.28125 12.25,-8.15625 -4.09375,-3.0625 -9.1875,1.03125 -1,-22.4375 5.09375,-3.0625 -4.09375,-7.125 0,-16.3125 -1,-5.125 0,-21.40625 -7.15625,-6.125 -6.09375,7.15625 -24.5,2.03125 L 224.8125,28.5 z"
     id="path10951"
     style="opacity:0.1;fill:none;stroke:#000000;stroke-width:12.5;stroke-linecap:round;stroke-linejoin:round;stroke-miterlimit:4;stroke-opacity:1;stroke-dasharray:none;stroke-dashoffset:0" />
  <path
     d="m 224.8125,28.5 -16.3125,6.125 0,12.21875 -26.53125,9.1875 -5.09375,-4.0625 -5.09375,3.03125 3.0625,6.125 -21.40625,10.21875 -7.15625,-8.15625 -8.15625,13.25 4.09375,6.125 -25.5,13.25 -3.0625,29.5625 -10.1875,0 -9.1875,11.21875 -10.1875,-10.1875 -11.21875,7.125 -1.03125,6.125 11.21875,12.25 -11.21875,21.40625 0,14.28125 1.3125,-1.625 -8.4375,16.90625 20.375,6.125 41.8125,13.28125 0,9.15625 1.03125,8.15625 7.125,2.0625 -10.1875,10.1875 -74.4375,6.125 2.03125,8.15625 -8.15625,1 -1.03125,10.21875 7.15625,3.0625 3.0625,20.375 -10.21875,3.0625 3.0625,8.15625 9.1875,-2.03125 9.1875,25.5 10.1875,-3.0625 13.25,4.09375 4.09375,-8.15625 4.09375,1.625 -2.0625,0.40625 3.0625,8.15625 9.1875,0 7.125,6.125 9.1875,-9.1875 L 141.1875,363 l 9.1875,10.1875 9.1875,-5.09375 5.09375,5.09375 -5.09375,7.15625 14.25,18.34375 74.53125,16.65625 7.0625,8.84375 2.03125,-2.03125 3.0625,-5.09375 24.5,8.15625 -3.0625,6.125 9.15625,13.25 20.40625,1 15.3125,31.625 -6.125,3.0625 3.0625,5.09375 11.21875,-3.0625 5.09375,6.125 6.125,3.0625 8.15625,-4.09375 -3.0625,-9.15625 17.34375,-7.15625 -2.0625,-10.1875 -7.125,2.03125 L 329.84375,414 l 6.125,-7.15625 -3.0625,-4.0625 23.46875,-47.9375 1.75,-6.40625 28.84375,7.4375 38.75,-2.0625 0,-6.09375 7.15625,-4.09375 1,-10.1875 16.3125,-4.09375 -1,-27.53125 7.125,1.03125 4.09375,-12.25 -5.125,-4.09375 3.0625,-14.25 6.125,0 -1,8.15625 13.25,-5.09375 0,-17.34375 L 465.5,252.875 l -5.09375,-5.125 -2.0625,9.1875 -25.46875,-3.0625 0,-6.125 3.03125,-7.125 -5.09375,-5.09375 -6.125,0 1.03125,5.09375 5.09375,0 -5.09375,3.0625 -2.03125,-2.03125 -5.03125,5.84375 -1.09375,-8.90625 -9.1875,-7.15625 -1,-8.15625 -5.125,1.03125 0,8.15625 0,8.15625 -5.09375,-1.03125 -7.125,1.03125 -6.125,2.03125 1.03125,-12.21875 3.0625,-7.15625 -7.15625,-1 -10.1875,5.09375 -3.0625,-5.09375 -7.15625,-5.125 -5.09375,5.125 -5.09375,-6.125 33.65625,-44.875 L 369.625,166.1875 357.40625,164.125 285,151.90625 l -0.625,0.40625 -4.5,-9.59375 2.0625,-6.125 -12.25,-14.28125 12.25,-8.15625 -4.09375,-3.0625 -9.1875,1.03125 -1,-22.4375 5.09375,-3.0625 -4.09375,-7.125 0,-16.3125 -1,-5.125 0,-21.40625 -7.15625,-6.125 -6.09375,7.15625 -24.5,2.03125 L 224.8125,28.5 z"
     id="path10938"
     style="opacity:0.1;fill:none;stroke:#000000;stroke-width:7.5;stroke-linecap:round;stroke-linejoin:round;stroke-miterlimit:4;stroke-opacity:1;stroke-dasharray:none;stroke-dashoffset:0" />
  <path
     d="m 224.81252,28.499861 -16.3125,6.125 0,12.21875 -26.53125,9.1875 -5.09375,-4.0625 -5.09375,3.03125 3.0625,6.124999 -21.40625,10.21875 -7.15625,-8.15625 -8.15625,13.25 4.09375,6.125 -25.5,13.25 -3.0625,29.5625 -10.1875,0 -9.1875,11.21875 -10.1875,-10.1875 -11.21875,7.125 -1.03125,6.125 11.21875,12.25 -11.21875,21.40625 0,14.28125 17.34375,-21.40625 45.875,0 62.21875,38.75 20.40625,28.5625 10.1875,26.5 -7.125,6.125 40.1875,1.78125 -3.5,-2.8125 9.1875,-25.5 -2.03125,-7.125 -1.03125,-32.625 7.15625,-12.25 -8.15625,-21.40625 21.8125,-13.875 -4.5,-9.59375 2.0625,-6.125 -12.25,-14.28125 12.25,-8.15625 -4.09375,-3.0625 -9.1875,1.03125 -1,-22.4375 5.09375,-3.0625 -4.09375,-7.125 0,-16.3125 -1,-5.124999 0,-21.40625 -7.15625,-6.125 -6.09375,7.15625 -24.5,2.03125 -5.09375,-11.21875 z"
     id="path8785"
     style="fill:#d4e5b6;fill-opacity:1;stroke:#ffffff;stroke-width:2.5;stroke-linecap:round;stroke-linejoin:round;stroke-miterlimit:4;stroke-opacity:1;stroke-dasharray:none;stroke-dashoffset:0" />
  <path
     d="m 285.00002,151.90611 -22.4375,14.28125 8.15625,21.40625 -7.15625,12.25 1.03125,32.625 2.03125,7.125 -9.1875,25.5 6.09375,4.875 11.25,-0.78125 9.1875,1 2.03125,3.0625 26.53125,3.0625 23.4375,-4.0625 81.59375,-23.46875 1.09375,-1.28125 -1.09375,-8.90625 -9.1875,-7.15625 -1,-8.15625 -5.125,1.03125 0,8.15625 0,8.15625 -5.09375,-1.03125 -7.125,1.03125 -6.125,2.03125 1.03125,-12.21875 3.0625,-7.15625 -7.15625,-1 -10.1875,5.09375 -3.0625,-5.09375 -7.15625,-5.125 -5.09375,5.125 -5.09375,-6.125 33.65625,-44.875 -14.28125,-5.09375 -12.21875,-2.0625 -72.40625,-12.21875 z"
     id="path8837"
     style="fill:#d4e5b6;fill-opacity:1;stroke:#ffffff;stroke-width:2.5;stroke-linecap:round;stroke-linejoin:round;stroke-miterlimit:4;stroke-opacity:1;stroke-dasharray:none;stroke-dashoffset:0" />
  <path
     d="m 424.68752,235.53111 1.03125,5.09375 5.09375,0 -5.09375,3.0625 -2.03125,-2.03125 -6.125,7.125 -81.59375,23.46875 -23.4375,4.0625 -26.53125,-3.0625 -2.03125,-3.0625 -9.1875,-1 -14.28125,1 -5.90625,13.4375 1.84375,-3.21875 5.09375,1 7.125,7.15625 5.125,0 4.0625,8.15625 3.0625,10.1875 7.125,7.15625 6.125,10.1875 32.65625,12.25 32.625,7.125 -1.3125,4.8125 28.84375,7.4375 38.75,-2.0625 0,-6.09375 7.15625,-4.09375 1,-10.1875 16.3125,-4.09375 -1,-27.53125 7.125,1.03125 4.09375,-12.25 -5.125,-4.09375 3.0625,-14.25 6.125,0 -1,8.15625 13.25,-5.09375 0,-17.34375 -11.21875,-5.09375 -5.09375,-5.125 -2.0625,9.1875 -25.46875,-3.0625 0,-6.125 3.03125,-7.125 -5.09375,-5.09375 -6.125,0 z"
     id="path8860"
     style="fill:#d4e5b6;fill-opacity:1;stroke:#ffffff;stroke-width:2.5;stroke-linecap:round;stroke-linejoin:round;stroke-miterlimit:4;stroke-opacity:1;stroke-dasharray:none;stroke-dashoffset:0" />
  <path
     d="m 368.61143,471.10363 -17.33703,7.13879 3.05943,9.17841 -8.15873,4.07931 -6.11887,-3.05948 -5.099,-6.11894 -11.21816,3.05946 -3.05943,-5.0991 6.11886,-3.05948 -15.29731,-31.61459 -20.39645,-1.01982 -9.17845,-13.25772 3.05943,-6.11895 -24.47575,-8.1586 -3.05958,5.09912 -2.03957,2.03965 -8.15858,-10.19826 -3.05959,0 5.09916,-33.65421 -1.01971,-9.17843 8.15843,-26.51546 -3.05943,-13.25772 -5.099,-7.13876 -6.11917,-3.05948 5.09931,-12.23791 -4.07945,-11.21807 9.17845,-10.19826 4.07929,-7.13877 5.0993,1.01982 7.13873,7.13878 5.099,0 4.07944,8.1586 3.05943,10.19824 7.13872,7.13879 6.11902,10.19826 32.63433,12.23789 32.63448,7.13878 -3.05958,11.21807 -23.45604,47.93178 3.05958,4.07929 -6.11901,7.13877 29.57505,48.9516 7.13873,-2.03964 2.03972,10.19824 z"
     id="path8883"
     style="fill:#d4e5b6;fill-opacity:1;stroke:#ffffff;stroke-width:2.5;stroke-linecap:round;stroke-linejoin:round;stroke-miterlimit:4;stroke-opacity:1;stroke-dasharray:none;stroke-dashoffset:0" />
  <path
     d="m 89.18752,166.18736 -16.03125,19.78125 -8.4375,16.90625 20.375,6.125 41.8125,13.28125 0,9.15625 1.03125,8.15625 7.125,2.0625 -10.1875,10.1875 -74.437499,6.125 2.03125,8.15625 -8.15625,1 -1.03125,10.21875 7.15625,3.0625 3.0625,20.375 -10.21875,3.0625 3.0625,8.15625 9.1875,-2.03125 9.187499,25.5 10.1875,-3.0625 13.25,4.09375 4.09375,-8.15625 4.09375,1.625 87.6875,-16.9375 13.25,-5.09375 4.09375,-28.5625 -2.0625,-8.15625 14.28125,-9.1875 7.15625,5.09375 1.34375,-0.9375 -1.34375,-0.0625 7.125,-6.125 -10.1875,-26.5 -20.40625,-28.5625 -62.21875,-38.75 -45.875,0 z"
     id="path4705-8"
     style="fill:#d4e5b6;fill-opacity:1;stroke:#ffffff;stroke-width:2.5;stroke-linecap:round;stroke-linejoin:round;stroke-miterlimit:4;stroke-opacity:1;stroke-dasharray:none;stroke-dashoffset:0" />
  <path
     d="m 213.59377,262.03111 -14.28125,9.1875 2.0625,8.15625 -4.09375,28.5625 -13.25,5.09375 -89.75,17.34375 3.0625,8.15625 9.1875,0 7.125,6.125 9.1875,-9.1875 18.34375,27.53125 9.1875,10.1875 9.1875,-5.09375 5.09375,5.09375 -5.09375,7.15625 14.25,18.34375 74.53125,16.65625 -1.09375,-1.34375 -3.0625,0 5.09375,-33.65625 -1,-9.1875 8.15625,-26.5 -3.0625,-13.28125 -5.09375,-7.125 -6.125,-3.0625 5.09375,-12.25 -4.0625,-11.21875 9.15625,-10.1875 2.25,-3.90625 5.90625,-13.4375 3.03125,-0.21875 -2.59375,-2.0625 -38.84375,-1.71875 -1.34375,0.9375 -7.15625,-5.09375 z"
     id="path11065"
     style="fill:#0A7A27;fill-opacity:1;stroke:#000000;stroke-width:7.5;stroke-linecap:round;stroke-linejoin:round;stroke-miterlimit:4;stroke-opacity:1;stroke-dasharray:none;stroke-dashoffset:0" />
  <path
     d="m 213.59377,262.03111 -14.28125,9.1875 2.0625,8.15625 -4.09375,28.5625 -13.25,5.09375 -89.75,17.34375 3.0625,8.15625 9.1875,0 7.125,6.125 9.1875,-9.1875 18.34375,27.53125 9.1875,10.1875 9.1875,-5.09375 5.09375,5.09375 -5.09375,7.15625 14.25,18.34375 74.53125,16.65625 -1.09375,-1.34375 -3.0625,0 5.09375,-33.65625 -1,-9.1875 8.15625,-26.5 -3.0625,-13.28125 -5.09375,-7.125 -6.125,-3.0625 5.09375,-12.25 -4.0625,-11.21875 9.15625,-10.1875 2.25,-3.90625 5.90625,-13.4375 3.03125,-0.21875 -2.59375,-2.0625 -38.84375,-1.71875 -1.34375,0.9375 -7.15625,-5.09375 z"
     id="path8895"
     style="fill:#0A7A27;fill-opacity:1;stroke:#ffffff;stroke-width:2.5;stroke-linecap:round;stroke-linejoin:round;stroke-miterlimit:4;stroke-opacity:1;stroke-dasharray:none;stroke-dashoffset:0" />
  <g
     transform="translate(-40,-40)"
     id="g5989">
    <path
       d="m 239.39132,367.78374 c -1.48577,10e-5 -3.48796,0.53711 -4.875,1.96875 -1.49777,1.54624 -1.87501,3.51011 -1.875,4.9375 l 0,15.4375 c -1e-5,1.26322 -0.15075,2.8525 1.6875,4.84375 1.54904,1.67829 3.52299,2.00005 4.84375,2 1.00543,3e-5 2.01213,-0.0755 3.0625,-0.21875 0.55295,-0.0754 1.37872,-0.12498 2.40625,-0.125 1.37932,2e-5 2.4417,0.11044 3.125,0.28125 0.68632,0.17159 1.02745,0.36857 1.15625,0.46875 0.13665,0.10629 0.12099,0.11924 0.1875,0.28125 0.0906,0.22081 0.21874,0.62572 0.21875,1.3125 -1e-5,0.92735 -0.16439,1.4333 -0.25,1.625 -0.17072,0.38225 -0.30415,0.55433 -0.5,0.71875 -0.2177,0.18276 -0.49967,0.35705 -1,0.5 -0.58731,0.1678 -1.30819,0.28125 -2.21875,0.28125 -1.10533,0 -1.96105,-0.12428 -2.46875,-0.25 -0.85961,-0.21285 -1.4962,-0.43902 -1.875,-0.59375 -0.54723,-0.22351 -0.92381,-0.39215 -1,-0.4375 -0.70987,-0.42253 -1.19022,-1.06243 -3.46875,-1.0625 -1.08895,5e-5 -2.35781,0.39094 -3.28125,1.0625 -1.00348,0.72983 -1.54959,1.58975 -1.875,2.28125 -0.40984,0.87089 -0.52331,1.5847 -0.59375,2.21875 -0.0547,0.49265 -0.0937,0.95839 -0.0937,1.4375 0,0.44418 0.0294,0.88259 0.0625,1.3125 0.0376,0.48854 0.0886,1.00131 0.28125,1.65625 0.11174,0.37995 0.26743,0.78489 0.5,1.25 0.45614,0.91235 0.91939,1.38519 1.34375,1.78125 1.29262,1.20649 1.70618,1.15761 2.40625,1.46875 0.81783,0.36349 1.66617,0.65214 2.625,0.9375 1.08485,0.32288 2.23885,0.58766 3.46875,0.78125 1.33567,0.21025 2.68576,0.3125 4.09375,0.3125 2.55689,0 5.01206,-0.33994 7.3125,-1.09375 2.2865,-0.74925 4.40133,-1.91983 6.1875,-3.46875 1.81872,-1.57719 3.25991,-3.5623 4.21875,-5.78125 0.99261,-2.29725 1.43747,-4.81414 1.4375,-7.40625 -4e-5,-2.20604 -0.38887,-4.39694 -1.21875,-6.40625 -0.83605,-2.02399 -2.132,-3.83995 -3.78125,-5.28125 -1.67415,-1.46293 -3.65715,-2.49931 -5.8125,-3.1875 -2.10469,-0.67194 -4.38454,-0.96646 -6.78125,-1 l 0,-0.46875 9.15625,0 c 2.20376,2.1e-4 4.54931,-1.87992 5.28125,-3.34375 0.73195,-1.46396 0.81246,-2.70899 0.8125,-3.875 -4e-5,-0.59019 -0.0388,-1.1854 -0.15625,-1.84375 -0.11766,-0.65847 -0.29019,-1.39072 -0.75,-2.21875 -0.44118,-0.79375 -1.20124,-1.65789 -2.1875,-2.25 -0.81849,-0.4908 -1.90692,-0.84348 -3,-0.84375 l -16.8125,0 -5e-5,0 z"
       id="text5461"
       style="font-size:60px;font-style:normal;font-variant:normal;font-weight:normal;font-stretch:normal;text-indent:0;text-align:start;text-decoration:none;line-height:125%;letter-spacing:normal;word-spacing:normal;text-transform:none;direction:ltr;block-progression:tb;writing-mode:lr-tb;text-anchor:start;opacity:0.5;color:#000000;fill:#ffffff;fill-opacity:1;fill-rule:nonzero;stroke:none;stroke-width:10;marker:none;visibility:visible;display:inline;overflow:visible;enable-background:accumulate;font-family:Calibri;-inkscape-font-specification:Calibri" />
    <path
       d="m 239.39132,370.28374 c -1.02609,7e-5 -2.24886,0.3467 -3.09375,1.21875 -0.90025,0.92939 -1.15626,2.15156 -1.15625,3.1875 l 0,15.4375 c -1e-5,0.99295 -0.005,2.03368 1.03125,3.15625 0.8917,0.96611 2.06618,1.18753 3,1.1875 0.87381,2e-5 1.79512,-0.0885 2.75,-0.21875 0.70616,-0.0963 1.60928,-0.12498 2.71875,-0.125 1.5295,2e-5 2.80287,0.13824 3.75,0.375 0.94862,0.23717 1.60258,0.54855 2.0625,0.90625 0.46382,0.36077 0.74505,0.76764 0.96875,1.3125 0.23574,0.57428 0.40623,1.30115 0.40625,2.25 -2e-5,1.18634 -0.20135,2.05747 -0.46875,2.65625 -0.30998,0.69406 -0.69408,1.17951 -1.1875,1.59375 -0.50437,0.42341 -1.10922,0.77228 -1.90625,1 -0.84054,0.24015 -1.79668,0.375 -2.90625,0.375 -1.2558,0 -2.29596,-0.12269 -3.0625,-0.3125 -0.9425,-0.23338 -1.68267,-0.46853 -2.21875,-0.6875 -0.6203,-0.25336 -1.10058,-0.48025 -1.34375,-0.625 -0.56002,-0.33333 -0.95058,-0.71871 -2.1875,-0.71875 -0.61283,3e-5 -1.29707,0.21891 -1.8125,0.59375 -0.55545,0.40398 -0.89199,0.88375 -1.09375,1.3125 -0.24398,0.51846 -0.32513,0.98864 -0.375,1.4375 -0.042,0.37816 -0.0625,0.75068 -0.0625,1.15625 0,0.39787 0.005,0.75185 0.0312,1.09375 0.0285,0.37123 0.098,0.74577 0.21875,1.15625 0.0803,0.27298 0.16691,0.5526 0.3125,0.84375 0.25737,0.51477 0.55833,0.82736 0.84375,1.09375 0.71955,0.67161 1.07379,0.72724 1.6875,1 0.67258,0.29893 1.45417,0.579 2.34375,0.84375 0.95258,0.28351 1.9827,0.50769 3.125,0.6875 1.19517,0.18813 2.42881,0.28125 3.71875,0.28125 2.33313,0 4.51676,-0.30864 6.53125,-0.96875 2.0075,-0.65783 3.82566,-1.6523 5.34375,-2.96875 1.53435,-1.33059 2.74127,-3.00576 3.5625,-4.90625 0.83809,-1.93964 1.21872,-4.09456 1.21875,-6.40625 -3e-5,-1.92333 -0.338,-3.75901 -1.03125,-5.4375 -0.69636,-1.68581 -1.75839,-3.18071 -3.125,-4.375 -1.37908,-1.20509 -3.04929,-2.0846 -4.9375,-2.6875 -1.92869,-0.61575 -4.07061,-0.90622 -6.4375,-0.90625 -0.77804,2e-5 -1.42587,0.0178 -2.0625,0.0312 l 0,-5.46875 11.65625,0 c 1.27765,1.2e-4 2.56761,-1.0415 3.03125,-1.96875 0.46362,-0.92727 0.56247,-1.81542 0.5625,-2.75 -3e-5,-0.48062 -0.0106,-0.94034 -0.0937,-1.40625 -0.0833,-0.46593 -0.22128,-0.93557 -0.5,-1.4375 -0.26943,-0.48475 -0.71489,-1.00373 -1.28125,-1.34375 -0.4825,-0.28933 -1.0941,-0.4686 -1.71875,-0.46875 l -16.8125,0 0,5e-5 z"
       id="text5465"
       style="font-size:60px;font-style:normal;font-variant:normal;font-weight:normal;font-stretch:normal;text-indent:0;text-align:start;text-decoration:none;line-height:125%;letter-spacing:normal;word-spacing:normal;text-transform:none;direction:ltr;block-progression:tb;writing-mode:lr-tb;text-anchor:start;color:#000000;fill:#ffffff;fill-opacity:1;fill-rule:nonzero;stroke:none;stroke-width:5;marker:none;visibility:visible;display:inline;overflow:visible;enable-background:accumulate;font-family:Calibri;-inkscape-font-specification:Calibri" />
    <g
       transform="translate(2.9850746,-0.49751244)"
       id="text5469"
       style="font-size:60px;font-style:normal;font-variant:normal;font-weight:normal;font-stretch:normal;text-align:start;line-height:125%;writing-mode:lr-tb;text-anchor:start;fill:#000000;stroke:none;font-family:Calibri;-inkscape-font-specification:Calibri">
      <path
         d="m 256.66185,398.99658 c -3e-5,2.03126 -0.34182,3.8379 -1.02539,5.41992 -0.68362,1.58204 -1.65042,2.91505 -2.90039,3.99903 -1.25002,1.08398 -2.73928,1.90918 -4.46777,2.47558 -1.72854,0.56641 -3.64748,0.84961 -5.75684,0.84961 -1.17189,0 -2.28517,-0.083 -3.33984,-0.24902 -1.0547,-0.16602 -1.9922,-0.37109 -2.8125,-0.61524 -0.82032,-0.24414 -1.49415,-0.48339 -2.02149,-0.71777 -0.52735,-0.23437 -0.86426,-0.41992 -1.01074,-0.55664 -0.14649,-0.13672 -0.24903,-0.26367 -0.30762,-0.38086 -0.0586,-0.11718 -0.11231,-0.25879 -0.16113,-0.4248 -0.0488,-0.16602 -0.083,-0.37598 -0.10254,-0.62989 -0.0195,-0.2539 -0.0293,-0.55663 -0.0293,-0.9082 0,-0.33203 0.0146,-0.62988 0.0439,-0.89355 0.0293,-0.26367 0.083,-0.47851 0.16113,-0.64454 0.0781,-0.16601 0.1709,-0.28808 0.27832,-0.36621 0.10742,-0.0781 0.22949,-0.11718 0.36621,-0.11718 0.19531,0 0.49805,0.12207 0.90821,0.36621 0.41015,0.24414 0.9619,0.50781 1.65527,0.79101 0.69335,0.28321 1.55273,0.55177 2.57812,0.80567 1.02538,0.25391 2.2412,0.38086 3.64746,0.38086 1.30858,0 2.50976,-0.15625 3.60352,-0.46875 1.09373,-0.3125 2.03612,-0.80078 2.82715,-1.46485 0.79099,-0.66405 1.41111,-1.49901 1.86035,-2.50488 0.4492,-1.00585 0.67381,-2.23144 0.67383,-3.67676 -2e-5,-1.21092 -0.19045,-2.28026 -0.57129,-3.20801 -0.38088,-0.92771 -0.96682,-1.6992 -1.75781,-2.31445 -0.79104,-0.61522 -1.79201,-1.0742 -3.00293,-1.37695 -1.21096,-0.30272 -2.65627,-0.45408 -4.33594,-0.4541 -1.19142,2e-5 -2.21681,0.0586 -3.07617,0.17578 -0.85938,0.1172 -1.66017,0.1758 -2.40235,0.17578 -0.54688,2e-5 -0.9375,-0.12694 -1.17187,-0.38086 -0.23438,-0.25389 -0.35157,-0.74217 -0.35156,-1.46484 l 0,-15.43946 c -1e-5,-0.64449 0.15136,-1.12301 0.4541,-1.43554 0.30273,-0.31247 0.7373,-0.46872 1.30371,-0.46875 l 16.78711,0 c 0.15623,3e-5 0.30759,0.044 0.4541,0.13183 0.14646,0.0879 0.26853,0.21977 0.36621,0.39551 0.0976,0.17582 0.17088,0.40043 0.21973,0.67383 0.0488,0.27347 0.0732,0.59574 0.0732,0.96679 -2e-5,0.70316 -0.0977,1.25004 -0.29297,1.64063 -0.19534,0.39066 -0.46877,0.58597 -0.82031,0.58594 l -14.15039,0 0,10.63476 c 0.68358,-0.0976 1.38182,-0.15622 2.09472,-0.17578 0.71288,-0.0195 1.53808,-0.0293 2.47559,-0.0293 2.16795,3e-5 4.06248,0.25882 5.68359,0.77637 1.62108,0.5176 2.97361,1.25002 4.05762,2.19727 1.08396,0.94728 1.90427,2.09474 2.46094,3.44238 0.55661,1.34767 0.83493,2.84181 0.83496,4.48242 z"
         id="path5947"
         style="fill:#000000;font-family:Calibri;-inkscape-font-specification:Calibri" />
    </g>
  </g>
</svg>
