<?xml version="1.0" encoding="UTF-8" standalone="no"?>
<!-- Created with Inkscape (http://www.inkscape.org/) -->

<svg
   xmlns:svg="http://www.w3.org/2000/svg"
   xmlns="http://www.w3.org/2000/svg"
   version="1.0"
   width="520"
   height="520"
   id="svg8364">
  <defs
     id="defs8366" />
  <path
     d="m 224.8125,28.5 -16.3125,6.125 0,12.21875 -26.53125,9.1875 -5.09375,-4.0625 -5.09375,3.03125 3.0625,6.125 -21.40625,10.21875 -7.15625,-8.15625 -8.15625,13.25 4.09375,6.125 -25.5,13.25 -3.0625,29.5625 -10.1875,0 -9.1875,11.21875 -10.1875,-10.1875 -11.21875,7.125 -1.03125,6.125 11.21875,12.25 -11.21875,21.40625 0,14.28125 1.3125,-1.625 -8.4375,16.90625 20.375,6.125 41.8125,13.28125 0,9.15625 1.03125,8.15625 7.125,2.0625 -10.1875,10.1875 -74.4375,6.125 2.03125,8.15625 -8.15625,1 -1.03125,10.21875 7.15625,3.0625 3.0625,20.375 -10.21875,3.0625 3.0625,8.15625 9.1875,-2.03125 9.1875,25.5 10.1875,-3.0625 13.25,4.09375 4.09375,-8.15625 4.09375,1.625 -2.0625,0.40625 3.0625,8.15625 9.1875,0 7.125,6.125 9.1875,-9.1875 L 141.1875,363 l 9.1875,10.1875 9.1875,-5.09375 5.09375,5.09375 -5.09375,7.15625 14.25,18.34375 74.53125,16.65625 7.0625,8.84375 2.03125,-2.03125 3.0625,-5.09375 24.5,8.15625 -3.0625,6.125 9.15625,13.25 20.40625,1 15.3125,31.625 -6.125,3.0625 3.0625,5.09375 11.21875,-3.0625 5.09375,6.125 6.125,3.0625 8.15625,-4.09375 -3.0625,-9.15625 17.34375,-7.15625 -2.0625,-10.1875 -7.125,2.03125 L 329.84375,414 l 6.125,-7.15625 -3.0625,-4.0625 23.46875,-47.9375 1.75,-6.40625 28.84375,7.4375 38.75,-2.0625 0,-6.09375 7.15625,-4.09375 1,-10.1875 16.3125,-4.09375 -1,-27.53125 7.125,1.03125 4.09375,-12.25 -5.125,-4.09375 3.0625,-14.25 6.125,0 -1,8.15625 13.25,-5.09375 0,-17.34375 L 465.5,252.875 l -5.09375,-5.125 -2.0625,9.1875 -25.46875,-3.0625 0,-6.125 3.03125,-7.125 -5.09375,-5.09375 -6.125,0 1.03125,5.09375 5.09375,0 -5.09375,3.0625 -2.03125,-2.03125 -5.03125,5.84375 -1.09375,-8.90625 -9.1875,-7.15625 -1,-8.15625 -5.125,1.03125 0,8.15625 0,8.15625 -5.09375,-1.03125 -7.125,1.03125 -6.125,2.03125 1.03125,-12.21875 3.0625,-7.15625 -7.15625,-1 -10.1875,5.09375 -3.0625,-5.09375 -7.15625,-5.125 -5.09375,5.125 -5.09375,-6.125 33.65625,-44.875 L 369.625,166.1875 357.40625,164.125 285,151.90625 l -0.625,0.40625 -4.5,-9.59375 2.0625,-6.125 -12.25,-14.28125 12.25,-8.15625 -4.09375,-3.0625 -9.1875,1.03125 -1,-22.4375 5.09375,-3.0625 -4.09375,-7.125 0,-16.3125 -1,-5.125 0,-21.40625 -7.15625,-6.125 -6.09375,7.15625 -24.5,2.03125 L 224.8125,28.5 z"
     id="path10953"
     style="opacity:0.1;fill:none;stroke:#000000;stroke-width:17.5;stroke-linecap:round;stroke-linejoin:round;stroke-miterlimit:4;stroke-opacity:1;stroke-dasharray:none;stroke-dashoffset:0" />
  <path
     d="m 224.8125,28.5 -16.3125,6.125 0,12.21875 -26.53125,9.1875 -5.09375,-4.0625 -5.09375,3.03125 3.0625,6.125 -21.40625,10.21875 -7.15625,-8.15625 -8.15625,13.25 4.09375,6.125 -25.5,13.25 -3.0625,29.5625 -10.1875,0 -9.1875,11.21875 -10.1875,-10.1875 -11.21875,7.125 -1.03125,6.125 11.21875,12.25 -11.21875,21.40625 0,14.28125 1.3125,-1.625 -8.4375,16.90625 20.375,6.125 41.8125,13.28125 0,9.15625 1.03125,8.15625 7.125,2.0625 -10.1875,10.1875 -74.4375,6.125 2.03125,8.15625 -8.15625,1 -1.03125,10.21875 7.15625,3.0625 3.0625,20.375 -10.21875,3.0625 3.0625,8.15625 9.1875,-2.03125 9.1875,25.5 10.1875,-3.0625 13.25,4.09375 4.09375,-8.15625 4.09375,1.625 -2.0625,0.40625 3.0625,8.15625 9.1875,0 7.125,6.125 9.1875,-9.1875 L 141.1875,363 l 9.1875,10.1875 9.1875,-5.09375 5.09375,5.09375 -5.09375,7.15625 14.25,18.34375 74.53125,16.65625 7.0625,8.84375 2.03125,-2.03125 3.0625,-5.09375 24.5,8.15625 -3.0625,6.125 9.15625,13.25 20.40625,1 15.3125,31.625 -6.125,3.0625 3.0625,5.09375 11.21875,-3.0625 5.09375,6.125 6.125,3.0625 8.15625,-4.09375 -3.0625,-9.15625 17.34375,-7.15625 -2.0625,-10.1875 -7.125,2.03125 L 329.84375,414 l 6.125,-7.15625 -3.0625,-4.0625 23.46875,-47.9375 1.75,-6.40625 28.84375,7.4375 38.75,-2.0625 0,-6.09375 7.15625,-4.09375 1,-10.1875 16.3125,-4.09375 -1,-27.53125 7.125,1.03125 4.09375,-12.25 -5.125,-4.09375 3.0625,-14.25 6.125,0 -1,8.15625 13.25,-5.09375 0,-17.34375 L 465.5,252.875 l -5.09375,-5.125 -2.0625,9.1875 -25.46875,-3.0625 0,-6.125 3.03125,-7.125 -5.09375,-5.09375 -6.125,0 1.03125,5.09375 5.09375,0 -5.09375,3.0625 -2.03125,-2.03125 -5.03125,5.84375 -1.09375,-8.90625 -9.1875,-7.15625 -1,-8.15625 -5.125,1.03125 0,8.15625 0,8.15625 -5.09375,-1.03125 -7.125,1.03125 -6.125,2.03125 1.03125,-12.21875 3.0625,-7.15625 -7.15625,-1 -10.1875,5.09375 -3.0625,-5.09375 -7.15625,-5.125 -5.09375,5.125 -5.09375,-6.125 33.65625,-44.875 L 369.625,166.1875 357.40625,164.125 285,151.90625 l -0.625,0.40625 -4.5,-9.59375 2.0625,-6.125 -12.25,-14.28125 12.25,-8.15625 -4.09375,-3.0625 -9.1875,1.03125 -1,-22.4375 5.09375,-3.0625 -4.09375,-7.125 0,-16.3125 -1,-5.125 0,-21.40625 -7.15625,-6.125 -6.09375,7.15625 -24.5,2.03125 L 224.8125,28.5 z"
     id="path10951"
     style="opacity:0.1;fill:none;stroke:#000000;stroke-width:12.5;stroke-linecap:round;stroke-linejoin:round;stroke-miterlimit:4;stroke-opacity:1;stroke-dasharray:none;stroke-dashoffset:0" />
  <path
     d="m 224.8125,28.5 -16.3125,6.125 0,12.21875 -26.53125,9.1875 -5.09375,-4.0625 -5.09375,3.03125 3.0625,6.125 -21.40625,10.21875 -7.15625,-8.15625 -8.15625,13.25 4.09375,6.125 -25.5,13.25 -3.0625,29.5625 -10.1875,0 -9.1875,11.21875 -10.1875,-10.1875 -11.21875,7.125 -1.03125,6.125 11.21875,12.25 -11.21875,21.40625 0,14.28125 1.3125,-1.625 -8.4375,16.90625 20.375,6.125 41.8125,13.28125 0,9.15625 1.03125,8.15625 7.125,2.0625 -10.1875,10.1875 -74.4375,6.125 2.03125,8.15625 -8.15625,1 -1.03125,10.21875 7.15625,3.0625 3.0625,20.375 -10.21875,3.0625 3.0625,8.15625 9.1875,-2.03125 9.1875,25.5 10.1875,-3.0625 13.25,4.09375 4.09375,-8.15625 4.09375,1.625 -2.0625,0.40625 3.0625,8.15625 9.1875,0 7.125,6.125 9.1875,-9.1875 L 141.1875,363 l 9.1875,10.1875 9.1875,-5.09375 5.09375,5.09375 -5.09375,7.15625 14.25,18.34375 74.53125,16.65625 7.0625,8.84375 2.03125,-2.03125 3.0625,-5.09375 24.5,8.15625 -3.0625,6.125 9.15625,13.25 20.40625,1 15.3125,31.625 -6.125,3.0625 3.0625,5.09375 11.21875,-3.0625 5.09375,6.125 6.125,3.0625 8.15625,-4.09375 -3.0625,-9.15625 17.34375,-7.15625 -2.0625,-10.1875 -7.125,2.03125 L 329.84375,414 l 6.125,-7.15625 -3.0625,-4.0625 23.46875,-47.9375 1.75,-6.40625 28.84375,7.4375 38.75,-2.0625 0,-6.09375 7.15625,-4.09375 1,-10.1875 16.3125,-4.09375 -1,-27.53125 7.125,1.03125 4.09375,-12.25 -5.125,-4.09375 3.0625,-14.25 6.125,0 -1,8.15625 13.25,-5.09375 0,-17.34375 L 465.5,252.875 l -5.09375,-5.125 -2.0625,9.1875 -25.46875,-3.0625 0,-6.125 3.03125,-7.125 -5.09375,-5.09375 -6.125,0 1.03125,5.09375 5.09375,0 -5.09375,3.0625 -2.03125,-2.03125 -5.03125,5.84375 -1.09375,-8.90625 -9.1875,-7.15625 -1,-8.15625 -5.125,1.03125 0,8.15625 0,8.15625 -5.09375,-1.03125 -7.125,1.03125 -6.125,2.03125 1.03125,-12.21875 3.0625,-7.15625 -7.15625,-1 -10.1875,5.09375 -3.0625,-5.09375 -7.15625,-5.125 -5.09375,5.125 -5.09375,-6.125 33.65625,-44.875 L 369.625,166.1875 357.40625,164.125 285,151.90625 l -0.625,0.40625 -4.5,-9.59375 2.0625,-6.125 -12.25,-14.28125 12.25,-8.15625 -4.09375,-3.0625 -9.1875,1.03125 -1,-22.4375 5.09375,-3.0625 -4.09375,-7.125 0,-16.3125 -1,-5.125 0,-21.40625 -7.15625,-6.125 -6.09375,7.15625 -24.5,2.03125 L 224.8125,28.5 z"
     id="path10938"
     style="opacity:0.1;fill:none;stroke:#000000;stroke-width:7.5;stroke-linecap:round;stroke-linejoin:round;stroke-miterlimit:4;stroke-opacity:1;stroke-dasharray:none;stroke-dashoffset:0" />
  <path
     d="m 224.81252,28.499861 -16.3125,6.125 0,12.21875 -26.53125,9.1875 -5.09375,-4.0625 -5.09375,3.03125 3.0625,6.124999 -21.40625,10.21875 -7.15625,-8.15625 -8.15625,13.25 4.09375,6.125 -25.5,13.25 -3.0625,29.5625 -10.1875,0 -9.1875,11.21875 -10.1875,-10.1875 -11.21875,7.125 -1.03125,6.125 11.21875,12.25 -11.21875,21.40625 0,14.28125 17.34375,-21.40625 45.875,0 62.21875,38.75 20.40625,28.5625 10.1875,26.5 -7.125,6.125 40.1875,1.78125 -3.5,-2.8125 9.1875,-25.5 -2.03125,-7.125 -1.03125,-32.625 7.15625,-12.25 -8.15625,-21.40625 21.8125,-13.875 -4.5,-9.59375 2.0625,-6.125 -12.25,-14.28125 12.25,-8.15625 -4.09375,-3.0625 -9.1875,1.03125 -1,-22.4375 5.09375,-3.0625 -4.09375,-7.125 0,-16.3125 -1,-5.124999 0,-21.40625 -7.15625,-6.125 -6.09375,7.15625 -24.5,2.03125 -5.09375,-11.21875 z"
     id="path8785"
     style="fill:#d4e5b6;fill-opacity:1;stroke:#ffffff;stroke-width:2.5;stroke-linecap:round;stroke-linejoin:round;stroke-miterlimit:4;stroke-opacity:1;stroke-dasharray:none;stroke-dashoffset:0" />
  <path
     d="m 285.00002,151.90611 -22.4375,14.28125 8.15625,21.40625 -7.15625,12.25 1.03125,32.625 2.03125,7.125 -9.1875,25.5 6.09375,4.875 11.25,-0.78125 9.1875,1 2.03125,3.0625 26.53125,3.0625 23.4375,-4.0625 81.59375,-23.46875 1.09375,-1.28125 -1.09375,-8.90625 -9.1875,-7.15625 -1,-8.15625 -5.125,1.03125 0,8.15625 0,8.15625 -5.09375,-1.03125 -7.125,1.03125 -6.125,2.03125 1.03125,-12.21875 3.0625,-7.15625 -7.15625,-1 -10.1875,5.09375 -3.0625,-5.09375 -7.15625,-5.125 -5.09375,5.125 -5.09375,-6.125 33.65625,-44.875 -14.28125,-5.09375 -12.21875,-2.0625 -72.40625,-12.21875 z"
     id="path8837"
     style="fill:#d4e5b6;fill-opacity:1;stroke:#ffffff;stroke-width:2.5;stroke-linecap:round;stroke-linejoin:round;stroke-miterlimit:4;stroke-opacity:1;stroke-dasharray:none;stroke-dashoffset:0" />
  <path
     d="m 424.68752,235.53111 1.03125,5.09375 5.09375,0 -5.09375,3.0625 -2.03125,-2.03125 -6.125,7.125 -81.59375,23.46875 -23.4375,4.0625 -26.53125,-3.0625 -2.03125,-3.0625 -9.1875,-1 -14.28125,1 -5.90625,13.4375 1.84375,-3.21875 5.09375,1 7.125,7.15625 5.125,0 4.0625,8.15625 3.0625,10.1875 7.125,7.15625 6.125,10.1875 32.65625,12.25 32.625,7.125 -1.3125,4.8125 28.84375,7.4375 38.75,-2.0625 0,-6.09375 7.15625,-4.09375 1,-10.1875 16.3125,-4.09375 -1,-27.53125 7.125,1.03125 4.09375,-12.25 -5.125,-4.09375 3.0625,-14.25 6.125,0 -1,8.15625 13.25,-5.09375 0,-17.34375 -11.21875,-5.09375 -5.09375,-5.125 -2.0625,9.1875 -25.46875,-3.0625 0,-6.125 3.03125,-7.125 -5.09375,-5.09375 -6.125,0 z"
     id="path8860"
     style="fill:#d4e5b6;fill-opacity:1;stroke:#ffffff;stroke-width:2.5;stroke-linecap:round;stroke-linejoin:round;stroke-miterlimit:4;stroke-opacity:1;stroke-dasharray:none;stroke-dashoffset:0" />
  <path
     d="m 368.61143,471.10363 -17.33703,7.13879 3.05943,9.17841 -8.15873,4.07931 -6.11887,-3.05948 -5.099,-6.11894 -11.21816,3.05946 -3.05943,-5.0991 6.11886,-3.05948 -15.29731,-31.61459 -20.39645,-1.01982 -9.17845,-13.25772 3.05943,-6.11895 -24.47575,-8.1586 -3.05958,5.09912 -2.03957,2.03965 -8.15858,-10.19826 -3.05959,0 5.09916,-33.65421 -1.01971,-9.17843 8.15843,-26.51546 -3.05943,-13.25772 -5.099,-7.13876 -6.11917,-3.05948 5.09931,-12.23791 -4.07945,-11.21807 9.17845,-10.19826 4.07929,-7.13877 5.0993,1.01982 7.13873,7.13878 5.099,0 4.07944,8.1586 3.05943,10.19824 7.13872,7.13879 6.11902,10.19826 32.63433,12.23789 32.63448,7.13878 -3.05958,11.21807 -23.45604,47.93178 3.05958,4.07929 -6.11901,7.13877 29.57505,48.9516 7.13873,-2.03964 2.03972,10.19824 z"
     id="path8883"
     style="fill:#d4e5b6;fill-opacity:1;stroke:#ffffff;stroke-width:2.5;stroke-linecap:round;stroke-linejoin:round;stroke-miterlimit:4;stroke-opacity:1;stroke-dasharray:none;stroke-dashoffset:0" />
  <path
     d="m 213.59377,262.03111 -14.28125,9.1875 2.0625,8.15625 -4.09375,28.5625 -13.25,5.09375 -89.75,17.34375 3.0625,8.15625 9.1875,0 7.125,6.125 9.1875,-9.1875 18.34375,27.53125 9.1875,10.1875 9.1875,-5.09375 5.09375,5.09375 -5.09375,7.15625 14.25,18.34375 74.53125,16.65625 -1.09375,-1.34375 -3.0625,0 5.09375,-33.65625 -1,-9.1875 8.15625,-26.5 -3.0625,-13.28125 -5.09375,-7.125 -6.125,-3.0625 5.09375,-12.25 -4.0625,-11.21875 9.15625,-10.1875 2.25,-3.90625 5.90625,-13.4375 3.03125,-0.21875 -2.59375,-2.0625 -38.84375,-1.71875 -1.34375,0.9375 -7.15625,-5.09375 z"
     id="path8895"
     style="fill:#d4e5b6;fill-opacity:1;stroke:#ffffff;stroke-width:2.5;stroke-linecap:round;stroke-linejoin:round;stroke-miterlimit:4;stroke-opacity:1;stroke-dasharray:none;stroke-dashoffset:0" />
  <path
     d="m 89.18752,166.18736 -16.03125,19.78125 -8.4375,16.90625 20.375,6.125 41.8125,13.28125 0,9.15625 1.03125,8.15625 7.125,2.0625 -10.1875,10.1875 -74.437499,6.125 2.03125,8.15625 -8.15625,1 -1.03125,10.21875 7.15625,3.0625 3.0625,20.375 -10.21875,3.0625 3.0625,8.15625 9.1875,-2.03125 9.187499,25.5 10.1875,-3.0625 13.25,4.09375 4.09375,-8.15625 4.09375,1.625 87.6875,-16.9375 13.25,-5.09375 4.09375,-28.5625 -2.0625,-8.15625 14.28125,-9.1875 7.15625,5.09375 1.34375,-0.9375 -1.34375,-0.0625 7.125,-6.125 -10.1875,-26.5 -20.40625,-28.5625 -62.21875,-38.75 -45.875,0 z"
     id="path11067"
     style="fill:#0A7A27;fill-opacity:1;stroke:#000000;stroke-width:7.5;stroke-linecap:round;stroke-linejoin:round;stroke-miterlimit:4;stroke-opacity:1;stroke-dasharray:none;stroke-dashoffset:0" />
  <path
     d="m 89.18752,166.18736 -16.03125,19.78125 -8.4375,16.90625 20.375,6.125 41.8125,13.28125 0,9.15625 1.03125,8.15625 7.125,2.0625 -10.1875,10.1875 -74.437499,6.125 2.03125,8.15625 -8.15625,1 -1.03125,10.21875 7.15625,3.0625 3.0625,20.375 -10.21875,3.0625 3.0625,8.15625 9.1875,-2.03125 9.187499,25.5 10.1875,-3.0625 13.25,4.09375 4.09375,-8.15625 4.09375,1.625 87.6875,-16.9375 13.25,-5.09375 4.09375,-28.5625 -2.0625,-8.15625 14.28125,-9.1875 7.15625,5.09375 1.34375,-0.9375 -1.34375,-0.0625 7.125,-6.125 -10.1875,-26.5 -20.40625,-28.5625 -62.21875,-38.75 -45.875,0 z"
     id="path4705-8"
     style="fill:#0A7A27;fill-opacity:1;stroke:#ffffff;stroke-width:2.5;stroke-linecap:round;stroke-linejoin:round;stroke-miterlimit:4;stroke-opacity:1;stroke-dasharray:none;stroke-dashoffset:0" />
  <g
     transform="translate(-40,-40)"
     id="g5983">
    <path
       d="m 208.78125,268.625 c -2.60294,5e-5 -5.05864,0.3616 -7.34375,1.1875 -2.12202,0.76704 -4.0813,1.83696 -5.75,3.28125 -1.58963,1.37593 -2.92652,3.04124 -3.96875,4.875 -0.96761,1.70253 -1.7273,3.50356 -2.28125,5.40625 -0.53483,1.83703 -0.91934,3.74515 -1.125,5.6875 -0.19373,1.82964 -0.28125,3.63569 -0.28125,5.4375 0,1.9778 0.0758,3.87092 0.25,5.65625 0.17925,1.8374 0.49455,3.56668 0.9375,5.21875 0.45482,1.6964 1.07494,3.30945 1.90625,4.78125 0.88457,1.56614 2.03391,2.96479 3.4375,4.09375 1.41047,1.13452 3.05677,1.97497 4.78125,2.53125 1.81641,0.58594 3.72519,0.84375 5.71875,0.84375 2.74536,0 5.3635,-0.45053 7.75,-1.5 2.18716,-0.96184 4.1805,-2.33537 5.75,-4.09375 1.51367,-1.69591 2.6345,-3.70644 3.34375,-5.875 0.67141,-2.05308 1.03121,-4.20509 1.03125,-6.375 -4e-5,-1.95827 -0.24497,-3.86658 -0.75,-5.6875 -0.55525,-2.00166 -1.56044,-3.90594 -2.9375,-5.46875 -1.445,-1.63975 -3.2944,-2.85737 -5.3125,-3.65625 -2.17959,-0.86271 -4.52813,-1.18747 -7.03125,-1.1875 -0.53125,10e-6 -1.04163,0.0881 -1.5625,0.125 0.27418,-0.27915 0.52251,-0.59485 0.90625,-0.8125 0.44507,-0.25242 1.08327,-0.46873 2.21875,-0.46875 0.76741,3e-5 1.34889,0.0578 1.71875,0.125 0.60402,0.10985 1.05917,0.23277 1.3125,0.3125 0.47295,0.14893 0.8584,0.27681 1.125,0.375 0.66501,0.24508 1.3177,0.5002 2.59375,0.5 0.91711,1.7e-4 2.21852,-0.22127 3.375,-1.0625 0.98228,-0.71425 1.57513,-1.61827 1.90625,-2.375 0.43186,-0.98727 0.50572,-1.77552 0.53125,-2.4375 0.0131,-0.34206 0.0312,-0.69607 0.0312,-1.09375 -4e-5,-0.3922 -0.0163,-0.77955 -0.0625,-1.21875 -0.0415,-0.39396 -0.1293,-0.79695 -0.25,-1.25 -0.13344,-0.49994 -0.30263,-1.01707 -0.5625,-1.5 -0.44876,-0.83285 -1.05491,-1.45808 -1.625,-1.90625 -1.09487,-0.8598 -1.47469,-0.88447 -2.0625,-1.125 -0.76519,-0.31295 -1.50294,-0.52895 -2.3125,-0.71875 -0.83659,-0.19602 -1.72362,-0.36196 -2.625,-0.46875 -0.93023,-0.11011 -1.85609,-0.1562 -2.78125,-0.15625 z M 206,297.78125 c 0.83454,10e-6 1.30986,0.1177 1.40625,0.15625 0.22084,0.0883 0.14628,0.0955 0.0937,0.0312 0.003,0.004 0.0486,0.0596 0.125,0.375 0.1151,0.47549 0.18748,1.10385 0.1875,1.90625 -1e-5,0.57927 -0.0636,1.11585 -0.21875,1.65625 -0.12023,0.41872 -0.27549,0.70669 -0.5,1 -0.15396,0.20114 -0.29379,0.31557 -0.59375,0.46875 -0.0994,0.0507 -0.34378,0.15625 -0.96875,0.15625 -0.63524,0 -0.92937,-0.0925 -1.0625,-0.15625 0.0558,0.0267 0.0566,0.10483 -0.15625,-0.25 -0.18647,-0.31078 -0.53322,-1.16093 -0.78125,-2.46875 -0.10655,-0.56179 -0.12005,-1.62147 -0.1875,-2.40625 0.42499,-0.14013 0.86554,-0.25973 1.34375,-0.34375 0.44296,-0.0778 0.88253,-0.12499 1.3125,-0.125 z"
       id="text5473"
       style="font-size:60px;font-style:normal;font-variant:normal;font-weight:normal;font-stretch:normal;text-indent:0;text-align:start;text-decoration:none;line-height:125%;letter-spacing:normal;word-spacing:normal;text-transform:none;direction:ltr;block-progression:tb;writing-mode:lr-tb;text-anchor:start;opacity:0.5;color:#000000;fill:#ffffff;fill-opacity:1;fill-rule:nonzero;stroke:none;stroke-width:10;marker:none;visibility:visible;display:inline;overflow:visible;enable-background:accumulate;font-family:Calibri;-inkscape-font-specification:Calibri" />
    <path
       d="m 208.78125,271.125 c -2.3757,4e-5 -4.54691,0.32535 -6.5,1.03125 -1.87156,0.67651 -3.55335,1.61869 -4.96875,2.84375 -1.37587,1.19091 -2.53065,2.59192 -3.4375,4.1875 -0.86955,1.52999 -1.56092,3.18343 -2.0625,4.90625 -0.49202,1.69001 -0.80928,3.41751 -1,5.21875 -0.18476,1.74491 -0.28125,3.47606 -0.28125,5.1875 0,1.90688 0.0848,3.71281 0.25,5.40625 0.16775,1.71949 0.44161,3.34389 0.84375,4.84375 0.40807,1.52203 0.94274,2.92426 1.65625,4.1875 0.74013,1.31041 1.72398,2.44919 2.875,3.375 1.15445,0.92859 2.46979,1.6203 3.9375,2.09375 1.51367,0.48828 3.18095,0.71875 4.96875,0.71875 2.47619,0 4.7462,-0.40007 6.75,-1.28125 1.90412,-0.83736 3.5629,-1.99874 4.875,-3.46875 1.28417,-1.43877 2.23521,-3.13935 2.84375,-5 0.5896,-1.8029 0.90622,-3.67871 0.90625,-5.59375 -3e-5,-1.76038 -0.2182,-3.45184 -0.65625,-5.03125 -0.46319,-1.66976 -1.28316,-3.19417 -2.40625,-4.46875 -1.15708,-1.31303 -2.66284,-2.29098 -4.375,-2.96875 -1.79293,-0.70966 -3.81681,-1.03122 -6.09375,-1.03125 -1.08456,3e-5 -2.12686,0.10718 -3.125,0.28125 -0.93774,0.16358 -1.82442,0.35601 -2.6875,0.625 0.0349,-0.16 0.0241,-0.34174 0.0625,-0.5 0.34115,-1.40622 0.84792,-2.58054 1.5,-3.5625 0.62129,-0.93558 1.36169,-1.63049 2.34375,-2.1875 0.87682,-0.49729 1.9928,-0.81247 3.46875,-0.8125 0.88174,3e-5 1.59533,0.0855 2.15625,0.1875 0.67797,0.1233 1.23465,0.25214 1.625,0.375 0.50014,0.15749 0.93114,0.28881 1.25,0.40625 0.51804,0.19092 0.97329,0.34386 1.71875,0.34375 0.54643,10e-5 1.27429,-0.13406 1.90625,-0.59375 0.54484,-0.39617 0.894,-0.88725 1.09375,-1.34375 0.2501,-0.57174 0.29484,-1.07329 0.3125,-1.53125 0.0114,-0.29796 0.0312,-0.62536 0.0312,-1 -3e-5,-0.3328 -0.0297,-0.65636 -0.0625,-0.96875 -0.0306,-0.28974 -0.0764,-0.57522 -0.15625,-0.875 -0.0863,-0.32319 -0.2109,-0.63254 -0.375,-0.9375 -0.25857,-0.47988 -0.61536,-0.84719 -0.96875,-1.125 6e-5,-0.0104 6e-5,-0.0208 0,-0.0312 -0.61581,-0.48359 -0.92876,-0.54182 -1.4375,-0.75 -0.59745,-0.24435 -1.25148,-0.45684 -1.96875,-0.625 -0.73081,-0.17123 -1.49073,-0.27764 -2.3125,-0.375 -0.83622,-0.099 -1.6761,-0.15621 -2.5,-0.15625 l 5e-5,-5e-5 z M 206,295.28125 c 1.06179,2e-5 1.82484,0.1487 2.3125,0.34375 0.54986,0.21996 0.88758,0.45985 1.125,0.75 0.26526,0.32423 0.4745,0.75345 0.625,1.375 0.16985,0.70162 0.24998,1.5324 0.25,2.5 -2e-5,0.80722 -0.0933,1.58039 -0.3125,2.34375 -0.20173,0.70253 -0.49127,1.30159 -0.90625,1.84375 -0.37973,0.49608 -0.82854,0.87654 -1.4375,1.1875 -0.50867,0.25975 -1.18752,0.40625 -2.125,0.40625 -0.93286,0 -1.63071,-0.15465 -2.15625,-0.40625 -0.43111,-0.20638 -0.80469,-0.52864 -1.21875,-1.21875 -0.40086,-0.66808 -0.80861,-1.77773 -1.09375,-3.28125 -0.21573,-1.13746 -0.28887,-2.79991 -0.34375,-4.5 0.0661,-0.034 0.11923,-0.0602 0.1875,-0.0937 0.5106,-0.25124 1.05425,-0.46599 1.625,-0.65625 0.55354,-0.1845 1.14434,-0.33109 1.75,-0.4375 0.5828,-0.10237 1.14243,-0.15623 1.71875,-0.15625 l 0,-5e-5 z"
       id="text5477"
       style="font-size:60px;font-style:normal;font-variant:normal;font-weight:normal;font-stretch:normal;text-indent:0;text-align:start;text-decoration:none;line-height:125%;letter-spacing:normal;word-spacing:normal;text-transform:none;direction:ltr;block-progression:tb;writing-mode:lr-tb;text-anchor:start;color:#000000;fill:#ffffff;fill-opacity:1;fill-rule:nonzero;stroke:none;stroke-width:5;marker:none;visibility:visible;display:inline;overflow:visible;enable-background:accumulate;font-family:Calibri;-inkscape-font-specification:Calibri" />
    <g
       id="text5481"
       style="font-size:60px;font-style:normal;font-variant:normal;font-weight:normal;font-stretch:normal;text-align:start;line-height:125%;writing-mode:lr-tb;text-anchor:start;fill:#000000;stroke:none;font-family:Calibri;-inkscape-font-specification:Calibri">
      <path
         d="m 217.9254,299.78299 c -3e-5,1.66017 -0.25393,3.26661 -0.76172,4.81934 -0.50784,1.55274 -1.28909,2.91992 -2.34375,4.10156 -1.05471,1.18164 -2.3926,2.12891 -4.01367,2.84179 -1.62111,0.7129 -3.53517,1.06934 -5.74219,1.06934 -1.58204,0 -2.97853,-0.19531 -4.18945,-0.58594 -1.21095,-0.39062 -2.26564,-0.94726 -3.16406,-1.66992 -0.89845,-0.72265 -1.64552,-1.61132 -2.24121,-2.66601 -0.59571,-1.05469 -1.07423,-2.25586 -1.43555,-3.60352 -0.36133,-1.34765 -0.62012,-2.82225 -0.77637,-4.42383 -0.15625,-1.60155 -0.23438,-3.32029 -0.23437,-5.15625 -10e-6,-1.62107 0.0879,-3.2617 0.26367,-4.92187 0.17578,-1.66014 0.48828,-3.2617 0.9375,-4.80469 0.44921,-1.54294 1.05956,-2.99313 1.83105,-4.35059 0.77148,-1.35739 1.73828,-2.53902 2.90039,-3.54492 1.1621,-1.00582 2.5537,-1.80172 4.17481,-2.38769 1.62108,-0.5859 3.50584,-0.87887 5.65429,-0.87891 0.72264,4e-5 1.45506,0.044 2.19727,0.13184 0.74217,0.0879 1.42576,0.20511 2.05078,0.35156 0.62498,0.14652 1.15232,0.30765 1.58203,0.4834 0.42967,0.17582 0.71287,0.31742 0.84961,0.4248 0.1367,0.10746 0.23923,0.22465 0.30762,0.35156 0.0683,0.12699 0.12204,0.26371 0.16113,0.41016 0.039,0.14652 0.0683,0.31254 0.0879,0.49805 0.0195,0.18558 0.0293,0.41507 0.0293,0.68847 -3e-5,0.3516 -0.005,0.65434 -0.0146,0.90821 -0.01,0.25394 -0.0489,0.45902 -0.11719,0.61523 -0.0684,0.15628 -0.15627,0.27347 -0.26367,0.35156 -0.10745,0.0782 -0.24905,0.11722 -0.4248,0.11719 -0.21487,3e-5 -0.50784,-0.0683 -0.87891,-0.20508 -0.37112,-0.13668 -0.82034,-0.28805 -1.34766,-0.4541 -0.52736,-0.16598 -1.16701,-0.31735 -1.91894,-0.4541 -0.75197,-0.13668 -1.626,-0.20504 -2.62207,-0.20508 -1.81642,4e-5 -3.37892,0.37113 -4.6875,1.11328 -1.30861,0.74222 -2.37794,1.73832 -3.20801,2.98828 -0.83009,1.25003 -1.44532,2.70023 -1.8457,4.35059 -0.4004,1.65042 -0.62989,3.37405 -0.68848,5.1709 0.50781,-0.29295 1.07909,-0.58592 1.71387,-0.87891 0.63475,-0.29294 1.32811,-0.55662 2.08008,-0.79101 0.75194,-0.23436 1.54784,-0.42478 2.38769,-0.57129 0.83983,-0.14646 1.73827,-0.21971 2.69531,-0.21973 2.05077,2e-5 3.77928,0.27834 5.18555,0.83496 1.40623,0.55666 2.54392,1.32815 3.41309,2.31446 0.86911,0.98634 1.48923,2.14845 1.86035,3.48632 0.37107,1.33791 0.55661,2.7881 0.55664,4.35059 z m -5.09766,0.46875 c -2e-5,-1.1328 -0.11232,-2.16307 -0.33691,-3.09082 -0.22463,-0.92772 -0.60061,-1.71385 -1.12793,-2.3584 -0.52736,-0.64451 -1.23049,-1.14256 -2.10938,-1.49414 -0.87892,-0.35154 -1.9629,-0.52732 -3.25195,-0.52734 -0.72267,2e-5 -1.44533,0.0635 -2.16797,0.19043 -0.72267,0.12697 -1.42091,0.30275 -2.09472,0.52734 -0.67384,0.22463 -1.31837,0.4883 -1.9336,0.79102 -0.61524,0.30275 -1.17676,0.6299 -1.68457,0.98144 -1e-5,2.51955 0.16113,4.62892 0.4834,6.32813 0.32226,1.69922 0.79101,3.06153 1.40625,4.08691 0.61522,1.0254 1.38183,1.75782 2.29981,2.19727 0.91795,0.43945 1.99217,0.65918 3.22265,0.65918 1.24998,0 2.33397,-0.23438 3.25195,-0.70313 0.91795,-0.46875 1.67967,-1.09863 2.28516,-1.88965 0.60545,-0.79101 1.04978,-1.67968 1.33301,-2.66601 0.28318,-0.98632 0.42478,-1.99706 0.4248,-3.03223 z"
         id="path5950"
         style="fill:#000000;font-family:Calibri;-inkscape-font-specification:Calibri" />
    </g>
  </g>
</svg>
