<?xml version="1.0" encoding="UTF-8" standalone="no"?>
<!-- Created with Inkscape (http://www.inkscape.org/) -->

<svg
   xmlns:svg="http://www.w3.org/2000/svg"
   xmlns="http://www.w3.org/2000/svg"
   version="1.0"
   width="520"
   height="520"
   id="svg8364">
  <defs
     id="defs8366" />
  <path
     d="m 224.8125,28.5 -16.3125,6.125 0,12.21875 -26.53125,9.1875 -5.09375,-4.0625 -5.09375,3.03125 3.0625,6.125 -21.40625,10.21875 -7.15625,-8.15625 -8.15625,13.25 4.09375,6.125 -25.5,13.25 -3.0625,29.5625 -10.1875,0 -9.1875,11.21875 -10.1875,-10.1875 -11.21875,7.125 -1.03125,6.125 11.21875,12.25 -11.21875,21.40625 0,14.28125 1.3125,-1.625 -8.4375,16.90625 20.375,6.125 41.8125,13.28125 0,9.15625 1.03125,8.15625 7.125,2.0625 -10.1875,10.1875 -74.4375,6.125 2.03125,8.15625 -8.15625,1 -1.03125,10.21875 7.15625,3.0625 3.0625,20.375 -10.21875,3.0625 3.0625,8.15625 9.1875,-2.03125 9.1875,25.5 10.1875,-3.0625 13.25,4.09375 4.09375,-8.15625 4.09375,1.625 -2.0625,0.40625 3.0625,8.15625 9.1875,0 7.125,6.125 9.1875,-9.1875 L 141.1875,363 l 9.1875,10.1875 9.1875,-5.09375 5.09375,5.09375 -5.09375,7.15625 14.25,18.34375 74.53125,16.65625 7.0625,8.84375 2.03125,-2.03125 3.0625,-5.09375 24.5,8.15625 -3.0625,6.125 9.15625,13.25 20.40625,1 15.3125,31.625 -6.125,3.0625 3.0625,5.09375 11.21875,-3.0625 5.09375,6.125 6.125,3.0625 8.15625,-4.09375 -3.0625,-9.15625 17.34375,-7.15625 -2.0625,-10.1875 -7.125,2.03125 L 329.84375,414 l 6.125,-7.15625 -3.0625,-4.0625 23.46875,-47.9375 1.75,-6.40625 28.84375,7.4375 38.75,-2.0625 0,-6.09375 7.15625,-4.09375 1,-10.1875 16.3125,-4.09375 -1,-27.53125 7.125,1.03125 4.09375,-12.25 -5.125,-4.09375 3.0625,-14.25 6.125,0 -1,8.15625 13.25,-5.09375 0,-17.34375 L 465.5,252.875 l -5.09375,-5.125 -2.0625,9.1875 -25.46875,-3.0625 0,-6.125 3.03125,-7.125 -5.09375,-5.09375 -6.125,0 1.03125,5.09375 5.09375,0 -5.09375,3.0625 -2.03125,-2.03125 -5.03125,5.84375 -1.09375,-8.90625 -9.1875,-7.15625 -1,-8.15625 -5.125,1.03125 0,8.15625 0,8.15625 -5.09375,-1.03125 -7.125,1.03125 -6.125,2.03125 1.03125,-12.21875 3.0625,-7.15625 -7.15625,-1 -10.1875,5.09375 -3.0625,-5.09375 -7.15625,-5.125 -5.09375,5.125 -5.09375,-6.125 33.65625,-44.875 L 369.625,166.1875 357.40625,164.125 285,151.90625 l -0.625,0.40625 -4.5,-9.59375 2.0625,-6.125 -12.25,-14.28125 12.25,-8.15625 -4.09375,-3.0625 -9.1875,1.03125 -1,-22.4375 5.09375,-3.0625 -4.09375,-7.125 0,-16.3125 -1,-5.125 0,-21.40625 -7.15625,-6.125 -6.09375,7.15625 -24.5,2.03125 L 224.8125,28.5 z"
     id="path10953"
     style="opacity:0.1;fill:none;stroke:#000000;stroke-width:17.5;stroke-linecap:round;stroke-linejoin:round;stroke-miterlimit:4;stroke-opacity:1;stroke-dasharray:none;stroke-dashoffset:0" />
  <path
     d="m 224.8125,28.5 -16.3125,6.125 0,12.21875 -26.53125,9.1875 -5.09375,-4.0625 -5.09375,3.03125 3.0625,6.125 -21.40625,10.21875 -7.15625,-8.15625 -8.15625,13.25 4.09375,6.125 -25.5,13.25 -3.0625,29.5625 -10.1875,0 -9.1875,11.21875 -10.1875,-10.1875 -11.21875,7.125 -1.03125,6.125 11.21875,12.25 -11.21875,21.40625 0,14.28125 1.3125,-1.625 -8.4375,16.90625 20.375,6.125 41.8125,13.28125 0,9.15625 1.03125,8.15625 7.125,2.0625 -10.1875,10.1875 -74.4375,6.125 2.03125,8.15625 -8.15625,1 -1.03125,10.21875 7.15625,3.0625 3.0625,20.375 -10.21875,3.0625 3.0625,8.15625 9.1875,-2.03125 9.1875,25.5 10.1875,-3.0625 13.25,4.09375 4.09375,-8.15625 4.09375,1.625 -2.0625,0.40625 3.0625,8.15625 9.1875,0 7.125,6.125 9.1875,-9.1875 L 141.1875,363 l 9.1875,10.1875 9.1875,-5.09375 5.09375,5.09375 -5.09375,7.15625 14.25,18.34375 74.53125,16.65625 7.0625,8.84375 2.03125,-2.03125 3.0625,-5.09375 24.5,8.15625 -3.0625,6.125 9.15625,13.25 20.40625,1 15.3125,31.625 -6.125,3.0625 3.0625,5.09375 11.21875,-3.0625 5.09375,6.125 6.125,3.0625 8.15625,-4.09375 -3.0625,-9.15625 17.34375,-7.15625 -2.0625,-10.1875 -7.125,2.03125 L 329.84375,414 l 6.125,-7.15625 -3.0625,-4.0625 23.46875,-47.9375 1.75,-6.40625 28.84375,7.4375 38.75,-2.0625 0,-6.09375 7.15625,-4.09375 1,-10.1875 16.3125,-4.09375 -1,-27.53125 7.125,1.03125 4.09375,-12.25 -5.125,-4.09375 3.0625,-14.25 6.125,0 -1,8.15625 13.25,-5.09375 0,-17.34375 L 465.5,252.875 l -5.09375,-5.125 -2.0625,9.1875 -25.46875,-3.0625 0,-6.125 3.03125,-7.125 -5.09375,-5.09375 -6.125,0 1.03125,5.09375 5.09375,0 -5.09375,3.0625 -2.03125,-2.03125 -5.03125,5.84375 -1.09375,-8.90625 -9.1875,-7.15625 -1,-8.15625 -5.125,1.03125 0,8.15625 0,8.15625 -5.09375,-1.03125 -7.125,1.03125 -6.125,2.03125 1.03125,-12.21875 3.0625,-7.15625 -7.15625,-1 -10.1875,5.09375 -3.0625,-5.09375 -7.15625,-5.125 -5.09375,5.125 -5.09375,-6.125 33.65625,-44.875 L 369.625,166.1875 357.40625,164.125 285,151.90625 l -0.625,0.40625 -4.5,-9.59375 2.0625,-6.125 -12.25,-14.28125 12.25,-8.15625 -4.09375,-3.0625 -9.1875,1.03125 -1,-22.4375 5.09375,-3.0625 -4.09375,-7.125 0,-16.3125 -1,-5.125 0,-21.40625 -7.15625,-6.125 -6.09375,7.15625 -24.5,2.03125 L 224.8125,28.5 z"
     id="path10951"
     style="opacity:0.1;fill:none;stroke:#000000;stroke-width:12.5;stroke-linecap:round;stroke-linejoin:round;stroke-miterlimit:4;stroke-opacity:1;stroke-dasharray:none;stroke-dashoffset:0" />
  <path
     d="m 224.8125,28.5 -16.3125,6.125 0,12.21875 -26.53125,9.1875 -5.09375,-4.0625 -5.09375,3.03125 3.0625,6.125 -21.40625,10.21875 -7.15625,-8.15625 -8.15625,13.25 4.09375,6.125 -25.5,13.25 -3.0625,29.5625 -10.1875,0 -9.1875,11.21875 -10.1875,-10.1875 -11.21875,7.125 -1.03125,6.125 11.21875,12.25 -11.21875,21.40625 0,14.28125 1.3125,-1.625 -8.4375,16.90625 20.375,6.125 41.8125,13.28125 0,9.15625 1.03125,8.15625 7.125,2.0625 -10.1875,10.1875 -74.4375,6.125 2.03125,8.15625 -8.15625,1 -1.03125,10.21875 7.15625,3.0625 3.0625,20.375 -10.21875,3.0625 3.0625,8.15625 9.1875,-2.03125 9.1875,25.5 10.1875,-3.0625 13.25,4.09375 4.09375,-8.15625 4.09375,1.625 -2.0625,0.40625 3.0625,8.15625 9.1875,0 7.125,6.125 9.1875,-9.1875 L 141.1875,363 l 9.1875,10.1875 9.1875,-5.09375 5.09375,5.09375 -5.09375,7.15625 14.25,18.34375 74.53125,16.65625 7.0625,8.84375 2.03125,-2.03125 3.0625,-5.09375 24.5,8.15625 -3.0625,6.125 9.15625,13.25 20.40625,1 15.3125,31.625 -6.125,3.0625 3.0625,5.09375 11.21875,-3.0625 5.09375,6.125 6.125,3.0625 8.15625,-4.09375 -3.0625,-9.15625 17.34375,-7.15625 -2.0625,-10.1875 -7.125,2.03125 L 329.84375,414 l 6.125,-7.15625 -3.0625,-4.0625 23.46875,-47.9375 1.75,-6.40625 28.84375,7.4375 38.75,-2.0625 0,-6.09375 7.15625,-4.09375 1,-10.1875 16.3125,-4.09375 -1,-27.53125 7.125,1.03125 4.09375,-12.25 -5.125,-4.09375 3.0625,-14.25 6.125,0 -1,8.15625 13.25,-5.09375 0,-17.34375 L 465.5,252.875 l -5.09375,-5.125 -2.0625,9.1875 -25.46875,-3.0625 0,-6.125 3.03125,-7.125 -5.09375,-5.09375 -6.125,0 1.03125,5.09375 5.09375,0 -5.09375,3.0625 -2.03125,-2.03125 -5.03125,5.84375 -1.09375,-8.90625 -9.1875,-7.15625 -1,-8.15625 -5.125,1.03125 0,8.15625 0,8.15625 -5.09375,-1.03125 -7.125,1.03125 -6.125,2.03125 1.03125,-12.21875 3.0625,-7.15625 -7.15625,-1 -10.1875,5.09375 -3.0625,-5.09375 -7.15625,-5.125 -5.09375,5.125 -5.09375,-6.125 33.65625,-44.875 L 369.625,166.1875 357.40625,164.125 285,151.90625 l -0.625,0.40625 -4.5,-9.59375 2.0625,-6.125 -12.25,-14.28125 12.25,-8.15625 -4.09375,-3.0625 -9.1875,1.03125 -1,-22.4375 5.09375,-3.0625 -4.09375,-7.125 0,-16.3125 -1,-5.125 0,-21.40625 -7.15625,-6.125 -6.09375,7.15625 -24.5,2.03125 L 224.8125,28.5 z"
     id="path10938"
     style="opacity:0.1;fill:none;stroke:#000000;stroke-width:7.5;stroke-linecap:round;stroke-linejoin:round;stroke-miterlimit:4;stroke-opacity:1;stroke-dasharray:none;stroke-dashoffset:0" />
  <path
     d="m 285.00002,151.90611 -22.4375,14.28125 8.15625,21.40625 -7.15625,12.25 1.03125,32.625 2.03125,7.125 -9.1875,25.5 6.09375,4.875 11.25,-0.78125 9.1875,1 2.03125,3.0625 26.53125,3.0625 23.4375,-4.0625 81.59375,-23.46875 1.09375,-1.28125 -1.09375,-8.90625 -9.1875,-7.15625 -1,-8.15625 -5.125,1.03125 0,8.15625 0,8.15625 -5.09375,-1.03125 -7.125,1.03125 -6.125,2.03125 1.03125,-12.21875 3.0625,-7.15625 -7.15625,-1 -10.1875,5.09375 -3.0625,-5.09375 -7.15625,-5.125 -5.09375,5.125 -5.09375,-6.125 33.65625,-44.875 -14.28125,-5.09375 -12.21875,-2.0625 -72.40625,-12.21875 z"
     id="path8837"
     style="fill:#d4e5b6;;fill-opacity:1;stroke:#ffffff;stroke-width:2.5;stroke-linecap:round;stroke-linejoin:round;stroke-miterlimit:4;stroke-opacity:1;stroke-dasharray:none;stroke-dashoffset:0" />
  <path
     d="m 424.68752,235.53111 1.03125,5.09375 5.09375,0 -5.09375,3.0625 -2.03125,-2.03125 -6.125,7.125 -81.59375,23.46875 -23.4375,4.0625 -26.53125,-3.0625 -2.03125,-3.0625 -9.1875,-1 -14.28125,1 -5.90625,13.4375 1.84375,-3.21875 5.09375,1 7.125,7.15625 5.125,0 4.0625,8.15625 3.0625,10.1875 7.125,7.15625 6.125,10.1875 32.65625,12.25 32.625,7.125 -1.3125,4.8125 28.84375,7.4375 38.75,-2.0625 0,-6.09375 7.15625,-4.09375 1,-10.1875 16.3125,-4.09375 -1,-27.53125 7.125,1.03125 4.09375,-12.25 -5.125,-4.09375 3.0625,-14.25 6.125,0 -1,8.15625 13.25,-5.09375 0,-17.34375 -11.21875,-5.09375 -5.09375,-5.125 -2.0625,9.1875 -25.46875,-3.0625 0,-6.125 3.03125,-7.125 -5.09375,-5.09375 -6.125,0 z"
     id="path8860"
     style="fill:#d4e5b6;;fill-opacity:1;stroke:#ffffff;stroke-width:2.5;stroke-linecap:round;stroke-linejoin:round;stroke-miterlimit:4;stroke-opacity:1;stroke-dasharray:none;stroke-dashoffset:0" />
  <path
     d="m 368.61143,471.10363 -17.33703,7.13879 3.05943,9.17841 -8.15873,4.07931 -6.11887,-3.05948 -5.099,-6.11894 -11.21816,3.05946 -3.05943,-5.0991 6.11886,-3.05948 -15.29731,-31.61459 -20.39645,-1.01982 -9.17845,-13.25772 3.05943,-6.11895 -24.47575,-8.1586 -3.05958,5.09912 -2.03957,2.03965 -8.15858,-10.19826 -3.05959,0 5.09916,-33.65421 -1.01971,-9.17843 8.15843,-26.51546 -3.05943,-13.25772 -5.099,-7.13876 -6.11917,-3.05948 5.09931,-12.23791 -4.07945,-11.21807 9.17845,-10.19826 4.07929,-7.13877 5.0993,1.01982 7.13873,7.13878 5.099,0 4.07944,8.1586 3.05943,10.19824 7.13872,7.13879 6.11902,10.19826 32.63433,12.23789 32.63448,7.13878 -3.05958,11.21807 -23.45604,47.93178 3.05958,4.07929 -6.11901,7.13877 29.57505,48.9516 7.13873,-2.03964 2.03972,10.19824 z"
     id="path8883"
     style="fill:#d4e5b6;;fill-opacity:1;stroke:#ffffff;stroke-width:2.5;stroke-linecap:round;stroke-linejoin:round;stroke-miterlimit:4;stroke-opacity:1;stroke-dasharray:none;stroke-dashoffset:0" />
  <path
     d="m 213.59377,262.03111 -14.28125,9.1875 2.0625,8.15625 -4.09375,28.5625 -13.25,5.09375 -89.75,17.34375 3.0625,8.15625 9.1875,0 7.125,6.125 9.1875,-9.1875 18.34375,27.53125 9.1875,10.1875 9.1875,-5.09375 5.09375,5.09375 -5.09375,7.15625 14.25,18.34375 74.53125,16.65625 -1.09375,-1.34375 -3.0625,0 5.09375,-33.65625 -1,-9.1875 8.15625,-26.5 -3.0625,-13.28125 -5.09375,-7.125 -6.125,-3.0625 5.09375,-12.25 -4.0625,-11.21875 9.15625,-10.1875 2.25,-3.90625 5.90625,-13.4375 3.03125,-0.21875 -2.59375,-2.0625 -38.84375,-1.71875 -1.34375,0.9375 -7.15625,-5.09375 z"
     id="path8895"
     style="fill:#d4e5b6;;fill-opacity:1;stroke:#ffffff;stroke-width:2.5;stroke-linecap:round;stroke-linejoin:round;stroke-miterlimit:4;stroke-opacity:1;stroke-dasharray:none;stroke-dashoffset:0" />
  <path
     d="m 89.18752,166.18736 -16.03125,19.78125 -8.4375,16.90625 20.375,6.125 41.8125,13.28125 0,9.15625 1.03125,8.15625 7.125,2.0625 -10.1875,10.1875 -74.437499,6.125 2.03125,8.15625 -8.15625,1 -1.03125,10.21875 7.15625,3.0625 3.0625,20.375 -10.21875,3.0625 3.0625,8.15625 9.1875,-2.03125 9.187499,25.5 10.1875,-3.0625 13.25,4.09375 4.09375,-8.15625 4.09375,1.625 87.6875,-16.9375 13.25,-5.09375 4.09375,-28.5625 -2.0625,-8.15625 14.28125,-9.1875 7.15625,5.09375 1.34375,-0.9375 -1.34375,-0.0625 7.125,-6.125 -10.1875,-26.5 -20.40625,-28.5625 -62.21875,-38.75 -45.875,0 z"
     id="path4705-8"
     style="fill:#d4e5b6;;fill-opacity:1;stroke:#ffffff;stroke-width:2.5;stroke-linecap:round;stroke-linejoin:round;stroke-miterlimit:4;stroke-opacity:1;stroke-dasharray:none;stroke-dashoffset:0" />
  <path
     d="m 224.81252,28.499861 -16.3125,6.125 0,12.21875 -26.53125,9.1875 -5.09375,-4.0625 -5.09375,3.03125 3.0625,6.124999 -21.40625,10.21875 -7.15625,-8.15625 -8.15625,13.25 4.09375,6.125 -25.5,13.25 -3.0625,29.5625 -10.1875,0 -9.1875,11.21875 -10.1875,-10.1875 -11.21875,7.125 -1.03125,6.125 11.21875,12.25 -11.21875,21.40625 0,14.28125 17.34375,-21.40625 45.875,0 62.21875,38.75 20.40625,28.5625 10.1875,26.5 -7.125,6.125 40.1875,1.78125 -3.5,-2.8125 9.1875,-25.5 -2.03125,-7.125 -1.03125,-32.625 7.15625,-12.25 -8.15625,-21.40625 21.8125,-13.875 -4.5,-9.59375 2.0625,-6.125 -12.25,-14.28125 12.25,-8.15625 -4.09375,-3.0625 -9.1875,1.03125 -1,-22.4375 5.09375,-3.0625 -4.09375,-7.125 0,-16.3125 -1,-5.124999 0,-21.40625 -7.15625,-6.125 -6.09375,7.15625 -24.5,2.03125 -5.09375,-11.21875 z"
     id="path11057"
     style="fill:none;stroke:#000000;stroke-width:7.5;stroke-linecap:round;stroke-linejoin:round;stroke-miterlimit:4;stroke-opacity:1;stroke-dasharray:none;stroke-dashoffset:0" />
  <path
     d="m 224.81252,28.499861 -16.3125,6.125 0,12.21875 -26.53125,9.1875 -5.09375,-4.0625 -5.09375,3.03125 3.0625,6.124999 -21.40625,10.21875 -7.15625,-8.15625 -8.15625,13.25 4.09375,6.125 -25.5,13.25 -3.0625,29.5625 -10.1875,0 -9.1875,11.21875 -10.1875,-10.1875 -11.21875,7.125 -1.03125,6.125 11.21875,12.25 -11.21875,21.40625 0,14.28125 17.34375,-21.40625 45.875,0 62.21875,38.75 20.40625,28.5625 10.1875,26.5 -7.125,6.125 40.1875,1.78125 -3.5,-2.8125 9.1875,-25.5 -2.03125,-7.125 -1.03125,-32.625 7.15625,-12.25 -8.15625,-21.40625 21.8125,-13.875 -4.5,-9.59375 2.0625,-6.125 -12.25,-14.28125 12.25,-8.15625 -4.09375,-3.0625 -9.1875,1.03125 -1,-22.4375 5.09375,-3.0625 -4.09375,-7.125 0,-16.3125 -1,-5.124999 0,-21.40625 -7.15625,-6.125 -6.09375,7.15625 -24.5,2.03125 -5.09375,-11.21875 z"
     id="path8785"
     style="fill:#0A7A27;fill-opacity:1;stroke:#ffffff;stroke-width:2.5;stroke-linecap:round;stroke-linejoin:round;stroke-miterlimit:4;stroke-opacity:1;stroke-dasharray:none;stroke-dashoffset:0" />
  <g
     transform="translate(-40,-40)"
     id="g5971">
    <path
       d="m 260.6051,171.98756 c -0.45901,0.0192 -0.95162,0.0658 -1.5,0.1875 -0.29011,0.0645 -0.58407,0.16354 -0.9375,0.28125 -0.40783,0.13606 -0.89741,0.38287 -1.375,0.6875 l -0.0312,-0.0312 -0.3125,0.21875 -8.40625,5.375 a 5.0005,5.0005 0 0 0 -0.0937,0.0625 c -0.42438,0.28299 -0.87953,0.61869 -1.34375,1.125 -0.54904,0.59908 -0.98296,1.31923 -1.25,2.03125 -0.25089,0.66911 -0.34303,1.21296 -0.40625,1.71875 -0.0653,0.52274 -0.0625,0.98963 -0.0625,1.46875 -1e-5,0.63043 0.008,1.23561 0.125,1.9375 0.15311,0.91887 0.50549,2.24436 1.8125,3.46875 l 0.0312,0 c 1.32653,1.21548 3.49347,1.63037 4.78125,1.40625 1.15316,-0.20041 1.72621,-0.51869 2.34375,-0.84375 l 0,15.03125 -2.90625,0 c -1.09364,3e-5 -2.36496,0.39689 -3.28125,1.03125 -0.89431,0.61913 -1.49203,1.43283 -1.875,2.15625 -0.36613,0.69155 -0.55943,1.28872 -0.6875,1.84375 -0.17231,0.74663 -0.21876,1.40187 -0.21875,2.03125 -1e-5,0.63429 0.0401,1.28848 0.21875,2.0625 0.1586,0.68733 0.41664,1.46403 1,2.3125 0.39547,0.57526 0.96244,1.24375 1.9375,1.8125 0.84826,0.49485 1.93623,0.78125 2.90625,0.78125 l 19.8125,0 c 0.97018,0 1.96365,-0.26417 2.75,-0.6875 1.0557,-0.56857 1.77879,-1.39001 2.21875,-2.09375 0.50426,-0.80703 0.73008,-1.49732 0.875,-2.125 0.17844,-0.77358 0.2187,-1.42845 0.21875,-2.0625 -5e-5,-0.58282 -0.058,-1.20122 -0.1875,-1.875 -0.11574,-0.60148 -0.28591,-1.2412 -0.6875,-2 -0.41869,-0.79061 -1.13146,-1.65133 -2.0625,-2.25 -0.86525,-0.5561 -2.0312,-0.93747 -3.125,-0.9375 l -1.875,0 0,-28.3125 c -1.6e-4,-0.95022 -0.2636,-1.94108 -0.6875,-2.71875 -0.85169,-1.56037 -2.11265,-2.21026 -2.9375,-2.53125 -0.80793,-0.31399 -1.35239,-0.39945 -1.90625,-0.46875 -0.61731,-0.0771 -1.2051,-0.0937 -1.8125,-0.0937 -0.39757,4e-5 -0.7249,-0.014 -1.0625,0 z"
       id="text5515"
       style="font-size:60px;font-style:normal;font-variant:normal;font-weight:normal;font-stretch:normal;text-indent:0;text-align:start;text-decoration:none;line-height:125%;letter-spacing:normal;word-spacing:normal;text-transform:none;direction:ltr;block-progression:tb;writing-mode:lr-tb;text-anchor:start;opacity:0.5;color:#000000;fill:#ffffff;fill-opacity:1;fill-rule:nonzero;stroke:none;stroke-width:10;marker:none;visibility:visible;display:inline;overflow:visible;enable-background:accumulate;font-family:Calibri;-inkscape-font-specification:Calibri" />
    <path
       d="m 260.69885,174.48756 c -0.3467,0.0145 -0.70043,0.0759 -1.0625,0.15625 -0.23295,0.0518 -0.4522,0.10913 -0.6875,0.1875 -0.26334,0.0879 -0.55634,0.21698 -0.84375,0.40625 l -0.125,0.0625 c -0.0129,0.009 -0.0183,0.0216 -0.0312,0.0312 l -8.5625,5.5 c -0.021,0.0101 -0.0418,0.0205 -0.0625,0.0312 -0.30008,0.2001 -0.58918,0.40702 -0.875,0.71875 -0.32823,0.35815 -0.58719,0.78463 -0.75,1.21875 -0.15474,0.4127 -0.20374,0.78618 -0.25,1.15625 -0.0473,0.37857 -0.0625,0.75069 -0.0625,1.15625 -1e-5,0.53984 0.0108,1.03384 0.0937,1.53125 0.10139,0.60848 0.30029,1.38393 1.03125,2.0625 0.73066,0.67865 1.92799,0.88218 2.6875,0.75 0.68888,-0.11972 1.13068,-0.33355 1.625,-0.59375 0.0422,-0.0197 0.0839,-0.0405 0.125,-0.0625 l 3.53125,-2.125 0,21.9375 -5.40625,0 c -0.62495,2e-5 -1.32213,0.20138 -1.84375,0.5625 -0.51063,0.35351 -0.88957,0.83653 -1.125,1.28125 -0.22701,0.42879 -0.34417,0.84553 -0.4375,1.25 -0.11546,0.50027 -0.15626,0.97828 -0.15625,1.46875 -1e-5,0.50269 0.0376,0.98604 0.15625,1.5 0.10859,0.47062 0.27961,0.96639 0.625,1.46875 0.25144,0.36576 0.61012,0.74394 1.15625,1.0625 0.48272,0.2816 1.07163,0.4375 1.625,0.4375 l 19.8125,0 c 0.55344,0 1.10583,-0.12915 1.5625,-0.375 0.59131,-0.31847 1.01243,-0.78876 1.28125,-1.21875 0.30094,-0.48164 0.46073,-0.93421 0.5625,-1.375 0.1185,-0.51374 0.15621,-0.99743 0.15625,-1.5 -4e-5,-0.46719 -0.0358,-0.91116 -0.125,-1.375 6e-5,-0.0104 6e-5,-0.0208 0,-0.0312 -0.0823,-0.42769 -0.22402,-0.85009 -0.46875,-1.3125 -0.25331,-0.47831 -0.65363,-0.96922 -1.1875,-1.3125 -0.501,-0.32199 -1.15624,-0.53123 -1.78125,-0.53125 l -4.375,0 0,-30.8125 c -9e-5,-0.53369 -0.13377,-1.08869 -0.375,-1.53125 -0.45515,-0.83388 -1.15594,-1.21156 -1.65625,-1.40625 -0.49186,-0.19115 -0.87933,-0.2583 -1.3125,-0.3125 -0.46491,-0.0581 -0.96193,-0.0625 -1.5,-0.0625 -0.37458,4e-5 -0.68277,-0.0119 -0.96875,0 l 0,5e-5 z"
       id="text5519"
       style="font-size:60px;font-style:normal;font-variant:normal;font-weight:normal;font-stretch:normal;text-indent:0;text-align:start;text-decoration:none;line-height:125%;letter-spacing:normal;word-spacing:normal;text-transform:none;direction:ltr;block-progression:tb;writing-mode:lr-tb;text-anchor:start;color:#000000;fill:#ffffff;fill-opacity:1;fill-rule:nonzero;stroke:none;stroke-width:5;marker:none;visibility:visible;display:inline;overflow:visible;enable-background:accumulate;font-family:Calibri;-inkscape-font-specification:Calibri" />
    <g
       transform="translate(3.9800995,2.4875622)"
       id="text5523"
       style="font-size:60px;font-style:normal;font-variant:normal;font-weight:normal;font-stretch:normal;text-align:start;line-height:125%;writing-mode:lr-tb;text-anchor:start;fill:#000000;stroke:none;font-family:Calibri;-inkscape-font-specification:Calibri">
      <path
         d="m 267.95618,210.67711 c -3e-5,0.37109 -0.0293,0.68359 -0.0879,0.9375 -0.0586,0.25391 -0.13675,0.45898 -0.23438,0.61523 -0.0977,0.15625 -0.20999,0.26856 -0.33691,0.33692 -0.12698,0.0684 -0.25882,0.10254 -0.39551,0.10254 l -19.80469,0 c -0.13672,0 -0.26368,-0.0342 -0.38086,-0.10254 -0.11719,-0.0684 -0.2295,-0.18067 -0.33691,-0.33692 -0.10743,-0.15625 -0.19044,-0.36132 -0.24903,-0.61523 -0.0586,-0.25391 -0.0879,-0.56641 -0.0879,-0.9375 0,-0.35156 0.0293,-0.6543 0.0879,-0.9082 0.0586,-0.25391 0.13184,-0.46387 0.21973,-0.62989 0.0879,-0.16601 0.19531,-0.29296 0.32227,-0.38086 0.12694,-0.0879 0.26855,-0.13183 0.4248,-0.13183 l 7.91016,0 0,-28.82813 -7.32422,4.36524 c -0.3711,0.19534 -0.66895,0.31253 -0.89356,0.35156 -0.22461,0.0391 -0.40527,-0.005 -0.54199,-0.13184 -0.13672,-0.12692 -0.2295,-0.33688 -0.27832,-0.62988 -0.0488,-0.29294 -0.0733,-0.66403 -0.0732,-1.11328 -1e-5,-0.332 0.0146,-0.6152 0.0439,-0.84961 0.0293,-0.23434 0.0732,-0.42966 0.13183,-0.58594 0.0586,-0.15622 0.1416,-0.29293 0.24902,-0.41015 0.10742,-0.11716 0.24902,-0.23435 0.42481,-0.35157 l 8.73047,-5.5957 c 0.0781,-0.0586 0.17576,-0.10738 0.29297,-0.14648 0.11717,-0.039 0.26365,-0.0781 0.43945,-0.11719 0.17577,-0.039 0.38084,-0.0634 0.61523,-0.0732 0.23436,-0.01 0.52733,-0.0146 0.87891,-0.0146 0.46873,4e-5 0.85936,0.0196 1.17188,0.0586 0.31248,0.0391 0.55662,0.0928 0.73242,0.16113 0.17576,0.0684 0.29295,0.15629 0.35156,0.26368 0.0586,0.10746 0.0879,0.21976 0.0879,0.33691 l 0,33.31055 6.85547,0 c 0.15622,0 0.30271,0.0439 0.43945,0.13183 0.13669,0.0879 0.249,0.21485 0.33692,0.38086 0.0879,0.16602 0.15622,0.37598 0.20507,0.62989 0.0488,0.2539 0.0732,0.55664 0.0733,0.9082 z"
         id="path5956"
         style="fill:#000000;font-family:Calibri;-inkscape-font-specification:Calibri" />
    </g>
  </g>
</svg>
